<!-- Generated by readme-aura https://github.com/collectioneur/readme-aura -->
<svg width="120" height="44" viewBox="0 0 120 44" xmlns="http://www.w3.org/2000/svg"><mask id="satori_om-id"><rect x="0" y="0" width="120" height="44" fill="#fff"/></mask><path x="0" y="0" width="120" height="44" fill="#000000" d="M22,0 h76 a22,22 0 0 1 22,22 v0 a22,22 0 0 1 -22,22 h-76 a22,22 0 0 1 -22,-22 v0 a22,22 0 0 1 22,-22"/><clipPath id="satori_cp-id-0"><rect x="0" y="0" width="120" height="44"/></clipPath><mask id="satori_om-id-0"><rect x="0" y="0" width="120" height="44" fill="#fff"/></mask><svg x="0" y="0" width="120" height="44" preserveAspectRatio="none" clip-path="url(#satori_cp-id-0)" mask="url(#satori_om-id-0)"><defs><linearGradient id="smb-grad-Codolio" gradientUnits="objectBoundingBox" x1="0" y1="0" x2="1" y2="1"><stop offset="0%" stop-color="#fbbf24"></stop><stop offset="30%" stop-color="#000000"></stop><stop offset="60%" stop-color="#f59e0b"></stop><stop offset="80%" stop-color="#000000"></stop><stop offset="100%" stop-color="#d97706"></stop><animateTransform attributeName="gradientTransform" type="rotate" from="0 0.5 0.5" to="360 0.5 0.5" dur="8s" repeatCount="indefinite"></animateTransform></linearGradient></defs><rect x="1.25" y="1.25" width="117.5" height="41.5" rx="20.75" ry="20.75" fill="none" stroke="url(#smb-grad-Codolio)" stroke-width="2" stroke-linecap="round" stroke-linejoin="round"></rect><rect x="0.25" y="0.25" width="119.5" height="43.5" rx="21.75" ry="21.75" fill="none" stroke="#AAAAAA" stroke-width="0.5" stroke-linecap="round" stroke-linejoin="round"></rect></svg><mask id="satori_om-id-0-0"><rect x="0" y="0" width="0" height="44" fill="#fff"/></mask><mask id="satori_om-id-0-0-0"><rect x="0" y="0" width="0" height="44" fill="#fff"/></mask><mask id="satori_om-id-0-0-0-0"><rect x="0" y="0" width="0" height="44" fill="#fff"/></mask><mask id="satori_om-id-0-0-0-1"><rect x="0" y="0" width="0" height="44" fill="#fff"/></mask><mask id="satori_om-id-0-0-0-2"><rect x="0" y="0" width="0" height="44" fill="#fff"/></mask><mask id="satori_om-id-0-0-0-3"><rect x="0" y="0" width="0" height="44" fill="#fff"/></mask><mask id="satori_om-id-0-0-0-4"><rect x="0" y="0" width="0" height="44" fill="#fff"/></mask><mask id="satori_om-id-0-0-0-5"><rect x="0" y="0" width="0" height="44" fill="#fff"/></mask><mask id="satori_om-id-0-1"><rect x="0" y="0" width="0" height="44" fill="#fff"/></mask><mask id="satori_om-id-0-2"><rect x="0" y="0" width="0" height="44" fill="#fff"/></mask><mask id="satori_om-id-1"><rect x="0" y="0" width="120" height="44" fill="#fff"/></mask><mask id="satori_om-id-1-0"><rect x="25" y="13" width="18" height="18" fill="#fff"/></mask><mask id="satori_om-id-1-1"><rect x="48" y="14" width="48" height="16" fill="#fff"/></mask><g  ><path fill="#f5f5f5" d="M53.0 27.1L53.0 27.1Q51.7 27.1 50.7 26.6Q49.7 26.0 49.2 24.9Q48.6 23.8 48.6 22.3L48.6 22.3Q48.6 20.7 49.2 19.6Q49.8 18.6 50.7 18.0Q51.7 17.4 53.0 17.4L53.0 17.4Q53.8 17.4 54.5 17.6Q55.2 17.9 55.7 18.3Q56.3 18.7 56.6 19.4Q57.0 20.0 57.1 20.8L57.1 20.8L55.1 20.8Q55.0 20.4 54.9 20.1Q54.7 19.8 54.4 19.6Q54.1 19.4 53.8 19.2Q53.4 19.1 53.0 19.1L53.0 19.1Q52.3 19.1 51.7 19.5Q51.2 19.9 50.9 20.6Q50.6 21.3 50.6 22.3L50.6 22.3Q50.6 23.3 50.9 24.0Q51.2 24.7 51.7 25.1Q52.3 25.4 53.0 25.4L53.0 25.4Q53.4 25.4 53.8 25.3Q54.1 25.2 54.4 25.0Q54.7 24.8 54.9 24.5Q55.0 24.1 55.1 23.8L55.1 23.8L57.1 23.8Q57.0 24.4 56.7 25.0Q56.4 25.6 55.8 26.1Q55.3 26.6 54.6 26.9Q53.9 27.1 53.0 27.1ZM61.4 27.1L61.4 27.1Q60.3 27.1 59.6 26.7Q58.8 26.2 58.4 25.4Q57.9 24.6 57.9 23.5L57.9 23.5Q57.9 22.4 58.4 21.6Q58.8 20.7 59.6 20.3Q60.3 19.8 61.4 19.8L61.4 19.8Q62.5 19.8 63.3 20.3Q64.0 20.7 64.5 21.6Q64.9 22.4 64.9 23.5L64.9 23.5Q64.9 24.6 64.5 25.4Q64.0 26.2 63.3 26.7Q62.5 27.1 61.4 27.1ZM61.4 25.6L61.4 25.6Q61.9 25.6 62.3 25.4Q62.6 25.1 62.8 24.6Q62.9 24.1 62.9 23.5L62.9 23.5Q62.9 22.8 62.8 22.4Q62.6 21.9 62.3 21.6Q61.9 21.3 61.4 21.3L61.4 21.3Q60.9 21.3 60.6 21.6Q60.2 21.9 60.0 22.4Q59.9 22.8 59.9 23.5L59.9 23.5Q59.9 24.1 60.0 24.6Q60.2 25.1 60.6 25.4Q60.9 25.6 61.4 25.6ZM68.6 27.1L68.6 27.1Q67.8 27.1 67.1 26.7Q66.5 26.3 66.1 25.5Q65.7 24.6 65.7 23.5L65.7 23.5Q65.7 22.3 66.1 21.4Q66.5 20.6 67.1 20.2Q67.8 19.8 68.6 19.8L68.6 19.8Q69.2 19.8 69.6 20.0Q70.0 20.2 70.2 20.5Q70.5 20.8 70.6 21.1L70.6 21.1L70.7 21.1L70.7 17.5L72.6 17.5L72.6 27L70.7 27L70.7 25.9L70.6 25.9Q70.5 26.1 70.2 26.4Q70.0 26.7 69.6 26.9Q69.2 27.1 68.6 27.1ZM69.2 25.6L69.2 25.6Q69.7 25.6 70.0 25.3Q70.3 25.1 70.5 24.6Q70.7 24.1 70.7 23.5L70.7 23.5Q70.7 22.8 70.5 22.3Q70.4 21.9 70.0 21.6Q69.7 21.3 69.2 21.3L69.2 21.3Q68.7 21.3 68.3 21.6Q68.0 21.9 67.8 22.4Q67.7 22.8 67.7 23.5L67.7 23.5Q67.7 24.1 67.8 24.6Q68.0 25.0 68.3 25.3Q68.7 25.6 69.2 25.6ZM77.2 27.1L77.2 27.1Q76.1 27.1 75.3 26.7Q74.5 26.2 74.1 25.4Q73.7 24.6 73.7 23.5L73.7 23.5Q73.7 22.4 74.1 21.6Q74.5 20.7 75.3 20.3Q76.1 19.8 77.2 19.8L77.2 19.8Q78.2 19.8 79.0 20.3Q79.8 20.7 80.2 21.6Q80.6 22.4 80.6 23.5L80.6 23.5Q80.6 24.6 80.2 25.4Q79.8 26.2 79.0 26.7Q78.2 27.1 77.2 27.1ZM77.2 25.6L77.2 25.6Q77.7 25.6 78.0 25.4Q78.4 25.1 78.5 24.6Q78.7 24.1 78.7 23.5L78.7 23.5Q78.7 22.8 78.5 22.4Q78.4 21.9 78.0 21.6Q77.7 21.3 77.2 21.3L77.2 21.3Q76.7 21.3 76.3 21.6Q76.0 21.9 75.8 22.4Q75.6 22.8 75.6 23.5L75.6 23.5Q75.6 24.1 75.8 24.6Q76.0 25.1 76.3 25.4Q76.7 25.6 77.2 25.6ZM81.8 17.5L83.7 17.5L83.7 27L81.8 27L81.8 17.5ZM87.0 27L85.1 27L85.1 19.9L87.0 19.9L87.0 27ZM86.0 19.0L86.0 19.0Q85.6 19.0 85.3 18.7Q85.0 18.4 85.0 18.0L85.0 18.0Q85.0 17.6 85.3 17.3Q85.6 17.0 86.0 17.0L86.0 17.0Q86.5 17.0 86.8 17.3Q87.1 17.6 87.1 18.0L87.1 18.0Q87.1 18.4 86.8 18.7Q86.5 19.0 86.0 19.0ZM91.6 27.1L91.6 27.1Q90.5 27.1 89.7 26.7Q89.0 26.2 88.5 25.4Q88.1 24.6 88.1 23.5L88.1 23.5Q88.1 22.4 88.5 21.6Q89.0 20.7 89.7 20.3Q90.5 19.8 91.6 19.8L91.6 19.8Q92.7 19.8 93.4 20.3Q94.2 20.7 94.6 21.6Q95.1 22.4 95.1 23.5L95.1 23.5Q95.1 24.6 94.6 25.4Q94.2 26.2 93.4 26.7Q92.7 27.1 91.6 27.1ZM91.6 25.6L91.6 25.6Q92.1 25.6 92.4 25.4Q92.8 25.1 93.0 24.6Q93.1 24.1 93.1 23.5L93.1 23.5Q93.1 22.8 93.0 22.4Q92.8 21.9 92.4 21.6Q92.1 21.3 91.6 21.3L91.6 21.3Q91.1 21.3 90.7 21.6Q90.4 21.9 90.2 22.4Q90.1 22.8 90.1 23.5L90.1 23.5Q90.1 24.1 90.2 24.6Q90.4 25.1 90.7 25.4Q91.1 25.6 91.6 25.6Z "/></g></svg>