<!-- Generated by readme-aura https://github.com/collectioneur/readme-aura -->
<svg width="860" height="140" viewBox="0 0 860 140" xmlns="http://www.w3.org/2000/svg"><defs><clipPath id="satori_bc-id"><path x="0" y="0" width="860" height="140" d="M16,0 h828 a16,16 0 0 1 16,16 v108 a16,16 0 0 1 -16,16 h-828 a16,16 0 0 1 -16,-16 v-108 a16,16 0 0 1 16,-16"/></clipPath></defs><clipPath id="satori_cp-id"><path x="0" y="0" width="860" height="140" d="M16,0 h828 a16,16 0 0 1 16,16 v108 a16,16 0 0 1 -16,16 h-828 a16,16 0 0 1 -16,-16 v-108 a16,16 0 0 1 16,-16"/></clipPath><mask id="satori_om-id"><rect x="1" y="1" width="858" height="138" fill="#fff"/><path width="860" height="140" fill="none" stroke="#000" stroke-width="2" d="M4.686,4.686 A16,16 0 0 1 16,0 h828 a16,16 0 0 1 16,16 v108 a16,16 0 0 1 -16,16 h-828 a16,16 0 0 1 -16,-16 v-108 A16,16 0 0 1 4.686,4.686"/></mask><path x="0" y="0" width="860" height="140" fill="#08080c" d="M16,0 h828 a16,16 0 0 1 16,16 v108 a16,16 0 0 1 -16,16 h-828 a16,16 0 0 1 -16,-16 v-108 a16,16 0 0 1 16,-16"/><path width="860" height="140" clip-path="url(#satori_bc-id)" fill="none" stroke="rgba(0,185,240,0.18)" stroke-width="2" d="M4.686,4.686 A16,16 0 0 1 16,0 h828 a16,16 0 0 1 16,16 v108 a16,16 0 0 1 -16,16 h-828 a16,16 0 0 1 -16,-16 v-108 A16,16 0 0 1 4.686,4.686"/><clipPath id="satori_cp-id-0" clip-path="url(#satori_cp-id)"><rect x="1" y="1" width="860" height="140"/></clipPath><mask id="satori_om-id-0"><rect x="1" y="1" width="860" height="140" fill="#fff" mask="url(#satori_om-id)"/></mask><svg x="1" y="1" width="860" height="140" preserveAspectRatio="none" clip-path="url(#satori_cp-id-0)" mask="url(#satori_om-id-0)"><defs><radialGradient id="g1" cx="50%" cy="50%" r="50%"><stop offset="0%" stop-color="rgba(0,185,240,0.60)"></stop><stop offset="45%" stop-color="rgba(0,140,210,0.25)"></stop><stop offset="70%" stop-color="rgba(0,140,210,0)"></stop></radialGradient><radialGradient id="g2" cx="50%" cy="50%" r="50%"><stop offset="0%" stop-color="rgba(110,20,210,0.65)"></stop><stop offset="45%" stop-color="rgba(80,15,170,0.28)"></stop><stop offset="70%" stop-color="rgba(80,15,170,0)"></stop></radialGradient><radialGradient id="g3" cx="50%" cy="50%" r="50%"><stop offset="0%" stop-color="rgba(40,70,255,0.55)"></stop><stop offset="70%" stop-color="rgba(20,50,200,0)"></stop></radialGradient><radialGradient id="g4" cx="50%" cy="50%" r="50%"><stop offset="0%" stop-color="rgba(0,195,235,0.30)"></stop><stop offset="70%" stop-color="rgba(0,195,235,0)"></stop></radialGradient><radialGradient id="g5" cx="50%" cy="50%" r="50%"><stop offset="0%" stop-color="rgba(100,30,210,0.40)"></stop><stop offset="70%" stop-color="rgba(100,30,210,0)"></stop></radialGradient></defs><ellipse id="glow-1" cx="710" cy="150" rx="210" ry="150" fill="url(#g1)"></ellipse><ellipse id="glow-2" cx="550" cy="140" rx="190" ry="140" fill="url(#g2)"></ellipse><ellipse id="glow-3" cx="400" cy="130" rx="170" ry="130" fill="url(#g3)"></ellipse><ellipse id="glow-4" cx="250" cy="140" rx="150" ry="120" fill="url(#g4)"></ellipse><ellipse id="glow-5" cx="100" cy="150" rx="130" ry="110" fill="url(#g5)"></ellipse><style>

         @keyframes float-slow {
           0%, 100% { transform: translateX(0px); opacity: 0.8; }
           50% { transform: translateX(350px); opacity: 1.2; }
         }
         @keyframes float-medium {
           0%, 100% { transform: translateX(0px); opacity: 0.7; }
           50% { transform: translateX(-250px); opacity: 1.1; }
         }
         @keyframes float-fast {
           0%, 100% { transform: translateX(0px); opacity: 0.9; }
           50% { transform: translateX(200px); opacity: 0.6; }
         }
         @keyframes float-diagonal {
           0%, 100% { transform: translate(0px, 0px); opacity: 0.75; }
           50% { transform: translate(120px, 30px); opacity: 1.0; }
         }
         @keyframes float-wave {
           0%, 100% { transform: translateX(0px); opacity: 0.65; }
           33% { transform: translateX(-160px); opacity: 0.9; }
           66% { transform: translateX(80px); opacity: 1.0; }
         }
         #glow-1 { animation: float-slow 8s ease-in-out infinite; }
         #glow-2 { animation: float-medium 12s ease-in-out infinite; }
         #glow-3 { animation: float-fast 9s ease-in-out infinite; }
         #glow-4 { animation: float-diagonal 10s ease-in-out infinite; }
         #glow-5 { animation: float-wave 14s ease-in-out infinite; }
       
</style>
</svg><mask id="satori_om-id-0-0"><rect x="1" y="1" width="0" height="140" fill="#fff" mask="url(#satori_om-id)"/></mask><mask id="satori_om-id-0-0-0"><rect x="1" y="1" width="0" height="140" fill="#fff" mask="url(#satori_om-id)"/></mask><mask id="satori_om-id-0-0-0-0"><rect x="1" y="1" width="0" height="140" fill="#fff" mask="url(#satori_om-id)"/></mask><mask id="satori_om-id-0-0-0-1"><rect x="1" y="1" width="0" height="140" fill="#fff" mask="url(#satori_om-id)"/></mask><mask id="satori_om-id-0-0-0-2"><rect x="1" y="1" width="0" height="140" fill="#fff" mask="url(#satori_om-id)"/></mask><mask id="satori_om-id-0-0-1"><rect x="1" y="1" width="0" height="140" fill="#fff" mask="url(#satori_om-id)"/></mask><mask id="satori_om-id-0-0-1-0"><rect x="1" y="1" width="0" height="140" fill="#fff" mask="url(#satori_om-id)"/></mask><mask id="satori_om-id-0-0-1-1"><rect x="1" y="1" width="0" height="140" fill="#fff" mask="url(#satori_om-id)"/></mask><mask id="satori_om-id-0-0-1-2"><rect x="1" y="1" width="0" height="140" fill="#fff" mask="url(#satori_om-id)"/></mask><mask id="satori_om-id-0-0-2"><rect x="1" y="1" width="0" height="140" fill="#fff" mask="url(#satori_om-id)"/></mask><mask id="satori_om-id-0-0-2-0"><rect x="1" y="1" width="0" height="140" fill="#fff" mask="url(#satori_om-id)"/></mask><mask id="satori_om-id-0-0-2-1"><rect x="1" y="1" width="0" height="140" fill="#fff" mask="url(#satori_om-id)"/></mask><mask id="satori_om-id-0-0-3"><rect x="1" y="1" width="0" height="140" fill="#fff" mask="url(#satori_om-id)"/></mask><mask id="satori_om-id-0-0-3-0"><rect x="1" y="1" width="0" height="140" fill="#fff" mask="url(#satori_om-id)"/></mask><mask id="satori_om-id-0-0-3-1"><rect x="1" y="1" width="0" height="140" fill="#fff" mask="url(#satori_om-id)"/></mask><mask id="satori_om-id-0-0-4"><rect x="1" y="1" width="0" height="140" fill="#fff" mask="url(#satori_om-id)"/></mask><mask id="satori_om-id-0-0-4-0"><rect x="1" y="1" width="0" height="140" fill="#fff" mask="url(#satori_om-id)"/></mask><mask id="satori_om-id-0-0-4-1"><rect x="1" y="1" width="0" height="140" fill="#fff" mask="url(#satori_om-id)"/></mask><mask id="satori_om-id-0-1"><rect x="1" y="1" width="0" height="140" fill="#fff" mask="url(#satori_om-id)"/></mask><mask id="satori_om-id-0-2"><rect x="1" y="1" width="0" height="140" fill="#fff" mask="url(#satori_om-id)"/></mask><mask id="satori_om-id-0-3"><rect x="1" y="1" width="0" height="140" fill="#fff" mask="url(#satori_om-id)"/></mask><mask id="satori_om-id-0-4"><rect x="1" y="1" width="0" height="140" fill="#fff" mask="url(#satori_om-id)"/></mask><mask id="satori_om-id-0-5"><rect x="1" y="1" width="0" height="140" fill="#fff" mask="url(#satori_om-id)"/></mask><defs><clipPath id="satori_bc-id-1" clip-path="url(#satori_cp-id)"><rect x="1" y="30" width="278" height="80"/></clipPath></defs><mask id="satori_om-id-1"><rect x="1" y="30" width="277" height="80" fill="#fff" mask="url(#satori_om-id)"/><path width="278" height="80" fill="none" stroke="#000" stroke-width="2" d="M279,30 A0,0 0 0 1 279,30 v80 A0,0 0 0 1 279,110"/></mask><path width="278" height="80" clip-path="url(#satori_bc-id-1)" fill="none" stroke="rgba(255,255,255,0.06)" stroke-width="2" d="M279,30 A0,0 0 0 1 279,30 v80 A0,0 0 0 1 279,110"/><mask id="satori_om-id-1-0"><rect x="130" y="46" width="20" height="30" fill="#fff" mask="url(#satori_om-id)"/></mask><g mask="url(#satori_om-id)" clip-path="url(#satori_cp-id)"><path fill="#60a5fa" d="M139.8 72.3L139.8 72.3Q137.3 72.3 135.4 71.5Q133.5 70.7 132.5 69.3Q131.4 67.9 131.4 66.1L131.4 66.1Q131.4 64.8 132.0 63.6Q132.6 62.5 133.7 61.7Q134.7 60.9 136.1 60.7L136.1 60.7L136.1 60.6Q134.3 60.2 133.3 58.9Q132.2 57.5 132.2 55.7L132.2 55.7Q132.2 54.1 133.1 52.7Q134.1 51.4 135.8 50.6Q137.6 49.9 139.8 49.9L139.8 49.9Q141.9 49.9 143.7 50.6Q145.4 51.4 146.4 52.7Q147.4 54.1 147.4 55.7L147.4 55.7Q147.4 57.5 146.3 58.9Q145.2 60.2 143.5 60.6L143.5 60.6L143.5 60.7Q144.8 60.9 145.8 61.7Q146.9 62.5 147.5 63.6Q148.2 64.8 148.2 66.1L148.2 66.1Q148.2 67.9 147.1 69.3Q146.0 70.7 144.1 71.5Q142.2 72.3 139.8 72.3ZM139.8 69.0L139.8 69.0Q140.9 69.0 141.7 68.6Q142.6 68.2 143.0 67.5Q143.5 66.7 143.5 65.8L143.5 65.8Q143.5 64.8 143.0 64.1Q142.5 63.3 141.7 62.9Q140.8 62.5 139.8 62.5L139.8 62.5Q138.7 62.5 137.8 62.9Q137.0 63.3 136.5 64.1Q136.0 64.8 136.0 65.8L136.0 65.8Q136.0 66.7 136.5 67.4Q136.9 68.2 137.8 68.6Q138.6 69.0 139.8 69.0ZM139.8 59.2L139.8 59.2Q140.7 59.2 141.4 58.8Q142.1 58.4 142.6 57.8Q143.0 57.1 143.0 56.2L143.0 56.2Q143.0 55.3 142.6 54.7Q142.2 54.0 141.4 53.7Q140.7 53.3 139.8 53.3L139.8 53.3Q138.8 53.3 138.1 53.7Q137.4 54.0 136.9 54.7Q136.5 55.3 136.5 56.2L136.5 56.2Q136.5 57.1 136.9 57.8Q137.4 58.4 138.1 58.8Q138.8 59.2 139.8 59.2Z "/></g><mask id="satori_om-id-1-1"><rect x="117" y="81" width="45" height="13" fill="#fff" mask="url(#satori_om-id)"/></mask><g mask="url(#satori_om-id)" clip-path="url(#satori_cp-id)"><path fill="rgba(200,220,255,0.45)" d="M119.4 92L117.7 92L117.7 84.0L120.8 84.0Q121.8 84.0 122.4 84.3Q123.0 84.6 123.4 85.2Q123.7 85.8 123.7 86.6Q123.7 87.4 123.4 88.0Q123.0 88.5 122.4 88.8L122.4 88.8Q122.3 88.9 122.3 88.9L122.3 88.9L124.0 92L122.2 92L120.6 89.1L119.4 89.1L119.4 92ZM119.4 85.4L119.4 87.8L120.5 87.8Q121.0 87.8 121.4 87.7Q121.7 87.5 121.9 87.3Q122.0 87.0 122.0 86.6L122.0 86.6Q122.0 86.2 121.9 85.9Q121.7 85.6 121.4 85.5Q121.0 85.4 120.5 85.4L120.5 85.4L119.4 85.4ZM131.8 92L126.4 92L126.4 84.0L131.8 84.0L131.8 85.4L128.1 85.4L128.1 87.3L131.5 87.3L131.5 88.6L128.1 88.6L128.1 90.6L131.8 90.6L131.8 92ZM136.3 92L134.6 92L134.6 84.0L137.8 84.0Q138.7 84.0 139.3 84.3Q139.9 84.7 140.3 85.3Q140.6 85.9 140.6 86.7L140.6 86.7Q140.6 87.5 140.3 88.1Q139.9 88.7 139.3 89.0Q138.6 89.4 137.7 89.4L137.7 89.4L136.3 89.4L136.3 92ZM136.3 85.4L136.3 88.1L137.5 88.1Q138.0 88.1 138.3 87.9Q138.6 87.7 138.8 87.4Q138.9 87.1 138.9 86.7Q138.9 86.3 138.8 86.0Q138.6 85.7 138.3 85.5Q138.0 85.4 137.4 85.4L137.4 85.4L136.3 85.4ZM146.8 92.1L146.8 92.1Q145.7 92.1 144.9 91.6Q144.0 91.1 143.5 90.2Q143.0 89.3 143.0 88.0L143.0 88.0Q143.0 86.7 143.5 85.8Q144.0 84.9 144.9 84.4Q145.7 83.9 146.8 83.9L146.8 83.9Q147.8 83.9 148.7 84.4Q149.5 84.9 150.0 85.8Q150.5 86.7 150.5 88.0L150.5 88.0Q150.5 89.3 150.0 90.2Q149.5 91.1 148.7 91.6Q147.8 92.1 146.8 92.1ZM146.8 90.7L146.8 90.7Q147.4 90.7 147.9 90.3Q148.3 90.0 148.6 89.5Q148.8 88.9 148.8 88.0L148.8 88.0Q148.8 87.1 148.6 86.5Q148.3 86.0 147.9 85.6Q147.4 85.3 146.8 85.3L146.8 85.3Q146.2 85.3 145.7 85.7Q145.2 86.0 145.0 86.6Q144.7 87.1 144.7 88.0L144.7 88.0Q144.7 88.9 145.0 89.4Q145.2 90.0 145.7 90.3Q146.2 90.7 146.8 90.7ZM156.2 92.1L156.2 92.1Q155.2 92.1 154.5 91.8Q153.8 91.5 153.4 90.9Q153.0 90.4 153.0 89.5L153.0 89.5L154.6 89.5Q154.6 89.9 154.8 90.2Q155.0 90.5 155.4 90.6Q155.7 90.7 156.2 90.7L156.2 90.7Q156.6 90.7 156.9 90.6Q157.2 90.5 157.4 90.2Q157.6 90.0 157.6 89.7L157.6 89.7Q157.6 89.4 157.4 89.3Q157.3 89.1 157.0 88.9Q156.7 88.8 156.2 88.7L156.2 88.7L155.3 88.5Q154.3 88.2 153.8 87.7Q153.2 87.2 153.2 86.3L153.2 86.3Q153.2 85.6 153.6 85.0Q154.0 84.5 154.6 84.2Q155.3 83.9 156.2 83.9L156.2 83.9Q157.1 83.9 157.7 84.2Q158.4 84.5 158.8 85.0Q159.1 85.6 159.1 86.3L159.1 86.3L157.6 86.3Q157.5 85.8 157.2 85.5Q156.8 85.3 156.2 85.3L156.2 85.3Q155.8 85.3 155.5 85.4Q155.2 85.5 155.0 85.7Q154.9 85.9 154.9 86.2L154.9 86.2Q154.9 86.5 155.0 86.7Q155.2 86.9 155.5 87.0Q155.8 87.1 156.1 87.2L156.1 87.2L156.9 87.4Q157.4 87.5 157.8 87.7Q158.2 87.9 158.6 88.2Q158.9 88.4 159.1 88.8Q159.3 89.2 159.3 89.7L159.3 89.7Q159.3 90.4 158.9 91.0Q158.5 91.5 157.8 91.8Q157.1 92.1 156.2 92.1Z "/></g><defs><clipPath id="satori_bc-id-2" clip-path="url(#satori_cp-id)"><rect x="279" y="30" width="279" height="80"/></clipPath></defs><mask id="satori_om-id-2"><rect x="279" y="30" width="278" height="80" fill="#fff" mask="url(#satori_om-id)"/><path width="279" height="80" fill="none" stroke="#000" stroke-width="2" d="M558,30 A0,0 0 0 1 558,30 v80 A0,0 0 0 1 558,110"/></mask><path width="279" height="80" clip-path="url(#satori_bc-id-2)" fill="none" stroke="rgba(255,255,255,0.06)" stroke-width="2" d="M558,30 A0,0 0 0 1 558,30 v80 A0,0 0 0 1 558,110"/><mask id="satori_om-id-2-0"><rect x="407" y="46" width="21" height="30" fill="#fff" mask="url(#satori_om-id)"/></mask><g mask="url(#satori_om-id)" clip-path="url(#satori_cp-id)"><path fill="#a78bfa" d="M417.1 72.3L417.1 72.3Q414.4 72.3 412.4 71.0Q410.5 69.6 409.4 67.1Q408.4 64.6 408.4 61.1L408.4 61.1Q408.4 57.6 409.4 55.1Q410.5 52.5 412.4 51.2Q414.4 49.9 417.1 49.9L417.1 49.9Q419.9 49.9 421.8 51.2Q423.8 52.6 424.8 55.1Q425.9 57.6 425.9 61.1L425.9 61.1Q425.9 64.6 424.8 67.1Q423.8 69.6 421.8 71.0Q419.9 72.3 417.1 72.3ZM417.1 68.6L417.1 68.6Q418.5 68.6 419.4 67.7Q420.3 66.8 420.8 65.2Q421.3 63.5 421.3 61.1L421.3 61.1Q421.3 58.7 420.8 57.0Q420.3 55.3 419.4 54.5Q418.5 53.6 417.1 53.6L417.1 53.6Q415.8 53.6 414.8 54.5Q413.9 55.3 413.4 57.0Q412.9 58.7 412.9 61.1L412.9 61.1Q412.9 63.5 413.4 65.2Q413.9 66.8 414.8 67.7Q415.8 68.6 417.1 68.6Z "/></g><mask id="satori_om-id-2-1"><rect x="395" y="81" width="45" height="13" fill="#fff" mask="url(#satori_om-id)"/></mask><g mask="url(#satori_om-id)" clip-path="url(#satori_cp-id)"><path fill="rgba(200,220,255,0.45)" d="M398.7 92.1L398.7 92.1Q397.7 92.1 397.0 91.8Q396.3 91.5 395.9 90.9Q395.5 90.4 395.5 89.5L395.5 89.5L397.1 89.5Q397.1 89.9 397.3 90.2Q397.5 90.5 397.9 90.6Q398.2 90.7 398.6 90.7L398.6 90.7Q399.1 90.7 399.4 90.6Q399.7 90.5 399.9 90.2Q400.1 90.0 400.1 89.7L400.1 89.7Q400.1 89.4 399.9 89.3Q399.8 89.1 399.5 88.9Q399.2 88.8 398.7 88.7L398.7 88.7L397.8 88.5Q396.8 88.2 396.2 87.7Q395.7 87.2 395.7 86.3L395.7 86.3Q395.7 85.6 396.1 85.0Q396.5 84.5 397.1 84.2Q397.8 83.9 398.7 83.9L398.7 83.9Q399.6 83.9 400.2 84.2Q400.9 84.5 401.3 85.0Q401.6 85.6 401.6 86.3L401.6 86.3L400.1 86.3Q400.0 85.8 399.6 85.5Q399.3 85.3 398.7 85.3L398.7 85.3Q398.2 85.3 398.0 85.4Q397.7 85.5 397.5 85.7Q397.4 85.9 397.4 86.2L397.4 86.2Q397.4 86.5 397.5 86.7Q397.7 86.9 398.0 87.0Q398.3 87.1 398.6 87.2L398.6 87.2L399.4 87.4Q399.9 87.5 400.3 87.7Q400.7 87.9 401.1 88.2Q401.4 88.4 401.6 88.8Q401.7 89.2 401.7 89.7L401.7 89.7Q401.7 90.4 401.4 91.0Q401.0 91.5 400.3 91.8Q399.6 92.1 398.7 92.1ZM406.6 85.4L404.1 85.4L404.1 84.0L410.6 84.0L410.6 85.4L408.2 85.4L408.2 92L406.6 92L406.6 85.4ZM414.6 92L412.8 92L415.5 84.0L417.7 84.0L420.5 92L418.7 92L418.1 90.1L415.2 90.1L414.6 92ZM415.6 88.9L417.6 88.9L417.4 88.1Q417.2 87.4 416.9 86.5L416.9 86.5Q416.8 85.9 416.6 85.3L416.6 85.3Q416.4 85.9 416.3 86.5L416.3 86.5Q416.1 87.4 415.9 88.1L415.9 88.1L415.6 88.9ZM424.6 92L423.0 92L423.0 84.0L426.1 84.0Q427.0 84.0 427.7 84.3Q428.3 84.6 428.6 85.2Q429.0 85.8 429.0 86.6Q429.0 87.4 428.6 88.0Q428.3 88.5 427.6 88.8L427.6 88.8Q427.6 88.9 427.5 88.9L427.5 88.9L429.3 92L427.4 92L425.9 89.1L424.6 89.1L424.6 92ZM424.6 85.4L424.6 87.8L425.8 87.8Q426.3 87.8 426.6 87.7Q427.0 87.5 427.1 87.3Q427.3 87.0 427.3 86.6L427.3 86.6Q427.3 86.2 427.1 85.9Q427.0 85.6 426.6 85.5Q426.3 85.4 425.8 85.4L425.8 85.4L424.6 85.4ZM434.6 92.1L434.6 92.1Q433.7 92.1 433.0 91.8Q432.3 91.5 431.9 90.9Q431.5 90.4 431.4 89.5L431.4 89.5L433.0 89.5Q433.1 89.9 433.3 90.2Q433.5 90.5 433.8 90.6Q434.2 90.7 434.6 90.7L434.6 90.7Q435.1 90.7 435.4 90.6Q435.7 90.5 435.9 90.2Q436.1 90.0 436.1 89.7L436.1 89.7Q436.1 89.4 435.9 89.3Q435.8 89.1 435.4 88.9Q435.1 88.8 434.7 88.7L434.7 88.7L433.8 88.5Q432.8 88.2 432.2 87.7Q431.7 87.2 431.7 86.3L431.7 86.3Q431.7 85.6 432.0 85.0Q432.4 84.5 433.1 84.2Q433.8 83.9 434.7 83.9L434.7 83.9Q435.5 83.9 436.2 84.2Q436.9 84.5 437.2 85.0Q437.6 85.6 437.6 86.3L437.6 86.3L436.0 86.3Q436.0 85.8 435.6 85.5Q435.3 85.3 434.6 85.3L434.6 85.3Q434.2 85.3 433.9 85.4Q433.6 85.5 433.5 85.7Q433.3 85.9 433.3 86.2L433.3 86.2Q433.3 86.5 433.5 86.7Q433.7 86.9 434.0 87.0Q434.3 87.1 434.6 87.2L434.6 87.2L435.3 87.4Q435.8 87.5 436.3 87.7Q436.7 87.9 437.0 88.2Q437.4 88.4 437.5 88.8Q437.7 89.2 437.7 89.7L437.7 89.7Q437.7 90.4 437.4 91.0Q437.0 91.5 436.3 91.8Q435.6 92.1 434.6 92.1Z "/></g><mask id="satori_om-id-3"><rect x="558" y="30" width="301" height="80" fill="#fff" mask="url(#satori_om-id)"/></mask><mask id="satori_om-id-3-0"><rect x="674" y="46" width="69" height="30" fill="#fff" mask="url(#satori_om-id)"/></mask><g mask="url(#satori_om-id)" clip-path="url(#satori_cp-id)"><path fill="#34d399" d="M680.2 50.2L685.0 50.2L685.0 72L680.5 72L680.5 54.1L680.4 54.1L675.4 57.7L675.4 53.6L680.2 50.2ZM694.2 72L689.5 72L698.6 54.0L698.6 53.9L688.0 53.9L688.0 50.2L703.3 50.2L703.3 53.9L694.2 72ZM713.4 72.3L713.4 72.3Q711.3 72.3 709.6 71.5Q707.9 70.6 706.9 69.2Q705.9 67.7 705.7 65.9L705.7 65.9L710.1 65.9Q710.4 67.1 711.2 67.8Q712.1 68.5 713.4 68.5L713.4 68.5Q714.8 68.5 715.8 67.6Q716.8 66.8 717.3 65.2Q717.8 63.6 717.8 61.5L717.8 61.5L717.7 61.5Q717.2 62.4 716.4 63.1Q715.5 63.8 714.5 64.1Q713.4 64.5 712.2 64.5L712.2 64.5Q710.3 64.5 708.7 63.6Q707.2 62.7 706.3 61.1Q705.5 59.5 705.5 57.5L705.5 57.5Q705.5 55.2 706.5 53.5Q707.5 51.8 709.3 50.8Q711.2 49.8 713.6 49.9L713.6 49.9Q715.3 49.9 716.8 50.4Q718.3 51.0 719.5 52.2Q720.8 53.5 721.5 55.5Q722.2 57.6 722.2 60.6L722.2 60.6Q722.2 63.3 721.6 65.5Q721.0 67.7 719.8 69.2Q718.7 70.7 717.0 71.5Q715.4 72.3 713.4 72.3ZM713.6 61.2L713.6 61.2Q714.4 61.2 715.1 60.9Q715.8 60.6 716.3 60.1Q716.8 59.5 717.1 58.8Q717.4 58.1 717.4 57.3L717.4 57.3Q717.4 56.3 716.9 55.4Q716.4 54.5 715.5 54.0Q714.7 53.4 713.6 53.4L713.6 53.4Q712.5 53.4 711.7 53.9Q710.8 54.5 710.3 55.4Q709.8 56.2 709.8 57.3L709.8 57.3Q709.8 58.4 710.3 59.3Q710.8 60.2 711.6 60.7Q712.5 61.2 713.6 61.2ZM740.8 72L725.4 72L725.4 68.8L733.1 61.5Q734.1 60.6 734.8 59.8Q735.5 59.0 735.8 58.2Q736.2 57.5 736.2 56.6L736.2 56.6Q736.2 55.6 735.8 54.9Q735.3 54.2 734.6 53.8Q733.8 53.5 732.8 53.5L732.8 53.5Q731.8 53.5 731.0 53.9Q730.3 54.3 729.9 55.0Q729.5 55.8 729.5 56.9L729.5 56.9L725.2 56.9Q725.2 54.7 726.2 53.2Q727.1 51.6 728.9 50.7Q730.6 49.9 732.8 49.9L732.8 49.9Q735.2 49.9 736.9 50.7Q738.6 51.5 739.6 53.0Q740.5 54.4 740.5 56.3L740.5 56.3Q740.5 57.5 740.1 58.7Q739.6 59.9 738.4 61.4Q737.1 62.9 734.9 64.9L734.9 64.9L731.6 68.2L731.6 68.3L740.8 68.3L740.8 72Z "/></g><mask id="satori_om-id-3-1"><rect x="676" y="81" width="66" height="13" fill="#fff" mask="url(#satori_om-id)"/></mask><g mask="url(#satori_om-id)" clip-path="url(#satori_cp-id)"><path fill="rgba(200,220,255,0.45)" d="M680.2 92.1L680.2 92.1Q679.2 92.1 678.3 91.6Q677.5 91.1 677.0 90.2Q676.5 89.3 676.5 88.0L676.5 88.0Q676.5 86.7 677.0 85.8Q677.5 84.9 678.3 84.4Q679.2 83.9 680.2 83.9L680.2 83.9Q680.9 83.9 681.5 84.1Q682.1 84.3 682.5 84.6Q683.0 85.0 683.3 85.5Q683.6 86.1 683.7 86.7L683.7 86.7L682.0 86.7Q682.0 86.4 681.8 86.1Q681.6 85.9 681.4 85.7Q681.2 85.5 680.9 85.4Q680.6 85.3 680.3 85.3L680.3 85.3Q679.6 85.3 679.2 85.7Q678.7 86.0 678.4 86.6Q678.2 87.2 678.2 88.0L678.2 88.0Q678.2 88.9 678.4 89.5Q678.7 90.1 679.2 90.4Q679.6 90.7 680.2 90.7L680.2 90.7Q680.6 90.7 680.9 90.6Q681.2 90.5 681.4 90.3Q681.6 90.1 681.8 89.8Q682.0 89.6 682.0 89.3L682.0 89.3L683.7 89.3Q683.6 89.8 683.3 90.3Q683.1 90.8 682.6 91.2Q682.2 91.6 681.6 91.9Q681.0 92.1 680.2 92.1ZM689.9 92.1L689.9 92.1Q688.8 92.1 688.0 91.6Q687.1 91.1 686.6 90.2Q686.1 89.3 686.1 88.0L686.1 88.0Q686.1 86.7 686.6 85.8Q687.1 84.9 688.0 84.4Q688.8 83.9 689.9 83.9L689.9 83.9Q690.9 83.9 691.8 84.4Q692.6 84.9 693.1 85.8Q693.6 86.7 693.6 88.0L693.6 88.0Q693.6 89.3 693.1 90.2Q692.6 91.1 691.8 91.6Q690.9 92.1 689.9 92.1ZM689.9 90.7L689.9 90.7Q690.5 90.7 691.0 90.3Q691.4 90.0 691.7 89.5Q691.9 88.9 691.9 88.0L691.9 88.0Q691.9 87.1 691.7 86.5Q691.4 86.0 691.0 85.6Q690.5 85.3 689.9 85.3L689.9 85.3Q689.3 85.3 688.8 85.7Q688.3 86.0 688.1 86.6Q687.8 87.1 687.8 88.0L687.8 88.0Q687.8 88.9 688.1 89.4Q688.3 90.0 688.8 90.3Q689.3 90.7 689.9 90.7ZM698.0 92L696.3 92L696.3 84.0L698.9 84.0L700.2 87.7Q700.2 87.9 700.3 88.3Q700.4 88.7 700.5 89.2L700.5 89.2Q700.7 89.7 700.7 90.1L700.7 90.1Q700.8 89.7 700.9 89.2L700.9 89.2Q701.0 88.8 701.2 88.3Q701.3 87.9 701.3 87.7L701.3 87.7L702.6 84.0L705.1 84.0L705.1 92L703.5 92L703.5 88.2Q703.5 88.0 703.5 87.6Q703.5 87.2 703.5 86.7Q703.5 86.3 703.5 85.8L703.5 85.8Q703.6 85.6 703.6 85.4L703.6 85.4Q703.5 85.6 703.4 85.9L703.4 85.9Q703.3 86.3 703.2 86.8Q703.1 87.2 702.9 87.6Q702.8 88.0 702.8 88.2L702.8 88.2L701.4 92L700.0 92L698.7 88.2Q698.6 88.0 698.5 87.6Q698.4 87.2 698.3 86.8Q698.1 86.4 698.0 85.9L698.0 85.9Q698.0 85.7 697.9 85.5L697.9 85.5Q697.9 85.6 697.9 85.8L697.9 85.8Q697.9 86.2 697.9 86.7Q697.9 87.2 698.0 87.6Q698.0 88.0 698.0 88.2L698.0 88.2L698.0 92ZM709.7 92L708.1 92L708.1 84.0L710.6 84.0L711.9 87.7Q712.0 87.9 712.1 88.3Q712.2 88.7 712.3 89.2L712.3 89.2Q712.4 89.7 712.5 90.1L712.5 90.1Q712.6 89.7 712.7 89.2L712.7 89.2Q712.8 88.8 712.9 88.3Q713.0 87.9 713.1 87.7L713.1 87.7L714.4 84.0L716.9 84.0L716.9 92L715.2 92L715.2 88.2Q715.2 88.0 715.2 87.6Q715.3 87.2 715.3 86.7Q715.3 86.3 715.3 85.8L715.3 85.8Q715.3 85.6 715.3 85.4L715.3 85.4Q715.2 85.6 715.2 85.9L715.2 85.9Q715.1 86.3 714.9 86.8Q714.8 87.2 714.7 87.6Q714.6 88.0 714.5 88.2L714.5 88.2L713.2 92L711.8 92L710.4 88.2Q710.4 88.0 710.3 87.6Q710.1 87.2 710.0 86.8Q709.9 86.4 709.8 85.9L709.8 85.9Q709.7 85.7 709.7 85.5L709.7 85.5Q709.7 85.6 709.7 85.8L709.7 85.8Q709.7 86.2 709.7 86.7Q709.7 87.2 709.7 87.6Q709.7 88.0 709.7 88.2L709.7 88.2L709.7 92ZM719.8 84.0L721.5 84.0L721.5 92L719.8 92L719.8 84.0ZM726.5 85.4L724.1 85.4L724.1 84.0L730.6 84.0L730.6 85.4L728.2 85.4L728.2 92L726.5 92L726.5 85.4ZM736.2 92.1L736.2 92.1Q735.2 92.1 734.5 91.8Q733.8 91.5 733.4 90.9Q733.0 90.4 733.0 89.5L733.0 89.5L734.6 89.5Q734.6 89.9 734.8 90.2Q735.0 90.5 735.4 90.6Q735.7 90.7 736.2 90.7L736.2 90.7Q736.6 90.7 736.9 90.6Q737.3 90.5 737.5 90.2Q737.6 90.0 737.6 89.7L737.6 89.7Q737.6 89.4 737.5 89.3Q737.3 89.1 737.0 88.9Q736.7 88.8 736.3 88.7L736.3 88.7L735.4 88.5Q734.4 88.2 733.8 87.7Q733.2 87.2 733.2 86.3L733.2 86.3Q733.2 85.6 733.6 85.0Q734.0 84.5 734.7 84.2Q735.3 83.9 736.2 83.9L736.2 83.9Q737.1 83.9 737.8 84.2Q738.4 84.5 738.8 85.0Q739.2 85.6 739.2 86.3L739.2 86.3L737.6 86.3Q737.6 85.8 737.2 85.5Q736.8 85.3 736.2 85.3L736.2 85.3Q735.8 85.3 735.5 85.4Q735.2 85.5 735.0 85.7Q734.9 85.9 734.9 86.2L734.9 86.2Q734.9 86.5 735.1 86.7Q735.2 86.9 735.5 87.0Q735.8 87.1 736.2 87.2L736.2 87.2L736.9 87.4Q737.4 87.5 737.8 87.7Q738.3 87.9 738.6 88.2Q738.9 88.4 739.1 88.8Q739.3 89.2 739.3 89.7L739.3 89.7Q739.3 90.4 738.9 91.0Q738.6 91.5 737.9 91.8Q737.2 92.1 736.2 92.1Z "/></g></svg>