<!-- Generated by readme-aura https://github.com/collectioneur/readme-aura -->
<svg width="860" height="180" viewBox="0 0 860 180" xmlns="http://www.w3.org/2000/svg"><defs><clipPath id="satori_bc-id"><path x="0" y="0" width="860" height="180" d="M16,0 h828 a16,16 0 0 1 16,16 v148 a16,16 0 0 1 -16,16 h-828 a16,16 0 0 1 -16,-16 v-148 a16,16 0 0 1 16,-16"/></clipPath></defs><clipPath id="satori_cp-id"><path x="0" y="0" width="860" height="180" d="M16,0 h828 a16,16 0 0 1 16,16 v148 a16,16 0 0 1 -16,16 h-828 a16,16 0 0 1 -16,-16 v-148 a16,16 0 0 1 16,-16"/></clipPath><mask id="satori_om-id"><rect x="1" y="1" width="858" height="178" fill="#fff"/><path width="860" height="180" fill="none" stroke="#000" stroke-width="2" d="M4.686,4.686 A16,16 0 0 1 16,0 h828 a16,16 0 0 1 16,16 v148 a16,16 0 0 1 -16,16 h-828 a16,16 0 0 1 -16,-16 v-148 A16,16 0 0 1 4.686,4.686"/></mask><path x="0" y="0" width="860" height="180" fill="#08080c" d="M16,0 h828 a16,16 0 0 1 16,16 v148 a16,16 0 0 1 -16,16 h-828 a16,16 0 0 1 -16,-16 v-148 a16,16 0 0 1 16,-16"/><path width="860" height="180" clip-path="url(#satori_bc-id)" fill="none" stroke="rgba(0,185,240,0.18)" stroke-width="2" d="M4.686,4.686 A16,16 0 0 1 16,0 h828 a16,16 0 0 1 16,16 v148 a16,16 0 0 1 -16,16 h-828 a16,16 0 0 1 -16,-16 v-148 A16,16 0 0 1 4.686,4.686"/><clipPath id="satori_cp-id-0" clip-path="url(#satori_cp-id)"><rect x="1" y="1" width="860" height="180"/></clipPath><mask id="satori_om-id-0"><rect x="1" y="1" width="860" height="180" fill="#fff" mask="url(#satori_om-id)"/></mask><svg x="1" y="1" width="860" height="180" preserveAspectRatio="none" clip-path="url(#satori_cp-id-0)" mask="url(#satori_om-id-0)"><defs><radialGradient id="g1" cx="50%" cy="50%" r="50%"><stop offset="0%" stop-color="rgba(0,185,240,0.60)"></stop><stop offset="42%" stop-color="rgba(0,140,210,0.25)"></stop><stop offset="70%" stop-color="rgba(0,140,210,0)"></stop></radialGradient><radialGradient id="g2" cx="50%" cy="50%" r="50%"><stop offset="0%" stop-color="rgba(115,20,215,0.55)"></stop><stop offset="45%" stop-color="rgba(85,15,175,0.20)"></stop><stop offset="70%" stop-color="rgba(85,15,175,0)"></stop></radialGradient><radialGradient id="g3" cx="50%" cy="50%" r="50%"><stop offset="0%" stop-color="rgba(55,55,255,0.45)"></stop><stop offset="50%" stop-color="rgba(35,45,210,0.16)"></stop><stop offset="70%" stop-color="rgba(35,45,210,0)"></stop></radialGradient><radialGradient id="g4" cx="50%" cy="50%" r="50%"><stop offset="0%" stop-color="rgba(52,211,153,0.30)"></stop><stop offset="70%" stop-color="rgba(52,211,153,0)"></stop></radialGradient></defs><ellipse id="glow-1" cx="170" cy="180" rx="260" ry="170" fill="url(#g1)"></ellipse><ellipse id="glow-2" cx="320" cy="190" rx="220" ry="140" fill="url(#g2)"></ellipse><ellipse id="glow-3" cx="460" cy="190" rx="190" ry="130" fill="url(#g3)"></ellipse><ellipse id="glow-4" cx="690" cy="190" rx="160" ry="110" fill="url(#g4)"></ellipse><style>

         @keyframes float-slow {
           0%, 100% { transform: translateX(0px); opacity: 0.8; }
           50% { transform: translateX(350px); opacity: 1.2; }
         }
         @keyframes float-medium {
           0%, 100% { transform: translateX(0px); opacity: 0.7; }
           50% { transform: translateX(-250px); opacity: 1.1; }
         }
         @keyframes float-fast {
           0%, 100% { transform: translateX(0px); opacity: 0.9; }
           50% { transform: translateX(200px); opacity: 0.6; }
         }
         @keyframes float-diagonal {
           0%, 100% { transform: translate(0px, 0px); opacity: 0.75; }
           50% { transform: translate(120px, 30px); opacity: 1.0; }
         }
         #glow-1 { animation: float-slow 9s ease-in-out infinite; }
         #glow-2 { animation: float-medium 12s ease-in-out infinite; }
         #glow-3 { animation: float-fast 8s ease-in-out infinite; }
         #glow-4 { animation: float-diagonal 11s ease-in-out infinite reverse; }
       
</style>
</svg><mask id="satori_om-id-0-0"><rect x="1" y="1" width="0" height="180" fill="#fff" mask="url(#satori_om-id)"/></mask><mask id="satori_om-id-0-0-0"><rect x="1" y="1" width="0" height="180" fill="#fff" mask="url(#satori_om-id)"/></mask><mask id="satori_om-id-0-0-0-0"><rect x="1" y="1" width="0" height="180" fill="#fff" mask="url(#satori_om-id)"/></mask><mask id="satori_om-id-0-0-0-1"><rect x="1" y="1" width="0" height="180" fill="#fff" mask="url(#satori_om-id)"/></mask><mask id="satori_om-id-0-0-0-2"><rect x="1" y="1" width="0" height="180" fill="#fff" mask="url(#satori_om-id)"/></mask><mask id="satori_om-id-0-0-1"><rect x="1" y="1" width="0" height="180" fill="#fff" mask="url(#satori_om-id)"/></mask><mask id="satori_om-id-0-0-1-0"><rect x="1" y="1" width="0" height="180" fill="#fff" mask="url(#satori_om-id)"/></mask><mask id="satori_om-id-0-0-1-1"><rect x="1" y="1" width="0" height="180" fill="#fff" mask="url(#satori_om-id)"/></mask><mask id="satori_om-id-0-0-1-2"><rect x="1" y="1" width="0" height="180" fill="#fff" mask="url(#satori_om-id)"/></mask><mask id="satori_om-id-0-0-2"><rect x="1" y="1" width="0" height="180" fill="#fff" mask="url(#satori_om-id)"/></mask><mask id="satori_om-id-0-0-2-0"><rect x="1" y="1" width="0" height="180" fill="#fff" mask="url(#satori_om-id)"/></mask><mask id="satori_om-id-0-0-2-1"><rect x="1" y="1" width="0" height="180" fill="#fff" mask="url(#satori_om-id)"/></mask><mask id="satori_om-id-0-0-2-2"><rect x="1" y="1" width="0" height="180" fill="#fff" mask="url(#satori_om-id)"/></mask><mask id="satori_om-id-0-0-3"><rect x="1" y="1" width="0" height="180" fill="#fff" mask="url(#satori_om-id)"/></mask><mask id="satori_om-id-0-0-3-0"><rect x="1" y="1" width="0" height="180" fill="#fff" mask="url(#satori_om-id)"/></mask><mask id="satori_om-id-0-0-3-1"><rect x="1" y="1" width="0" height="180" fill="#fff" mask="url(#satori_om-id)"/></mask><mask id="satori_om-id-0-1"><rect x="1" y="1" width="0" height="180" fill="#fff" mask="url(#satori_om-id)"/></mask><mask id="satori_om-id-0-2"><rect x="1" y="1" width="0" height="180" fill="#fff" mask="url(#satori_om-id)"/></mask><mask id="satori_om-id-0-3"><rect x="1" y="1" width="0" height="180" fill="#fff" mask="url(#satori_om-id)"/></mask><mask id="satori_om-id-0-4"><rect x="1" y="1" width="0" height="180" fill="#fff" mask="url(#satori_om-id)"/></mask><mask id="satori_om-id-1"><rect x="33" y="19" width="794" height="12" fill="#fff" mask="url(#satori_om-id)"/></mask><g mask="url(#satori_om-id)" clip-path="url(#satori_cp-id)"><path fill="rgba(140,200,255,0.5)" d="M35.6 23.0L33.4 23.0L33.4 21.7L39.3 21.7L39.3 23.0L37.1 23.0L37.1 29L35.6 29L35.6 23.0ZM48.2 29L43.3 29L43.3 21.7L48.2 21.7L48.2 23.0L44.8 23.0L44.8 24.7L47.9 24.7L47.9 25.9L44.8 25.9L44.8 27.8L48.2 27.8L48.2 29ZM55.6 29.1L55.6 29.1Q54.6 29.1 53.9 28.7Q53.1 28.2 52.6 27.4Q52.2 26.5 52.2 25.4L52.2 25.4Q52.2 24.2 52.7 23.3Q53.1 22.5 53.9 22.1Q54.6 21.6 55.6 21.6L55.6 21.6Q56.2 21.6 56.7 21.8Q57.3 22.0 57.7 22.3Q58.1 22.6 58.4 23.1Q58.6 23.6 58.7 24.2L58.7 24.2L57.2 24.2Q57.2 23.9 57.0 23.7Q56.9 23.4 56.7 23.3Q56.5 23.1 56.2 23.0Q55.9 23.0 55.6 23.0L55.6 23.0Q55.0 23.0 54.6 23.2Q54.2 23.5 54.0 24.1Q53.7 24.6 53.7 25.4L53.7 25.4Q53.7 26.2 54.0 26.7Q54.2 27.2 54.6 27.5Q55.0 27.8 55.6 27.8L55.6 27.8Q55.9 27.8 56.2 27.7Q56.5 27.6 56.7 27.4Q56.9 27.3 57.0 27.0Q57.2 26.8 57.2 26.5L57.2 26.5L58.7 26.5Q58.7 27.0 58.4 27.5Q58.2 27.9 57.8 28.3Q57.4 28.7 56.8 28.9Q56.3 29.1 55.6 29.1ZM64.3 29L62.8 29L62.8 21.7L64.3 21.7L64.3 24.7L67.5 24.7L67.5 21.7L69.0 21.7L69.0 29L67.5 29L67.5 25.9L64.3 25.9L64.3 29Z M81.3 29.1L81.3 29.1Q80.4 29.1 79.8 28.8Q79.1 28.6 78.8 28.0Q78.4 27.5 78.4 26.7L78.4 26.7L79.9 26.7Q79.9 27.1 80.1 27.4Q80.3 27.6 80.6 27.7Q80.9 27.8 81.3 27.8L81.3 27.8Q81.7 27.8 82.0 27.7Q82.3 27.6 82.5 27.4Q82.6 27.2 82.6 26.9L82.6 26.9Q82.6 26.7 82.5 26.5Q82.3 26.3 82.0 26.2Q81.8 26.1 81.4 26.0L81.4 26.0L80.6 25.8Q79.6 25.6 79.1 25.1Q78.6 24.6 78.6 23.8L78.6 23.8Q78.6 23.2 78.9 22.7Q79.3 22.2 79.9 21.9Q80.5 21.6 81.3 21.6L81.3 21.6Q82.1 21.6 82.7 21.9Q83.3 22.2 83.7 22.7Q84.0 23.2 84.0 23.8L84.0 23.8L82.6 23.8Q82.5 23.4 82.2 23.1Q81.9 22.9 81.3 22.9L81.3 22.9Q80.9 22.9 80.7 23.0Q80.4 23.1 80.3 23.3Q80.1 23.5 80.1 23.7L80.1 23.7Q80.1 24.0 80.3 24.2Q80.4 24.3 80.7 24.5Q81.0 24.6 81.3 24.6L81.3 24.6L81.9 24.8Q82.4 24.9 82.8 25.1Q83.2 25.3 83.5 25.5Q83.8 25.8 84.0 26.1Q84.1 26.5 84.1 26.9L84.1 26.9Q84.1 27.6 83.8 28.1Q83.5 28.6 82.8 28.8Q82.2 29.1 81.3 29.1ZM90.1 23.0L87.9 23.0L87.9 21.7L93.8 21.7L93.8 23.0L91.6 23.0L91.6 29L90.1 29L90.1 23.0ZM99.1 29L97.4 29L99.9 21.7L101.9 21.7L104.4 29L102.8 29L102.2 27.3L99.6 27.3L99.1 29ZM100.0 26.1L101.8 26.1L101.6 25.5Q101.4 24.8 101.2 24L101.2 24Q101.0 23.5 100.9 22.9L100.9 22.9Q100.7 23.5 100.6 24.0L100.6 24.0Q100.4 24.8 100.2 25.5L100.2 25.5L100.0 26.1ZM111.5 29.1L111.5 29.1Q110.5 29.1 109.8 28.7Q109.0 28.2 108.6 27.4Q108.1 26.5 108.1 25.4L108.1 25.4Q108.1 24.2 108.6 23.3Q109.0 22.5 109.8 22.1Q110.6 21.6 111.5 21.6L111.5 21.6Q112.1 21.6 112.7 21.8Q113.2 22.0 113.6 22.3Q114.0 22.6 114.3 23.1Q114.6 23.6 114.6 24.2L114.6 24.2L113.1 24.2Q113.1 23.9 112.9 23.7Q112.8 23.4 112.6 23.3Q112.4 23.1 112.1 23.0Q111.9 23.0 111.5 23.0L111.5 23.0Q111.0 23.0 110.5 23.2Q110.1 23.5 109.9 24.1Q109.6 24.6 109.6 25.4L109.6 25.4Q109.6 26.2 109.9 26.7Q110.1 27.2 110.5 27.5Q111.0 27.8 111.5 27.8L111.5 27.8Q111.8 27.8 112.1 27.7Q112.4 27.6 112.6 27.4Q112.8 27.3 112.9 27.0Q113.1 26.8 113.1 26.5L113.1 26.5L114.6 26.5Q114.6 27.0 114.3 27.5Q114.1 27.9 113.7 28.3Q113.3 28.7 112.8 28.9Q112.2 29.1 111.5 29.1ZM120.2 29L118.7 29L118.7 21.7L120.2 21.7L120.2 23.7L120.2 25.4Q120.2 25.3 120.3 25.3L120.3 25.3Q120.5 24.9 120.7 24.6Q121.0 24.2 121.3 23.8L121.3 23.8L123.1 21.7L124.9 21.7L122.2 24.9L125.0 29L123.3 29L121.2 25.9L120.2 26.9L120.2 29Z M136.5 29.1L136.5 29.1Q135.7 29.1 135.2 28.8Q134.6 28.6 134.3 28.1Q134.0 27.6 134.0 27.1L134.0 27.1Q134.0 26.6 134.2 26.3Q134.4 26.0 134.7 25.7L134.7 25.7Q135.0 25.4 135.4 25.2L135.4 25.2Q135.3 25.1 135.3 25.1L135.3 25.1Q135.0 24.7 134.8 24.3Q134.7 23.9 134.7 23.5L134.7 23.5Q134.7 23.0 134.9 22.5Q135.2 22.1 135.6 21.9Q136.0 21.6 136.6 21.6L136.6 21.6Q137.2 21.6 137.6 21.9Q138.1 22.1 138.3 22.5Q138.5 22.9 138.5 23.4L138.5 23.4Q138.5 23.7 138.4 24.0Q138.3 24.3 138.1 24.5Q137.8 24.8 137.5 25.0L137.5 25.0L137.1 25.3L138.3 26.7Q138.4 26.6 138.5 26.5L138.5 26.5Q138.6 26.0 138.6 25.5L138.6 25.5L139.9 25.5Q139.9 26.1 139.7 26.7Q139.6 27.2 139.3 27.6L139.3 27.6Q139.3 27.7 139.2 27.7L139.2 27.7L140.3 29L138.8 29L138.3 28.5Q137.9 28.8 137.5 29.0L137.5 29.0Q136.9 29.1 136.5 29.1ZM137.5 27.6L136.1 26.0L136.1 26.1Q135.8 26.3 135.6 26.5Q135.5 26.7 135.5 27.0L135.5 27.0Q135.5 27.3 135.6 27.5Q135.7 27.7 136.0 27.8Q136.2 27.9 136.5 27.9L136.5 27.9Q136.9 27.9 137.3 27.8L137.3 27.8Q137.4 27.7 137.5 27.6L137.5 27.6ZM136.4 24.5L136.4 24.5L136.8 24.2Q136.9 24.1 137.1 24.0Q137.2 23.9 137.3 23.7Q137.3 23.6 137.3 23.4L137.3 23.4Q137.3 23.2 137.1 23.0Q137.0 22.8 136.6 22.8L136.6 22.8Q136.4 22.8 136.3 22.9Q136.1 23.0 136.0 23.1Q135.9 23.3 135.9 23.5L135.9 23.5Q135.9 23.7 136.1 24.0Q136.2 24.2 136.4 24.5L136.4 24.5Q136.4 24.5 136.4 24.5Z M152.0 29.1L152.0 29.1Q151.2 29.1 150.5 28.8Q149.9 28.6 149.5 28.0Q149.2 27.5 149.1 26.7L149.1 26.7L150.6 26.7Q150.6 27.1 150.8 27.4Q151.0 27.6 151.3 27.7Q151.6 27.8 152.0 27.8L152.0 27.8Q152.4 27.8 152.7 27.7Q153.0 27.6 153.2 27.4Q153.4 27.2 153.4 26.9L153.4 26.9Q153.4 26.7 153.2 26.5Q153.1 26.3 152.8 26.2Q152.5 26.1 152.1 26.0L152.1 26.0L151.3 25.8Q150.4 25.6 149.9 25.1Q149.3 24.6 149.3 23.8L149.3 23.8Q149.3 23.2 149.7 22.7Q150.0 22.2 150.7 21.9Q151.3 21.6 152.1 21.6L152.1 21.6Q152.9 21.6 153.5 21.9Q154.1 22.2 154.4 22.7Q154.7 23.2 154.8 23.8L154.8 23.8L153.3 23.8Q153.3 23.4 152.9 23.1Q152.6 22.9 152.0 22.9L152.0 22.9Q151.7 22.9 151.4 23.0Q151.1 23.1 151.0 23.3Q150.9 23.5 150.9 23.7L150.9 23.7Q150.9 24.0 151.0 24.2Q151.2 24.3 151.4 24.5Q151.7 24.6 152.0 24.6L152.0 24.6L152.7 24.8Q153.1 24.9 153.5 25.1Q153.9 25.3 154.2 25.5Q154.5 25.8 154.7 26.1Q154.9 26.5 154.9 26.9L154.9 26.9Q154.9 27.6 154.5 28.1Q154.2 28.6 153.6 28.8Q152.9 29.1 152.0 29.1ZM160.4 29L158.9 29L158.9 21.7L160.4 21.7L160.4 23.7L160.4 25.4Q160.4 25.3 160.5 25.3L160.5 25.3Q160.7 24.9 160.9 24.6Q161.2 24.2 161.5 23.8L161.5 23.8L163.3 21.7L165.1 21.7L162.4 24.9L165.2 29L163.4 29L161.4 25.9L160.4 26.9L160.4 29ZM169.1 21.7L170.6 21.7L170.6 29L169.1 29L169.1 21.7ZM179.6 29L174.9 29L174.9 21.7L176.4 21.7L176.4 27.8L179.6 27.8L179.6 29ZM188.2 29L183.6 29L183.6 21.7L185.1 21.7L185.1 27.8L188.2 27.8L188.2 29ZM194.9 29.1L194.9 29.1Q194.0 29.1 193.4 28.8Q192.7 28.6 192.4 28.0Q192.0 27.5 192.0 26.7L192.0 26.7L193.4 26.7Q193.5 27.1 193.7 27.4Q193.9 27.6 194.2 27.7Q194.5 27.8 194.9 27.8L194.9 27.8Q195.3 27.8 195.6 27.7Q195.9 27.6 196.0 27.4Q196.2 27.2 196.2 26.9L196.2 26.9Q196.2 26.7 196.1 26.5Q195.9 26.3 195.6 26.2Q195.4 26.1 195.0 26.0L195.0 26.0L194.2 25.8Q193.2 25.6 192.7 25.1Q192.2 24.6 192.2 23.8L192.2 23.8Q192.2 23.2 192.5 22.7Q192.9 22.2 193.5 21.9Q194.1 21.6 194.9 21.6L194.9 21.6Q195.7 21.6 196.3 21.9Q196.9 22.2 197.3 22.7Q197.6 23.2 197.6 23.8L197.6 23.8L196.2 23.8Q196.1 23.4 195.8 23.1Q195.5 22.9 194.9 22.9L194.9 22.9Q194.5 22.9 194.3 23.0Q194.0 23.1 193.9 23.3Q193.7 23.5 193.7 23.7L193.7 23.7Q193.7 24.0 193.9 24.2Q194.0 24.3 194.3 24.5Q194.6 24.6 194.9 24.6L194.9 24.6L195.5 24.8Q196.0 24.9 196.4 25.1Q196.8 25.3 197.1 25.5Q197.4 25.8 197.5 26.1Q197.7 26.5 197.7 26.9L197.7 26.9Q197.7 27.6 197.4 28.1Q197.0 28.6 196.4 28.8Q195.8 29.1 194.9 29.1Z "/></g><mask id="satori_om-id-2"><rect x="33" y="45" width="794" height="103" fill="#fff" mask="url(#satori_om-id)"/></mask><mask id="satori_om-id-2-0"><rect x="33" y="45" width="794" height="25" fill="#fff" mask="url(#satori_om-id)"/></mask><mask id="satori_om-id-2-0-0"><rect x="33" y="52" width="100" height="12" fill="#fff" mask="url(#satori_om-id)"/></mask><g mask="url(#satori_om-id)" clip-path="url(#satori_cp-id)"><path fill="#60a5fa" d="M38.3 62L33.7 62L33.7 54.7L35.1 54.7L35.1 60.8L38.3 60.8L38.3 62ZM41.5 62L39.9 62L42.4 54.7L44.3 54.7L46.9 62L45.2 62L44.7 60.3L42.1 60.3L41.5 62ZM42.5 59.1L44.3 59.1L44.1 58.5Q43.8 57.8 43.6 57L43.6 57Q43.5 56.5 43.3 55.9L43.3 55.9Q43.2 56.5 43.1 57.0L43.1 57.0Q42.9 57.8 42.7 58.5L42.7 58.5L42.5 59.1ZM50.3 62L48.8 62L48.8 54.7L50.4 54.7L52.7 58.4Q52.9 58.7 53.1 59.0Q53.3 59.4 53.5 59.8L53.5 59.8Q53.6 60.0 53.6 60.2L53.6 60.2Q53.6 60.0 53.6 59.8L53.6 59.8Q53.6 59.3 53.6 58.9Q53.6 58.5 53.6 58.2L53.6 58.2L53.6 54.7L55.1 54.7L55.1 62L53.4 62L51.3 58.7Q51.1 58.3 50.9 57.9Q50.7 57.6 50.5 57.1L50.5 57.1Q50.4 56.9 50.2 56.6L50.2 56.6Q50.2 56.9 50.2 57.1L50.2 57.1Q50.3 57.6 50.3 58.0Q50.3 58.4 50.3 58.7L50.3 58.7L50.3 62ZM60.6 62.1L60.6 62.1Q59.6 62.1 58.8 61.6Q58.1 61.2 57.6 60.4Q57.2 59.5 57.2 58.4L57.2 58.4Q57.2 57.2 57.7 56.4Q58.1 55.5 58.9 55.1Q59.6 54.6 60.6 54.6L60.6 54.6Q61.2 54.6 61.7 54.8Q62.3 55.0 62.7 55.3Q63.1 55.6 63.4 56.1Q63.6 56.5 63.7 57.1L63.7 57.1L62.2 57.1Q62.1 56.8 62.0 56.6Q61.8 56.4 61.6 56.2Q61.4 56.1 61.2 56.0Q60.9 56.0 60.6 56.0L60.6 56.0Q60.1 56.0 59.6 56.2Q59.2 56.5 59.0 57.0Q58.7 57.6 58.7 58.4Q58.7 59.1 59.0 59.7Q59.2 60.2 59.6 60.5Q60.0 60.8 60.6 60.8L60.6 60.8Q61.2 60.8 61.5 60.6Q61.9 60.4 62.1 60.0L62.1 60.0Q62.3 59.7 62.3 59.3L62.3 59.3L60.7 59.3L60.7 58.1L63.8 58.1L63.8 59.0Q63.8 60.0 63.4 60.7Q63.0 61.4 62.2 61.7Q61.5 62.1 60.6 62.1ZM68.9 62.1L68.9 62.1Q68.0 62.1 67.3 61.8Q66.7 61.4 66.3 60.8Q65.9 60.2 65.9 59.4L65.9 59.4L65.9 54.7L67.4 54.7L67.4 59.3Q67.4 59.7 67.6 60.1Q67.8 60.4 68.1 60.6Q68.5 60.8 68.9 60.8L68.9 60.8Q69.4 60.8 69.7 60.6Q70.0 60.4 70.2 60.1Q70.4 59.7 70.4 59.3L70.4 59.3L70.4 54.7L71.9 54.7L71.9 59.4Q71.9 60.2 71.5 60.8Q71.2 61.4 70.5 61.8Q69.8 62.1 68.9 62.1ZM75.5 62L73.8 62L76.3 54.7L78.2 54.7L80.8 62L79.1 62L78.6 60.3L76.0 60.3L75.5 62ZM76.4 59.1L78.2 59.1L78.0 58.5Q77.8 57.8 77.5 57L77.5 57Q77.4 56.5 77.3 55.9L77.3 55.9Q77.1 56.5 77.0 57.0L77.0 57.0Q76.8 57.8 76.6 58.5L76.6 58.5L76.4 59.1ZM85.9 62.1L85.9 62.1Q84.9 62.1 84.1 61.6Q83.4 61.2 82.9 60.4Q82.5 59.5 82.5 58.4L82.5 58.4Q82.5 57.2 82.9 56.4Q83.4 55.5 84.2 55.1Q84.9 54.6 85.9 54.6L85.9 54.6Q86.5 54.6 87.0 54.8Q87.6 55.0 88.0 55.3Q88.4 55.6 88.6 56.1Q88.9 56.5 89.0 57.1L89.0 57.1L87.5 57.1Q87.4 56.8 87.2 56.6Q87.1 56.4 86.9 56.2Q86.7 56.1 86.5 56.0Q86.2 56.0 85.9 56.0L85.9 56.0Q85.3 56.0 84.9 56.2Q84.5 56.5 84.2 57.0Q84.0 57.6 84.0 58.4Q84.0 59.1 84.2 59.7Q84.5 60.2 84.9 60.5Q85.3 60.8 85.9 60.8L85.9 60.8Q86.5 60.8 86.8 60.6Q87.2 60.4 87.4 60.0L87.4 60.0Q87.6 59.7 87.6 59.3L87.6 59.3L86.0 59.3L86.0 58.1L89.1 58.1L89.1 59.0Q89.1 60.0 88.6 60.7Q88.2 61.4 87.5 61.7Q86.8 62.1 85.9 62.1ZM96.1 62L91.2 62L91.2 54.7L96.1 54.7L96.1 56.0L92.7 56.0L92.7 57.7L95.8 57.7L95.8 58.9L92.7 58.9L92.7 60.8L96.1 60.8L96.1 62ZM100.9 62.1L100.9 62.1Q100.1 62.1 99.4 61.8Q98.8 61.6 98.4 61.0Q98.0 60.5 98.0 59.7L98.0 59.7L99.5 59.7Q99.5 60.1 99.7 60.4Q99.9 60.6 100.2 60.7Q100.5 60.8 100.9 60.8L100.9 60.8Q101.3 60.8 101.6 60.7Q101.9 60.6 102.1 60.4Q102.2 60.2 102.2 59.9L102.2 59.9Q102.2 59.7 102.1 59.5Q101.9 59.3 101.7 59.2Q101.4 59.1 101.0 59.0L101.0 59.0L100.2 58.8Q99.3 58.6 98.7 58.1Q98.2 57.6 98.2 56.8L98.2 56.8Q98.2 56.2 98.6 55.7Q98.9 55.2 99.5 54.9Q100.2 54.6 101.0 54.6L101.0 54.6Q101.8 54.6 102.4 54.9Q103.0 55.2 103.3 55.7Q103.6 56.2 103.6 56.8L103.6 56.8L102.2 56.8Q102.2 56.4 101.8 56.1Q101.5 55.9 100.9 55.9L100.9 55.9Q100.6 55.9 100.3 56.0Q100.0 56.1 99.9 56.3Q99.8 56.5 99.8 56.7L99.8 56.7Q99.8 57.0 99.9 57.2Q100.1 57.3 100.3 57.5Q100.6 57.6 100.9 57.6L100.9 57.6L101.6 57.8Q102.0 57.9 102.4 58.1Q102.8 58.3 103.1 58.5Q103.4 58.8 103.6 59.1Q103.7 59.5 103.7 59.9L103.7 59.9Q103.7 60.6 103.4 61.1Q103.1 61.6 102.5 61.8Q101.8 62.1 100.9 62.1Z "/></g><mask id="satori_om-id-2-0-1"><rect x="149" y="45" width="277" height="25" fill="#fff" mask="url(#satori_om-id)"/></mask><defs><clipPath id="satori_bc-id-2-0-1-0" clip-path="url(#satori_cp-id)"><path x="149" y="45" width="57" height="25" d="M155,45 h45 a6,6 0 0 1 6,6 v13 a6,6 0 0 1 -6,6 h-45 a6,6 0 0 1 -6,-6 v-13 a6,6 0 0 1 6,-6"/></clipPath></defs><mask id="satori_om-id-2-0-1-0"><rect x="150" y="46" width="55" height="23" fill="#fff" mask="url(#satori_om-id)"/><path width="57" height="25" fill="none" stroke="#000" stroke-width="2" d="M150.757,46.757 A6,6 0 0 1 155,45 h45 a6,6 0 0 1 6,6 v13 a6,6 0 0 1 -6,6 h-45 a6,6 0 0 1 -6,-6 v-13 A6,6 0 0 1 150.757,46.757"/></mask><path x="149" y="45" width="57" height="25" fill="#60a5fa15" d="M155,45 h45 a6,6 0 0 1 6,6 v13 a6,6 0 0 1 -6,6 h-45 a6,6 0 0 1 -6,-6 v-13 a6,6 0 0 1 6,-6" clip-path="url(#satori_cp-id)" mask="url(#satori_om-id)"/><path width="57" height="25" clip-path="url(#satori_bc-id-2-0-1-0)" fill="none" stroke="#60a5fa35" stroke-width="2" d="M150.757,46.757 A6,6 0 0 1 155,45 h45 a6,6 0 0 1 6,6 v13 a6,6 0 0 1 -6,6 h-45 a6,6 0 0 1 -6,-6 v-13 A6,6 0 0 1 150.757,46.757"/><g mask="url(#satori_om-id)" clip-path="url(#satori_cp-id)"><path fill="rgba(220,240,255,0.85)" d="M166.3 62.1L166.3 62.1Q165.0 62.1 164.2 61.4Q163.4 60.7 163.4 59.4L163.4 59.4L163.4 58.9L165.2 58.9L165.2 59.4Q165.2 60.0 165.5 60.4Q165.8 60.7 166.3 60.7L166.3 60.7Q166.8 60.7 167.1 60.4Q167.5 60.0 167.5 59.4L167.5 59.4L167.5 53.3L169.2 53.3L169.2 59.4Q169.2 60.7 168.4 61.4Q167.7 62.1 166.3 62.1ZM172.6 62.1L172.6 62.1Q172.0 62.1 171.5 61.9Q171.0 61.7 170.7 61.3Q170.4 60.8 170.4 60.2L170.4 60.2Q170.4 59.6 170.6 59.3Q170.8 58.9 171.2 58.7Q171.5 58.4 172.0 58.3Q172.4 58.2 172.9 58.2L172.9 58.2Q173.5 58.1 173.8 58.0Q174.2 58.0 174.3 57.9Q174.5 57.8 174.5 57.6L174.5 57.6L174.5 57.5Q174.5 57.3 174.4 57.1Q174.2 56.9 174.0 56.8Q173.8 56.7 173.4 56.7L173.4 56.7Q173.1 56.7 172.9 56.8Q172.6 56.9 172.4 57.0Q172.3 57.2 172.2 57.4L172.2 57.4L170.6 57.2Q170.8 56.6 171.2 56.2Q171.6 55.8 172.1 55.6Q172.7 55.4 173.5 55.4L173.5 55.4Q174.0 55.4 174.5 55.5Q175.0 55.6 175.4 55.9Q175.8 56.1 176.0 56.6Q176.2 57.0 176.2 57.6L176.2 57.6L176.2 62L174.6 62L174.6 61.1L174.5 61.1Q174.3 61.4 174.1 61.6Q173.8 61.9 173.5 62.0Q173.1 62.1 172.6 62.1ZM173.1 60.9L173.1 60.9Q173.5 60.9 173.8 60.7Q174.1 60.6 174.3 60.3Q174.5 60.0 174.5 59.7L174.5 59.7L174.5 58.9Q174.4 59.0 174.3 59.1Q174.1 59.1 173.9 59.1Q173.7 59.2 173.5 59.2Q173.3 59.2 173.2 59.2L173.2 59.2Q172.9 59.3 172.6 59.4Q172.4 59.5 172.2 59.7Q172.1 59.8 172.1 60.1L172.1 60.1Q172.1 60.4 172.2 60.5Q172.4 60.7 172.6 60.8Q172.8 60.9 173.1 60.9ZM181.6 62L179.6 62L177.2 55.4L179.0 55.4L180.1 58.8Q180.3 59.5 180.5 60.1L180.5 60.1Q180.5 60.4 180.6 60.6L180.6 60.6Q180.7 60.4 180.7 60.1L180.7 60.1Q180.9 59.5 181.1 58.8L181.1 58.8L182.1 55.4L184.0 55.4L181.6 62ZM186.8 62.1L186.8 62.1Q186.1 62.1 185.6 61.9Q185.1 61.7 184.9 61.3Q184.6 60.8 184.6 60.2L184.6 60.2Q184.6 59.6 184.8 59.3Q185.0 58.9 185.3 58.7Q185.7 58.4 186.1 58.3Q186.6 58.2 187.0 58.2L187.0 58.2Q187.6 58.1 188.0 58.0Q188.3 58.0 188.5 57.9Q188.6 57.8 188.6 57.6L188.6 57.6L188.6 57.5Q188.6 57.3 188.5 57.1Q188.4 56.9 188.2 56.8Q187.9 56.7 187.6 56.7L187.6 56.7Q187.3 56.7 187.0 56.8Q186.8 56.9 186.6 57.0Q186.4 57.2 186.4 57.4L186.4 57.4L184.8 57.2Q184.9 56.6 185.3 56.2Q185.7 55.8 186.3 55.6Q186.9 55.4 187.6 55.4L187.6 55.4Q188.1 55.4 188.6 55.5Q189.1 55.6 189.5 55.9Q189.9 56.1 190.2 56.6Q190.4 57.0 190.4 57.6L190.4 57.6L190.4 62L188.7 62L188.7 61.1L188.7 61.1Q188.5 61.4 188.2 61.6Q188.0 61.9 187.6 62.0Q187.2 62.1 186.8 62.1ZM187.3 60.9L187.3 60.9Q187.7 60.9 188.0 60.7Q188.3 60.6 188.5 60.3Q188.6 60.0 188.6 59.7L188.6 59.7L188.6 58.9Q188.6 59.0 188.4 59.1Q188.3 59.1 188.1 59.1Q187.9 59.2 187.7 59.2Q187.5 59.2 187.3 59.2L187.3 59.2Q187.0 59.3 186.8 59.4Q186.5 59.5 186.4 59.7Q186.3 59.8 186.3 60.1L186.3 60.1Q186.3 60.4 186.4 60.5Q186.5 60.7 186.7 60.8Q187.0 60.9 187.3 60.9Z "/></g><defs><clipPath id="satori_bc-id-2-0-1-1" clip-path="url(#satori_cp-id)"><path x="213" y="45" width="37" height="25" d="M219,45 h25 a6,6 0 0 1 6,6 v13 a6,6 0 0 1 -6,6 h-25 a6,6 0 0 1 -6,-6 v-13 a6,6 0 0 1 6,-6"/></clipPath></defs><mask id="satori_om-id-2-0-1-1"><rect x="214" y="46" width="35" height="23" fill="#fff" mask="url(#satori_om-id)"/><path width="37" height="25" fill="none" stroke="#000" stroke-width="2" d="M214.757,46.757 A6,6 0 0 1 219,45 h25 a6,6 0 0 1 6,6 v13 a6,6 0 0 1 -6,6 h-25 a6,6 0 0 1 -6,-6 v-13 A6,6 0 0 1 214.757,46.757"/></mask><path x="213" y="45" width="37" height="25" fill="#60a5fa15" d="M219,45 h25 a6,6 0 0 1 6,6 v13 a6,6 0 0 1 -6,6 h-25 a6,6 0 0 1 -6,-6 v-13 a6,6 0 0 1 6,-6" clip-path="url(#satori_cp-id)" mask="url(#satori_om-id)"/><path width="37" height="25" clip-path="url(#satori_bc-id-2-0-1-1)" fill="none" stroke="#60a5fa35" stroke-width="2" d="M214.757,46.757 A6,6 0 0 1 219,45 h25 a6,6 0 0 1 6,6 v13 a6,6 0 0 1 -6,6 h-25 a6,6 0 0 1 -6,-6 v-13 A6,6 0 0 1 214.757,46.757"/><g mask="url(#satori_om-id)" clip-path="url(#satori_cp-id)"><path fill="rgba(220,240,255,0.85)" d="M231.6 62.1L231.6 62.1Q230.4 62.1 229.5 61.6Q228.6 61.1 228.1 60.1Q227.6 59.1 227.6 57.6L227.6 57.6Q227.6 56.2 228.1 55.2Q228.6 54.2 229.5 53.7Q230.5 53.2 231.6 53.2L231.6 53.2Q232.3 53.2 233.0 53.4Q233.6 53.6 234.1 54.0Q234.6 54.4 234.9 54.9Q235.3 55.5 235.4 56.3L235.4 56.3L233.6 56.3Q233.5 55.9 233.3 55.6Q233.2 55.3 232.9 55.1Q232.7 54.9 232.3 54.8Q232.0 54.7 231.6 54.7L231.6 54.7Q231.0 54.7 230.4 55.1Q229.9 55.4 229.7 56.1Q229.4 56.7 229.4 57.6L229.4 57.6Q229.4 58.6 229.7 59.2Q229.9 59.9 230.5 60.2Q231.0 60.5 231.6 60.5L231.6 60.5Q232.0 60.5 232.3 60.4Q232.6 60.3 232.9 60.1Q233.2 59.9 233.3 59.7Q233.5 59.4 233.6 59.0L233.6 59.0L235.4 59.0Q235.3 59.6 235.0 60.2Q234.7 60.7 234.2 61.2Q233.8 61.6 233.1 61.9Q232.4 62.1 231.6 62.1Z "/></g><defs><clipPath id="satori_bc-id-2-0-1-2" clip-path="url(#satori_cp-id)"><path x="257" y="45" width="70" height="25" d="M263,45 h58 a6,6 0 0 1 6,6 v13 a6,6 0 0 1 -6,6 h-58 a6,6 0 0 1 -6,-6 v-13 a6,6 0 0 1 6,-6"/></clipPath></defs><mask id="satori_om-id-2-0-1-2"><rect x="258" y="46" width="68" height="23" fill="#fff" mask="url(#satori_om-id)"/><path width="70" height="25" fill="none" stroke="#000" stroke-width="2" d="M258.757,46.757 A6,6 0 0 1 263,45 h58 a6,6 0 0 1 6,6 v13 a6,6 0 0 1 -6,6 h-58 a6,6 0 0 1 -6,-6 v-13 A6,6 0 0 1 258.757,46.757"/></mask><path x="257" y="45" width="70" height="25" fill="#60a5fa15" d="M263,45 h58 a6,6 0 0 1 6,6 v13 a6,6 0 0 1 -6,6 h-58 a6,6 0 0 1 -6,-6 v-13 a6,6 0 0 1 6,-6" clip-path="url(#satori_cp-id)" mask="url(#satori_om-id)"/><path width="70" height="25" clip-path="url(#satori_bc-id-2-0-1-2)" fill="none" stroke="#60a5fa35" stroke-width="2" d="M258.757,46.757 A6,6 0 0 1 263,45 h58 a6,6 0 0 1 6,6 v13 a6,6 0 0 1 -6,6 h-58 a6,6 0 0 1 -6,-6 v-13 A6,6 0 0 1 258.757,46.757"/><g mask="url(#satori_om-id)" clip-path="url(#satori_cp-id)"><path fill="rgba(220,240,255,0.85)" d="M273.6 62L271.8 62L271.8 53.3L275.2 53.3Q276.2 53.3 276.9 53.6Q277.6 54.0 278.0 54.7Q278.3 55.4 278.3 56.2L278.3 56.2Q278.3 57.1 277.9 57.7Q277.6 58.4 276.9 58.8Q276.2 59.1 275.2 59.1L275.2 59.1L273.6 59.1L273.6 62ZM273.6 54.7L273.6 57.7L274.9 57.7Q275.4 57.7 275.8 57.5Q276.1 57.3 276.3 57.0Q276.5 56.7 276.5 56.2Q276.5 55.8 276.3 55.4Q276.1 55.1 275.8 54.9Q275.4 54.7 274.9 54.7L274.9 54.7L273.6 54.7ZM279.5 64.3L279.5 64.3L279.9 63.0L280.1 63.0Q280.5 63.1 280.7 63.1Q281.0 63.1 281.2 62.9Q281.3 62.7 281.4 62.4L281.4 62.4L281.4 62.0L279.0 55.4L280.8 55.4L281.9 58.8Q282.1 59.5 282.3 60.1L282.3 60.1Q282.3 60.4 282.3 60.6L282.3 60.6Q282.4 60.4 282.4 60.1L282.4 60.1Q282.6 59.5 282.8 58.8L282.8 58.8L284.0 55.4L285.8 55.4L283.0 62.8Q282.8 63.3 282.5 63.7Q282.2 64.1 281.7 64.3Q281.3 64.5 280.6 64.5L280.6 64.5Q280.3 64.5 280.0 64.4Q279.7 64.4 279.5 64.3ZM288.8 55.4L290.0 55.4L290.0 56.8L288.8 56.8L288.8 60.1Q288.8 60.4 288.9 60.5Q289.1 60.7 289.4 60.7L289.4 60.7Q289.5 60.7 289.7 60.7Q289.8 60.6 289.9 60.6L289.9 60.6L290.2 61.9Q289.9 62.0 289.6 62.1Q289.3 62.1 289.0 62.1L289.0 62.1Q288.1 62.1 287.5 61.6Q287.0 61.1 287.0 60.2L287.0 60.2L287.0 56.8L286.1 56.8L286.1 55.4L287.0 55.4L287.0 53.9L288.8 53.9L288.8 55.4ZM292.9 58.2L292.9 58.2L292.9 62L291.1 62L291.1 53.3L292.9 53.3L292.9 56.7Q293.1 56.2 293.5 55.8L293.5 55.8Q294.0 55.4 294.9 55.4L294.9 55.4Q295.5 55.4 296.1 55.7Q296.6 56.0 296.8 56.5Q297.1 57.1 297.1 57.8L297.1 57.8L297.1 62L295.4 62L295.4 58.1Q295.4 57.5 295.0 57.2Q294.7 56.8 294.2 56.8L294.2 56.8Q293.8 56.8 293.5 57.0Q293.2 57.2 293.1 57.5Q292.9 57.8 292.9 58.2ZM301.5 62.1L301.5 62.1Q300.6 62.1 299.8 61.7Q299.1 61.3 298.7 60.5Q298.3 59.8 298.3 58.8L298.3 58.8Q298.3 57.7 298.7 57.0Q299.1 56.2 299.8 55.8Q300.6 55.4 301.5 55.4L301.5 55.4Q302.5 55.4 303.3 55.8Q304.0 56.2 304.4 57.0Q304.8 57.7 304.8 58.8L304.8 58.8Q304.8 59.8 304.4 60.5Q304.0 61.3 303.3 61.7Q302.5 62.1 301.5 62.1ZM301.5 60.7L301.5 60.7Q302.0 60.7 302.3 60.5Q302.6 60.2 302.8 59.8Q303.0 59.3 303.0 58.7L303.0 58.7Q303.0 58.2 302.8 57.7Q302.6 57.3 302.3 57.0Q302.0 56.8 301.5 56.8L301.5 56.8Q301.1 56.8 300.8 57.0Q300.4 57.3 300.3 57.7Q300.1 58.2 300.1 58.7L300.1 58.7Q300.1 59.3 300.3 59.8Q300.4 60.2 300.8 60.5Q301.1 60.7 301.5 60.7ZM307.7 58.2L307.7 58.2L307.7 62L306.0 62L306.0 55.4L307.6 55.4L307.7 56.8Q307.9 56.2 308.3 55.8L308.3 55.8Q308.9 55.4 309.7 55.4L309.7 55.4Q310.4 55.4 310.9 55.7Q311.4 56.0 311.7 56.5Q311.9 57.1 311.9 57.8L311.9 57.8L311.9 62L310.2 62L310.2 58.1Q310.2 57.5 309.9 57.2Q309.6 56.8 309.0 56.8L309.0 56.8Q308.6 56.8 308.3 57.0Q308.1 57.2 307.9 57.5Q307.7 57.8 307.7 58.2Z "/></g><defs><clipPath id="satori_bc-id-2-0-1-3" clip-path="url(#satori_cp-id)"><path x="334" y="45" width="92" height="25" d="M340,45 h80 a6,6 0 0 1 6,6 v13 a6,6 0 0 1 -6,6 h-80 a6,6 0 0 1 -6,-6 v-13 a6,6 0 0 1 6,-6"/></clipPath></defs><mask id="satori_om-id-2-0-1-3"><rect x="335" y="46" width="90" height="23" fill="#fff" mask="url(#satori_om-id)"/><path width="92" height="25" fill="none" stroke="#000" stroke-width="2" d="M335.757,46.757 A6,6 0 0 1 340,45 h80 a6,6 0 0 1 6,6 v13 a6,6 0 0 1 -6,6 h-80 a6,6 0 0 1 -6,-6 v-13 A6,6 0 0 1 335.757,46.757"/></mask><path x="334" y="45" width="92" height="25" fill="#60a5fa15" d="M340,45 h80 a6,6 0 0 1 6,6 v13 a6,6 0 0 1 -6,6 h-80 a6,6 0 0 1 -6,-6 v-13 a6,6 0 0 1 6,-6" clip-path="url(#satori_cp-id)" mask="url(#satori_om-id)"/><path width="92" height="25" clip-path="url(#satori_bc-id-2-0-1-3)" fill="none" stroke="#60a5fa35" stroke-width="2" d="M335.757,46.757 A6,6 0 0 1 340,45 h80 a6,6 0 0 1 6,6 v13 a6,6 0 0 1 -6,6 h-80 a6,6 0 0 1 -6,-6 v-13 A6,6 0 0 1 335.757,46.757"/><g mask="url(#satori_om-id)" clip-path="url(#satori_cp-id)"><path fill="rgba(220,240,255,0.85)" d="M351.3 62.1L351.3 62.1Q350.0 62.1 349.2 61.4Q348.4 60.7 348.4 59.4L348.4 59.4L348.4 58.9L350.2 58.9L350.2 59.4Q350.2 60.0 350.5 60.4Q350.8 60.7 351.3 60.7L351.3 60.7Q351.8 60.7 352.1 60.4Q352.5 60.0 352.5 59.4L352.5 59.4L352.5 53.3L354.2 53.3L354.2 59.4Q354.2 60.7 353.4 61.4Q352.7 62.1 351.3 62.1ZM357.6 62.1L357.6 62.1Q357.0 62.1 356.5 61.9Q356.0 61.7 355.7 61.3Q355.4 60.8 355.4 60.2L355.4 60.2Q355.4 59.6 355.6 59.3Q355.8 58.9 356.2 58.7Q356.5 58.4 357.0 58.3Q357.4 58.2 357.9 58.2L357.9 58.2Q358.5 58.1 358.8 58.0Q359.2 58.0 359.3 57.9Q359.5 57.8 359.5 57.6L359.5 57.6L359.5 57.5Q359.5 57.3 359.4 57.1Q359.2 56.9 359.0 56.8Q358.8 56.7 358.4 56.7L358.4 56.7Q358.1 56.7 357.9 56.8Q357.6 56.9 357.4 57.0Q357.3 57.2 357.2 57.4L357.2 57.4L355.6 57.2Q355.8 56.6 356.2 56.2Q356.6 55.8 357.1 55.6Q357.7 55.4 358.5 55.4L358.5 55.4Q359.0 55.4 359.5 55.5Q360.0 55.6 360.4 55.9Q360.8 56.1 361.0 56.6Q361.2 57.0 361.2 57.6L361.2 57.6L361.2 62L359.6 62L359.6 61.1L359.5 61.1Q359.3 61.4 359.1 61.6Q358.8 61.9 358.5 62.0Q358.1 62.1 357.6 62.1ZM358.1 60.9L358.1 60.9Q358.5 60.9 358.8 60.7Q359.1 60.6 359.3 60.3Q359.5 60.0 359.5 59.7L359.5 59.7L359.5 58.9Q359.4 59.0 359.3 59.1Q359.1 59.1 358.9 59.1Q358.7 59.2 358.5 59.2Q358.3 59.2 358.2 59.2L358.2 59.2Q357.9 59.3 357.6 59.4Q357.4 59.5 357.2 59.7Q357.1 59.8 357.1 60.1L357.1 60.1Q357.1 60.4 357.2 60.5Q357.4 60.7 357.6 60.8Q357.8 60.9 358.1 60.9ZM366.6 62L364.6 62L362.2 55.4L364.0 55.4L365.1 58.8Q365.3 59.5 365.5 60.1L365.5 60.1Q365.5 60.4 365.6 60.6L365.6 60.6Q365.7 60.4 365.7 60.1L365.7 60.1Q365.9 59.5 366.1 58.8L366.1 58.8L367.1 55.4L369.0 55.4L366.6 62ZM371.8 62.1L371.8 62.1Q371.1 62.1 370.6 61.9Q370.1 61.7 369.9 61.3Q369.6 60.8 369.6 60.2L369.6 60.2Q369.6 59.6 369.8 59.3Q370.0 58.9 370.3 58.7Q370.7 58.4 371.1 58.3Q371.6 58.2 372.0 58.2L372.0 58.2Q372.6 58.1 373.0 58.0Q373.3 58.0 373.5 57.9Q373.6 57.8 373.6 57.6L373.6 57.6L373.6 57.5Q373.6 57.3 373.5 57.1Q373.4 56.9 373.2 56.8Q372.9 56.7 372.6 56.7L372.6 56.7Q372.3 56.7 372.0 56.8Q371.8 56.9 371.6 57.0Q371.4 57.2 371.4 57.4L371.4 57.4L369.8 57.2Q369.9 56.6 370.3 56.2Q370.7 55.8 371.3 55.6Q371.9 55.4 372.6 55.4L372.6 55.4Q373.1 55.4 373.6 55.5Q374.1 55.6 374.5 55.9Q374.9 56.1 375.2 56.6Q375.4 57.0 375.4 57.6L375.4 57.6L375.4 62L373.7 62L373.7 61.1L373.7 61.1Q373.5 61.4 373.2 61.6Q373.0 61.9 372.6 62.0Q372.2 62.1 371.8 62.1ZM372.3 60.9L372.3 60.9Q372.7 60.9 373.0 60.7Q373.3 60.6 373.5 60.3Q373.6 60.0 373.6 59.7L373.6 59.7L373.6 58.9Q373.6 59.0 373.4 59.1Q373.3 59.1 373.1 59.1Q372.9 59.2 372.7 59.2Q372.5 59.2 372.3 59.2L372.3 59.2Q372.0 59.3 371.8 59.4Q371.5 59.5 371.4 59.7Q371.3 59.8 371.3 60.1L371.3 60.1Q371.3 60.4 371.4 60.5Q371.5 60.7 371.7 60.8Q372.0 60.9 372.3 60.9ZM380.1 62.1L380.1 62.1Q379.1 62.1 378.3 61.8Q377.5 61.5 377.1 60.9Q376.7 60.2 376.6 59.3L376.6 59.3L378.4 59.3Q378.4 59.7 378.6 60.0Q378.9 60.3 379.3 60.5Q379.6 60.6 380.1 60.6L380.1 60.6Q380.6 60.6 381.0 60.5Q381.3 60.3 381.5 60.1Q381.7 59.8 381.7 59.5L381.7 59.5Q381.7 59.2 381.5 59.0Q381.3 58.8 381.0 58.7Q380.7 58.5 380.2 58.4L380.2 58.4L379.2 58.2Q378.1 57.9 377.5 57.3Q376.9 56.7 376.9 55.8L376.9 55.8Q376.9 55.0 377.3 54.4Q377.7 53.8 378.5 53.5Q379.2 53.2 380.2 53.2L380.2 53.2Q381.1 53.2 381.8 53.5Q382.6 53.8 383.0 54.4Q383.4 55.0 383.4 55.8L383.4 55.8L381.7 55.8Q381.6 55.2 381.2 54.9Q380.8 54.7 380.1 54.7L380.1 54.7Q379.7 54.7 379.4 54.8Q379.0 54.9 378.9 55.1Q378.7 55.4 378.7 55.7L378.7 55.7Q378.7 56.0 378.9 56.2Q379.1 56.4 379.4 56.5Q379.7 56.7 380.1 56.8L380.1 56.8L380.9 57.0Q381.4 57.1 381.9 57.3Q382.4 57.5 382.8 57.8Q383.1 58.1 383.3 58.5Q383.5 59.0 383.5 59.5L383.5 59.5Q383.5 60.3 383.1 60.9Q382.7 61.5 381.9 61.8Q381.2 62.1 380.1 62.1ZM387.7 62.1L387.7 62.1Q386.7 62.1 386.0 61.7Q385.3 61.3 384.9 60.5Q384.5 59.8 384.5 58.8L384.5 58.8Q384.5 57.7 384.9 57.0Q385.3 56.2 386.0 55.8Q386.7 55.4 387.7 55.4L387.7 55.4Q388.3 55.4 388.8 55.5Q389.2 55.7 389.6 56.0Q390.0 56.2 390.3 56.6Q390.5 57.0 390.6 57.5L390.6 57.5L389.0 57.9Q388.9 57.6 388.8 57.4Q388.7 57.2 388.5 57.0Q388.4 56.9 388.2 56.8Q387.9 56.8 387.7 56.8L387.7 56.8Q387.2 56.8 386.9 57.0Q386.6 57.3 386.4 57.7Q386.3 58.2 386.3 58.7L386.3 58.7Q386.3 59.3 386.4 59.8Q386.6 60.2 386.9 60.5Q387.2 60.7 387.7 60.7L387.7 60.7Q387.9 60.7 388.2 60.7Q388.4 60.6 388.5 60.4Q388.7 60.3 388.8 60.1Q388.9 59.9 389.0 59.6L389.0 59.6L390.6 59.9Q390.5 60.4 390.3 60.8Q390.0 61.2 389.6 61.5Q389.3 61.8 388.8 62.0Q388.3 62.1 387.7 62.1ZM393.6 62L391.8 62L391.8 55.4L393.5 55.4L393.5 56.6L393.6 56.6Q393.8 56.0 394.2 55.7Q394.6 55.4 395.2 55.4L395.2 55.4Q395.3 55.4 395.5 55.4Q395.6 55.4 395.7 55.4L395.7 55.4L395.7 57.0Q395.6 56.9 395.4 56.9Q395.2 56.9 395.0 56.9L395.0 56.9Q394.6 56.9 394.2 57.1Q393.9 57.2 393.7 57.6Q393.6 57.9 393.6 58.3L393.6 58.3L393.6 62ZM398.5 62L396.7 62L396.7 55.4L398.5 55.4L398.5 62ZM397.6 54.6L397.6 54.6Q397.2 54.6 396.9 54.3Q396.6 54.1 396.6 53.7L396.6 53.7Q396.6 53.3 396.9 53.1Q397.2 52.8 397.6 52.8L397.6 52.8Q398.0 52.8 398.3 53.0Q398.5 53.3 398.5 53.7L398.5 53.7Q398.5 54.1 398.3 54.3Q398.0 54.6 397.6 54.6ZM401.7 64.4L399.9 64.4L399.9 55.4L401.7 55.4L401.7 56.6L401.8 56.6Q401.9 56.3 402.1 56.0Q402.3 55.7 402.7 55.6Q403.1 55.4 403.6 55.4L403.6 55.4Q404.4 55.4 405.0 55.7Q405.6 56.1 405.9 56.9Q406.3 57.6 406.3 58.7L406.3 58.7Q406.3 59.8 405.9 60.6Q405.6 61.3 405.0 61.7Q404.4 62.1 403.6 62.1L403.6 62.1Q403.1 62.1 402.7 61.9Q402.3 61.7 402.1 61.5Q401.9 61.2 401.8 61.0L401.8 61.0L401.7 61.0L401.7 64.4ZM403.1 60.7L403.1 60.7Q403.5 60.7 403.8 60.4Q404.2 60.2 404.3 59.8Q404.5 59.3 404.5 58.7L404.5 58.7Q404.5 58.2 404.3 57.7Q404.2 57.3 403.9 57.0Q403.5 56.8 403.1 56.8L403.1 56.8Q402.6 56.8 402.3 57.0Q402.0 57.3 401.8 57.7Q401.7 58.1 401.7 58.7L401.7 58.7Q401.7 59.3 401.8 59.8Q402 60.2 402.3 60.5Q402.6 60.7 403.1 60.7ZM409.5 55.4L410.8 55.4L410.8 56.8L409.5 56.8L409.5 60.1Q409.5 60.4 409.7 60.5Q409.8 60.7 410.1 60.7L410.1 60.7Q410.2 60.7 410.4 60.7Q410.6 60.6 410.7 60.6L410.7 60.6L410.9 61.9Q410.7 62.0 410.4 62.1Q410.1 62.1 409.8 62.1L409.8 62.1Q408.8 62.1 408.3 61.6Q407.8 61.1 407.8 60.2L407.8 60.2L407.8 56.8L406.9 56.8L406.9 55.4L407.8 55.4L407.8 53.9L409.5 53.9L409.5 55.4Z "/></g><mask id="satori_om-id-2-1"><rect x="33" y="84" width="794" height="25" fill="#fff" mask="url(#satori_om-id)"/></mask><mask id="satori_om-id-2-1-0"><rect x="33" y="91" width="100" height="12" fill="#fff" mask="url(#satori_om-id)"/></mask><g mask="url(#satori_om-id)" clip-path="url(#satori_cp-id)"><path fill="#a78bfa" d="M36.9 101L35.2 101L33.2 93.7L34.9 93.7L35.7 97.3Q35.8 97.8 35.9 98.3Q36.0 98.8 36.1 99.3L36.1 99.3Q36.1 99.4 36.1 99.5L36.1 99.5Q36.1 99.4 36.1 99.3L36.1 99.3Q36.2 98.8 36.3 98.3Q36.4 97.8 36.5 97.3L36.5 97.3L37.4 93.7L39.0 93.7L39.8 97.3Q40.0 97.8 40.1 98.3Q40.1 98.8 40.2 99.3L40.2 99.3Q40.3 99.4 40.3 99.5L40.3 99.5Q40.3 99.4 40.3 99.3L40.3 99.3Q40.4 98.8 40.5 98.3Q40.6 97.8 40.7 97.3L40.7 97.3L41.5 93.7L43.1 93.7L41.2 101L39.5 101L38.5 97.3Q38.4 96.7 38.2 95.9L38.2 95.9Q38.2 95.7 38.2 95.5L38.2 95.5Q38.2 95.7 38.1 95.9L38.1 95.9Q38.0 96.6 37.9 97.3L37.9 97.3L36.9 101ZM49.9 101L45.0 101L45.0 93.7L49.9 93.7L49.9 95.0L46.5 95.0L46.5 96.7L49.6 96.7L49.6 97.9L46.5 97.9L46.5 99.8L49.9 99.8L49.9 101ZM55.2 101L52.1 101L52.1 93.7L55.0 93.7Q55.8 93.7 56.3 94.0Q56.9 94.2 57.1 94.6Q57.4 95.0 57.4 95.6L57.4 95.6Q57.4 96.0 57.2 96.3Q57.1 96.7 56.8 96.9Q56.5 97.1 56.1 97.2L56.1 97.2L56.1 97.2Q56.5 97.2 56.9 97.5Q57.2 97.7 57.5 98.1Q57.7 98.5 57.7 99.0L57.7 99.0Q57.7 99.6 57.4 100.0Q57.1 100.5 56.6 100.7Q56.0 101 55.2 101L55.2 101ZM53.6 97.8L53.6 99.8L54.9 99.8Q55.5 99.8 55.8 99.5Q56.1 99.3 56.1 98.9L56.1 98.9Q56.1 98.5 56.0 98.3Q55.8 98.1 55.6 97.9Q55.3 97.8 54.9 97.8L54.9 97.8L53.6 97.8ZM53.6 94.9L53.6 96.8L54.8 96.8Q55.1 96.8 55.3 96.7Q55.6 96.6 55.7 96.3Q55.9 96.1 55.9 95.8L55.9 95.8Q55.9 95.4 55.6 95.2Q55.3 94.9 54.8 94.9L54.8 94.9L53.6 94.9Z M65.3 101.1L65.3 101.1Q64.5 101.1 64.0 100.8Q63.4 100.6 63.1 100.1Q62.8 99.6 62.8 99.1L62.8 99.1Q62.8 98.6 63.0 98.3Q63.2 98.0 63.5 97.7L63.5 97.7Q63.8 97.4 64.2 97.2L64.2 97.2Q64.1 97.1 64.1 97.1L64.1 97.1Q63.8 96.7 63.7 96.3Q63.5 95.9 63.5 95.5L63.5 95.5Q63.5 95.0 63.7 94.5Q64.0 94.1 64.4 93.9Q64.8 93.6 65.4 93.6L65.4 93.6Q66.0 93.6 66.4 93.9Q66.9 94.1 67.1 94.5Q67.3 94.9 67.3 95.4L67.3 95.4Q67.3 95.7 67.2 96.0Q67.1 96.3 66.9 96.5Q66.6 96.8 66.4 97.0L66.4 97.0L65.9 97.3L67.1 98.7Q67.2 98.6 67.3 98.5L67.3 98.5Q67.4 98.0 67.4 97.5L67.4 97.5L68.7 97.5Q68.7 98.1 68.5 98.7Q68.4 99.2 68.1 99.6L68.1 99.6Q68.1 99.7 68.0 99.7L68.0 99.7L69.1 101L67.6 101L67.1 100.5Q66.7 100.8 66.3 101.0L66.3 101.0Q65.8 101.1 65.3 101.1ZM66.3 99.6L64.9 98.0L64.9 98.1Q64.6 98.3 64.4 98.5Q64.3 98.7 64.3 99.0L64.3 99.0Q64.3 99.3 64.4 99.5Q64.5 99.7 64.8 99.8Q65.0 99.9 65.3 99.9L65.3 99.9Q65.7 99.9 66.1 99.8L66.1 99.8Q66.2 99.7 66.3 99.6L66.3 99.6ZM65.2 96.5L65.2 96.5L65.6 96.2Q65.7 96.1 65.9 96.0Q66.0 95.9 66.1 95.7Q66.1 95.6 66.1 95.4L66.1 95.4Q66.1 95.2 66.0 95.0Q65.8 94.8 65.4 94.8L65.4 94.8Q65.2 94.8 65.1 94.9Q64.9 95.0 64.8 95.1Q64.7 95.3 64.7 95.5L64.7 95.5Q64.7 95.7 64.9 96.0Q65.0 96.2 65.2 96.5L65.2 96.5Q65.2 96.5 65.2 96.5Z M76.7 101L76.7 101L74.2 101L74.2 93.7L76.8 93.7Q77.9 93.7 78.6 94.2Q79.4 94.6 79.9 95.4Q80.3 96.2 80.3 97.4L80.3 97.4Q80.3 98.5 79.9 99.3Q79.4 100.1 78.6 100.6Q77.8 101 76.7 101ZM75.7 95.0L75.7 99.7L76.7 99.7Q77.4 99.7 77.8 99.5Q78.3 99.2 78.6 98.7Q78.8 98.2 78.8 97.4L78.8 97.4Q78.8 96.5 78.6 96.0Q78.3 95.5 77.8 95.3Q77.4 95.0 76.7 95.0L76.7 95.0L75.7 95.0ZM85.5 101L82.4 101L82.4 93.7L85.3 93.7Q86.1 93.7 86.6 94.0Q87.2 94.2 87.4 94.6Q87.7 95.0 87.7 95.6L87.7 95.6Q87.7 96.0 87.5 96.3Q87.3 96.7 87.1 96.9Q86.8 97.1 86.4 97.2L86.4 97.2L86.4 97.2Q86.8 97.2 87.2 97.5Q87.5 97.7 87.7 98.1Q88.0 98.5 88.0 99.0L88.0 99.0Q88.0 99.6 87.7 100.0Q87.4 100.5 86.9 100.7Q86.3 101 85.5 101L85.5 101ZM83.9 97.8L83.9 99.8L85.2 99.8Q85.8 99.8 86.1 99.5Q86.4 99.3 86.4 98.9L86.4 98.9Q86.4 98.5 86.3 98.3Q86.1 98.1 85.9 97.9Q85.6 97.8 85.2 97.8L85.2 97.8L83.9 97.8ZM83.9 94.9L83.9 96.8L85.1 96.8Q85.4 96.8 85.6 96.7Q85.9 96.6 86.0 96.3Q86.2 96.1 86.2 95.8L86.2 95.8Q86.2 95.4 85.9 95.2Q85.6 94.9 85.1 94.9L85.1 94.9L83.9 94.9Z "/></g><mask id="satori_om-id-2-1-1"><rect x="149" y="84" width="287" height="25" fill="#fff" mask="url(#satori_om-id)"/></mask><defs><clipPath id="satori_bc-id-2-1-1-0" clip-path="url(#satori_cp-id)"><path x="149" y="84" width="63" height="25" d="M155,84 h51 a6,6 0 0 1 6,6 v13 a6,6 0 0 1 -6,6 h-51 a6,6 0 0 1 -6,-6 v-13 a6,6 0 0 1 6,-6"/></clipPath></defs><mask id="satori_om-id-2-1-1-0"><rect x="150" y="85" width="61" height="23" fill="#fff" mask="url(#satori_om-id)"/><path width="63" height="25" fill="none" stroke="#000" stroke-width="2" d="M150.757,85.757 A6,6 0 0 1 155,84 h51 a6,6 0 0 1 6,6 v13 a6,6 0 0 1 -6,6 h-51 a6,6 0 0 1 -6,-6 v-13 A6,6 0 0 1 150.757,85.757"/></mask><path x="149" y="84" width="63" height="25" fill="#a78bfa15" d="M155,84 h51 a6,6 0 0 1 6,6 v13 a6,6 0 0 1 -6,6 h-51 a6,6 0 0 1 -6,-6 v-13 a6,6 0 0 1 6,-6" clip-path="url(#satori_cp-id)" mask="url(#satori_om-id)"/><path width="63" height="25" clip-path="url(#satori_bc-id-2-1-1-0)" fill="none" stroke="#a78bfa35" stroke-width="2" d="M150.757,85.757 A6,6 0 0 1 155,84 h51 a6,6 0 0 1 6,6 v13 a6,6 0 0 1 -6,6 h-51 a6,6 0 0 1 -6,-6 v-13 A6,6 0 0 1 150.757,85.757"/><g mask="url(#satori_om-id)" clip-path="url(#satori_cp-id)"><path fill="rgba(220,240,255,0.85)" d="M165.6 101L163.8 101L163.8 92.3L165.6 92.3L165.6 95.8L169.4 95.8L169.4 92.3L171.2 92.3L171.2 101L169.4 101L169.4 97.3L165.6 97.3L165.6 101ZM175.1 93.8L172.4 93.8L172.4 92.3L179.5 92.3L179.5 93.8L176.9 93.8L176.9 101L175.1 101L175.1 93.8ZM182.5 101L180.8 101L180.8 92.3L183.5 92.3L184.9 96.3Q185.0 96.6 185.1 97.0Q185.2 97.4 185.4 98.0L185.4 98.0Q185.5 98.5 185.6 98.9L185.6 98.9Q185.7 98.5 185.8 98.0L185.8 98.0Q185.9 97.5 186.0 97.0Q186.1 96.6 186.2 96.3L186.2 96.3L187.6 92.3L190.4 92.3L190.4 101L188.6 101L188.6 96.9Q188.6 96.6 188.6 96.2Q188.6 95.7 188.6 95.2Q188.6 94.8 188.6 94.3L188.6 94.3Q188.6 94.0 188.6 93.8L188.6 93.8Q188.6 94.1 188.5 94.3L188.5 94.3Q188.4 94.8 188.2 95.3Q188.1 95.8 188.0 96.2Q187.9 96.6 187.8 96.9L187.8 96.9L186.3 101L184.8 101L183.3 96.9Q183.3 96.6 183.1 96.2Q183.0 95.8 182.9 95.3Q182.7 94.8 182.6 94.3L182.6 94.3Q182.5 94.1 182.5 93.9L182.5 93.9Q182.5 94.0 182.5 94.2L182.5 94.2Q182.5 94.7 182.5 95.2Q182.5 95.7 182.5 96.2Q182.5 96.6 182.5 96.9L182.5 96.9L182.5 101ZM197.5 101L191.9 101L191.9 92.3L193.7 92.3L193.7 99.5L197.5 99.5L197.5 101Z "/></g><defs><clipPath id="satori_bc-id-2-1-1-1" clip-path="url(#satori_cp-id)"><path x="219" y="84" width="53" height="25" d="M225,84 h41 a6,6 0 0 1 6,6 v13 a6,6 0 0 1 -6,6 h-41 a6,6 0 0 1 -6,-6 v-13 a6,6 0 0 1 6,-6"/></clipPath></defs><mask id="satori_om-id-2-1-1-1"><rect x="220" y="85" width="51" height="23" fill="#fff" mask="url(#satori_om-id)"/><path width="53" height="25" fill="none" stroke="#000" stroke-width="2" d="M220.757,85.757 A6,6 0 0 1 225,84 h41 a6,6 0 0 1 6,6 v13 a6,6 0 0 1 -6,6 h-41 a6,6 0 0 1 -6,-6 v-13 A6,6 0 0 1 220.757,85.757"/></mask><path x="219" y="84" width="53" height="25" fill="#a78bfa15" d="M225,84 h41 a6,6 0 0 1 6,6 v13 a6,6 0 0 1 -6,6 h-41 a6,6 0 0 1 -6,-6 v-13 a6,6 0 0 1 6,-6" clip-path="url(#satori_cp-id)" mask="url(#satori_om-id)"/><path width="53" height="25" clip-path="url(#satori_bc-id-2-1-1-1)" fill="none" stroke="#a78bfa35" stroke-width="2" d="M220.757,85.757 A6,6 0 0 1 225,84 h41 a6,6 0 0 1 6,6 v13 a6,6 0 0 1 -6,6 h-41 a6,6 0 0 1 -6,-6 v-13 A6,6 0 0 1 220.757,85.757"/><g mask="url(#satori_om-id)" clip-path="url(#satori_cp-id)"><path fill="rgba(220,240,255,0.85)" d="M237.6 101.1L237.6 101.1Q236.4 101.1 235.5 100.6Q234.6 100.1 234.1 99.1Q233.6 98.1 233.6 96.6L233.6 96.6Q233.6 95.2 234.1 94.2Q234.6 93.2 235.5 92.7Q236.5 92.2 237.6 92.2L237.6 92.2Q238.3 92.2 239.0 92.4Q239.6 92.6 240.1 93.0Q240.6 93.4 240.9 93.9Q241.3 94.5 241.4 95.3L241.4 95.3L239.6 95.3Q239.5 94.9 239.3 94.6Q239.2 94.3 238.9 94.1Q238.7 93.9 238.3 93.8Q238.0 93.7 237.6 93.7L237.6 93.7Q237.0 93.7 236.4 94.1Q235.9 94.4 235.7 95.1Q235.4 95.7 235.4 96.6L235.4 96.6Q235.4 97.6 235.7 98.2Q235.9 98.9 236.5 99.2Q237.0 99.5 237.6 99.5L237.6 99.5Q238.0 99.5 238.3 99.4Q238.6 99.3 238.9 99.1Q239.2 98.9 239.3 98.7Q239.5 98.4 239.6 98.0L239.6 98.0L241.4 98.0Q241.3 98.6 241.0 99.2Q240.7 99.7 240.2 100.2Q239.8 100.6 239.1 100.9Q238.4 101.1 237.6 101.1ZM245.9 101.1L245.9 101.1Q244.8 101.1 244.0 100.8Q243.3 100.5 242.8 99.9Q242.4 99.2 242.4 98.3L242.4 98.3L244.1 98.3Q244.2 98.7 244.4 99.0Q244.6 99.3 245.0 99.5Q245.4 99.6 245.8 99.6L245.8 99.6Q246.3 99.6 246.7 99.5Q247.0 99.3 247.2 99.1Q247.4 98.8 247.4 98.5L247.4 98.5Q247.4 98.2 247.3 98.0Q247.1 97.8 246.7 97.7Q246.4 97.5 245.9 97.4L245.9 97.4L245.0 97.2Q243.9 96.9 243.2 96.3Q242.6 95.7 242.6 94.8L242.6 94.8Q242.6 94.0 243.0 93.4Q243.5 92.8 244.2 92.5Q244.9 92.2 245.9 92.2L245.9 92.2Q246.9 92.2 247.6 92.5Q248.3 92.8 248.7 93.4Q249.1 94.0 249.1 94.8L249.1 94.8L247.4 94.8Q247.3 94.2 246.9 93.9Q246.5 93.7 245.9 93.7L245.9 93.7Q245.4 93.7 245.1 93.8Q244.8 93.9 244.6 94.1Q244.4 94.4 244.4 94.7L244.4 94.7Q244.4 95.0 244.6 95.2Q244.8 95.4 245.2 95.5Q245.5 95.7 245.8 95.8L245.8 95.8L246.6 96.0Q247.2 96.1 247.7 96.3Q248.1 96.5 248.5 96.8Q248.8 97.1 249.0 97.5Q249.2 98.0 249.2 98.5L249.2 98.5Q249.2 99.3 248.8 99.9Q248.4 100.5 247.7 100.8Q246.9 101.1 245.9 101.1ZM253.7 101.1L253.7 101.1Q252.7 101.1 251.9 100.8Q251.1 100.5 250.7 99.9Q250.3 99.2 250.2 98.3L250.2 98.3L252.0 98.3Q252.0 98.7 252.2 99.0Q252.5 99.3 252.8 99.5Q253.2 99.6 253.7 99.6L253.7 99.6Q254.2 99.6 254.5 99.5Q254.9 99.3 255.1 99.1Q255.3 98.8 255.3 98.5L255.3 98.5Q255.3 98.2 255.1 98.0Q254.9 97.8 254.6 97.7Q254.3 97.5 253.8 97.4L253.8 97.4L252.8 97.2Q251.7 96.9 251.1 96.3Q250.5 95.7 250.5 94.8L250.5 94.8Q250.5 94.0 250.9 93.4Q251.3 92.8 252.1 92.5Q252.8 92.2 253.7 92.2L253.7 92.2Q254.7 92.2 255.4 92.5Q256.2 92.8 256.6 93.4Q257.0 94.0 257.0 94.8L257.0 94.8L255.2 94.8Q255.2 94.2 254.8 93.9Q254.4 93.7 253.7 93.7L253.7 93.7Q253.3 93.7 253.0 93.8Q252.6 93.9 252.5 94.1Q252.3 94.4 252.3 94.7L252.3 94.7Q252.3 95.0 252.5 95.2Q252.7 95.4 253.0 95.5Q253.3 95.7 253.7 95.8L253.7 95.8L254.5 96.0Q255.0 96.1 255.5 96.3Q256.0 96.5 256.3 96.8Q256.7 97.1 256.9 97.5Q257.1 98.0 257.1 98.5L257.1 98.5Q257.1 99.3 256.7 99.9Q256.3 100.5 255.5 100.8Q254.8 101.1 253.7 101.1Z "/></g><defs><clipPath id="satori_bc-id-2-1-1-2" clip-path="url(#satori_cp-id)"><path x="279" y="84" width="71" height="25" d="M285,84 h59 a6,6 0 0 1 6,6 v13 a6,6 0 0 1 -6,6 h-59 a6,6 0 0 1 -6,-6 v-13 a6,6 0 0 1 6,-6"/></clipPath></defs><mask id="satori_om-id-2-1-1-2"><rect x="280" y="85" width="69" height="23" fill="#fff" mask="url(#satori_om-id)"/><path width="71" height="25" fill="none" stroke="#000" stroke-width="2" d="M280.757,85.757 A6,6 0 0 1 285,84 h59 a6,6 0 0 1 6,6 v13 a6,6 0 0 1 -6,6 h-59 a6,6 0 0 1 -6,-6 v-13 A6,6 0 0 1 280.757,85.757"/></mask><path x="279" y="84" width="71" height="25" fill="#a78bfa15" d="M285,84 h59 a6,6 0 0 1 6,6 v13 a6,6 0 0 1 -6,6 h-59 a6,6 0 0 1 -6,-6 v-13 a6,6 0 0 1 6,-6" clip-path="url(#satori_cp-id)" mask="url(#satori_om-id)"/><path width="71" height="25" clip-path="url(#satori_bc-id-2-1-1-2)" fill="none" stroke="#a78bfa35" stroke-width="2" d="M280.757,85.757 A6,6 0 0 1 285,84 h59 a6,6 0 0 1 6,6 v13 a6,6 0 0 1 -6,6 h-59 a6,6 0 0 1 -6,-6 v-13 A6,6 0 0 1 280.757,85.757"/><g mask="url(#satori_om-id)" clip-path="url(#satori_cp-id)"><path fill="rgba(220,240,255,0.85)" d="M295.6 101L293.8 101L293.8 92.3L296.5 92.3L298.0 96.3Q298.0 96.6 298.2 97.0Q298.3 97.4 298.4 98.0L298.4 98.0Q298.5 98.5 298.6 98.9L298.6 98.9Q298.7 98.5 298.8 98.0L298.8 98.0Q298.9 97.5 299.0 97.0Q299.2 96.6 299.2 96.3L299.2 96.3L300.6 92.3L303.4 92.3L303.4 101L301.6 101L301.6 96.9Q301.6 96.6 301.6 96.2Q301.6 95.7 301.6 95.2Q301.6 94.8 301.7 94.3L301.7 94.3Q301.7 94.0 301.7 93.8L301.7 93.8Q301.6 94.1 301.5 94.3L301.5 94.3Q301.4 94.8 301.3 95.3Q301.1 95.8 301.0 96.2Q300.9 96.6 300.8 96.9L300.8 96.9L299.3 101L297.8 101L296.4 96.9Q296.3 96.6 296.2 96.2Q296.0 95.8 295.9 95.3Q295.8 94.8 295.6 94.3L295.6 94.3Q295.6 94.1 295.5 93.9L295.5 93.9Q295.5 94.0 295.5 94.2L295.5 94.2Q295.5 94.7 295.5 95.2Q295.5 95.7 295.6 96.2Q295.6 96.6 295.6 96.9L295.6 96.9L295.6 101ZM304.9 103.3L304.9 103.3L305.3 102.0L305.5 102.0Q305.9 102.1 306.1 102.1Q306.4 102.1 306.6 101.9Q306.7 101.7 306.8 101.4L306.8 101.4L306.8 101.0L304.4 94.4L306.2 94.4L307.3 97.8Q307.5 98.5 307.7 99.1L307.7 99.1Q307.7 99.4 307.7 99.6L307.7 99.6Q307.8 99.4 307.9 99.1L307.9 99.1Q308.0 98.5 308.2 97.8L308.2 97.8L309.4 94.4L311.2 94.4L308.4 101.8Q308.2 102.3 307.9 102.7Q307.6 103.1 307.2 103.3Q306.7 103.5 306.0 103.5L306.0 103.5Q305.7 103.5 305.4 103.4Q305.1 103.4 304.9 103.3ZM315.4 101.1L315.4 101.1Q314.3 101.1 313.6 100.8Q312.8 100.5 312.4 99.9Q311.9 99.2 311.9 98.3L311.9 98.3L313.6 98.3Q313.7 98.7 313.9 99.0Q314.1 99.3 314.5 99.5Q314.9 99.6 315.4 99.6L315.4 99.6Q315.9 99.6 316.2 99.5Q316.6 99.3 316.8 99.1Q317.0 98.8 317.0 98.5L317.0 98.5Q317.0 98.2 316.8 98.0Q316.6 97.8 316.3 97.7Q315.9 97.5 315.5 97.4L315.5 97.4L314.5 97.2Q313.4 96.9 312.8 96.3Q312.1 95.7 312.1 94.8L312.1 94.8Q312.1 94.0 312.6 93.4Q313.0 92.8 313.7 92.5Q314.5 92.2 315.4 92.2L315.4 92.2Q316.4 92.2 317.1 92.5Q317.8 92.8 318.2 93.4Q318.6 94.0 318.6 94.8L318.6 94.8L316.9 94.8Q316.9 94.2 316.5 93.9Q316.1 93.7 315.4 93.7L315.4 93.7Q314.9 93.7 314.6 93.8Q314.3 93.9 314.1 94.1Q314.0 94.4 314.0 94.7L314.0 94.7Q314.0 95.0 314.2 95.2Q314.4 95.4 314.7 95.5Q315.0 95.7 315.4 95.8L315.4 95.8L316.2 96.0Q316.7 96.1 317.2 96.3Q317.7 96.5 318.0 96.8Q318.4 97.1 318.6 97.5Q318.8 98.0 318.8 98.5L318.8 98.5Q318.8 99.3 318.4 99.9Q318.0 100.5 317.2 100.8Q316.5 101.1 315.4 101.1ZM323.9 101.1L323.9 101.1Q322.7 101.1 321.8 100.6Q320.9 100.1 320.3 99.1Q319.8 98.1 319.8 96.6L319.8 96.6Q319.8 95.2 320.3 94.2Q320.9 93.2 321.8 92.7Q322.7 92.2 323.9 92.2L323.9 92.2Q325.0 92.2 326.0 92.7Q326.9 93.2 327.4 94.2Q328.0 95.2 328.0 96.6L328.0 96.6Q328.0 98.1 327.4 99.1L327.4 99.1Q327.1 99.7 326.6 100.1L326.6 100.1L327.9 101.7L326.2 101.7L325.5 100.8Q324.7 101.1 323.9 101.1ZM324.4 99.5L323.3 98L324.9 98L325.5 98.8Q325.7 98.6 325.9 98.2L325.9 98.2Q326.1 97.6 326.1 96.6L326.1 96.6Q326.1 95.7 325.9 95.0Q325.6 94.4 325.1 94.1Q324.6 93.7 323.9 93.7L323.9 93.7Q323.2 93.7 322.7 94.1Q322.2 94.4 321.9 95.1Q321.6 95.7 321.6 96.6L321.6 96.6Q321.6 97.6 321.9 98.2Q322.2 98.9 322.7 99.2Q323.2 99.5 323.9 99.5L323.9 99.5Q324.2 99.5 324.4 99.5L324.4 99.5ZM334.9 101L329.4 101L329.4 92.3L331.2 92.3L331.2 99.5L334.9 99.5L334.9 101Z "/></g><defs><clipPath id="satori_bc-id-2-1-1-3" clip-path="url(#satori_cp-id)"><path x="357" y="84" width="79" height="25" d="M363,84 h67 a6,6 0 0 1 6,6 v13 a6,6 0 0 1 -6,6 h-67 a6,6 0 0 1 -6,-6 v-13 a6,6 0 0 1 6,-6"/></clipPath></defs><mask id="satori_om-id-2-1-1-3"><rect x="358" y="85" width="77" height="23" fill="#fff" mask="url(#satori_om-id)"/><path width="79" height="25" fill="none" stroke="#000" stroke-width="2" d="M358.757,85.757 A6,6 0 0 1 363,84 h67 a6,6 0 0 1 6,6 v13 a6,6 0 0 1 -6,6 h-67 a6,6 0 0 1 -6,-6 v-13 A6,6 0 0 1 358.757,85.757"/></mask><path x="357" y="84" width="79" height="25" fill="#a78bfa15" d="M363,84 h67 a6,6 0 0 1 6,6 v13 a6,6 0 0 1 -6,6 h-67 a6,6 0 0 1 -6,-6 v-13 a6,6 0 0 1 6,-6" clip-path="url(#satori_cp-id)" mask="url(#satori_om-id)"/><path width="79" height="25" clip-path="url(#satori_bc-id-2-1-1-3)" fill="none" stroke="#a78bfa35" stroke-width="2" d="M358.757,85.757 A6,6 0 0 1 363,84 h67 a6,6 0 0 1 6,6 v13 a6,6 0 0 1 -6,6 h-67 a6,6 0 0 1 -6,-6 v-13 A6,6 0 0 1 358.757,85.757"/><g mask="url(#satori_om-id)" clip-path="url(#satori_cp-id)"><path fill="rgba(220,240,255,0.85)" d="M373.6 101L371.8 101L371.8 92.3L377.5 92.3L377.5 93.8L373.6 93.8L373.6 96.2L377.1 96.2L377.1 97.6L373.6 97.6L373.6 101ZM380.6 101L378.8 101L378.8 94.4L380.6 94.4L380.6 101ZM379.7 93.6L379.7 93.6Q379.3 93.6 379.0 93.3Q378.7 93.1 378.7 92.7L378.7 92.7Q378.7 92.3 379.0 92.1Q379.3 91.8 379.7 91.8L379.7 91.8Q380.1 91.8 380.4 92.0Q380.6 92.3 380.6 92.7L380.6 92.7Q380.6 93.1 380.4 93.3Q380.1 93.6 379.7 93.6ZM383.8 101L382.0 101L382.0 94.4L383.7 94.4L383.7 95.6L383.8 95.6Q384.0 95.0 384.4 94.7Q384.8 94.4 385.4 94.4L385.4 94.4Q385.5 94.4 385.7 94.4Q385.8 94.4 386.0 94.4L386.0 94.4L386.0 96.0Q385.8 95.9 385.6 95.9Q385.4 95.9 385.2 95.9L385.2 95.9Q384.8 95.9 384.5 96.1Q384.2 96.2 384.0 96.6Q383.8 96.9 383.8 97.3L383.8 97.3L383.8 101ZM389.9 101.1L389.9 101.1Q388.9 101.1 388.2 100.7Q387.4 100.3 387.0 99.6Q386.7 98.8 386.7 97.8L386.7 97.8Q386.7 96.7 387.0 96.0Q387.4 95.2 388.1 94.8Q388.8 94.4 389.8 94.4L389.8 94.4Q390.4 94.4 391.0 94.6Q391.6 94.8 392.0 95.2Q392.4 95.6 392.6 96.2Q392.9 96.8 392.9 97.7L392.9 97.7L392.9 98.2L388.4 98.2Q388.4 98.7 388.6 99.0L388.6 99.0Q388.8 99.4 389.1 99.6Q389.5 99.8 389.9 99.8L389.9 99.8Q390.2 99.8 390.5 99.7Q390.7 99.6 390.9 99.5Q391.1 99.3 391.2 99.0L391.2 99.0L392.8 99.3Q392.6 99.9 392.2 100.3Q391.8 100.7 391.2 100.9Q390.7 101.1 389.9 101.1ZM388.4 97.1L388.4 97.1L391.2 97.1Q391.2 96.8 391.0 96.5L391.0 96.5Q390.9 96.1 390.6 95.9Q390.3 95.7 389.8 95.7L389.8 95.7Q389.4 95.7 389.0 95.9Q388.7 96.1 388.6 96.5L388.6 96.5Q388.4 96.7 388.4 97.1ZM397.7 101.1L397.7 101.1Q397.2 101.1 396.8 100.9Q396.5 100.7 396.2 100.5Q396.0 100.2 395.9 100.0L395.9 100.0L395.8 100.0L395.8 101L394.1 101L394.1 92.3L395.8 92.3L395.8 95.6L395.9 95.6Q396.0 95.3 396.2 95.0Q396.5 94.7 396.8 94.6Q397.2 94.4 397.8 94.4L397.8 94.4Q398.5 94.4 399.1 94.7Q399.7 95.1 400.1 95.9Q400.4 96.6 400.4 97.7L400.4 97.7Q400.4 98.8 400.1 99.6Q399.7 100.3 399.1 100.7Q398.5 101.1 397.7 101.1ZM397.2 99.7L397.2 99.7Q397.7 99.7 398.0 99.4Q398.3 99.2 398.5 98.8Q398.6 98.3 398.6 97.7L398.6 97.7Q398.6 97.2 398.5 96.7Q398.3 96.3 398.0 96.0Q397.7 95.8 397.2 95.8L397.2 95.8Q396.8 95.8 396.4 96.0Q396.1 96.3 396.0 96.7Q395.8 97.1 395.8 97.7L395.8 97.7Q395.8 98.3 396.0 98.8Q396.1 99.2 396.4 99.5Q396.8 99.7 397.2 99.7ZM403.5 101.1L403.5 101.1Q402.9 101.1 402.4 100.9Q401.9 100.7 401.6 100.3Q401.3 99.8 401.3 99.2L401.3 99.2Q401.3 98.6 401.5 98.3Q401.7 97.9 402.0 97.7Q402.4 97.4 402.8 97.3Q403.3 97.2 403.8 97.2L403.8 97.2Q404.3 97.1 404.7 97.0Q405.0 97.0 405.2 96.9Q405.4 96.8 405.4 96.6L405.4 96.6L405.4 96.5Q405.4 96.3 405.2 96.1Q405.1 95.9 404.9 95.8Q404.7 95.7 404.3 95.7L404.3 95.7Q404.0 95.7 403.7 95.8Q403.5 95.9 403.3 96.0Q403.2 96.2 403.1 96.4L403.1 96.4L401.5 96.2Q401.7 95.6 402.0 95.2Q402.4 94.8 403.0 94.6Q403.6 94.4 404.3 94.4L404.3 94.4Q404.9 94.4 405.4 94.5Q405.9 94.6 406.3 94.9Q406.6 95.1 406.9 95.6Q407.1 96.0 407.1 96.6L407.1 96.6L407.1 101L405.4 101L405.4 100.1L405.4 100.1Q405.2 100.4 405.0 100.6Q404.7 100.9 404.3 101.0Q404.0 101.1 403.5 101.1ZM404.0 99.9L404.0 99.9Q404.4 99.9 404.7 99.7Q405.0 99.6 405.2 99.3Q405.4 99.0 405.4 98.7L405.4 98.7L405.4 97.9Q405.3 98.0 405.1 98.1Q405.0 98.1 404.8 98.1Q404.6 98.2 404.4 98.2Q404.2 98.2 404.1 98.2L404.1 98.2Q403.7 98.3 403.5 98.4Q403.3 98.5 403.1 98.7Q403.0 98.8 403.0 99.1L403.0 99.1Q403.0 99.4 403.1 99.5Q403.2 99.7 403.5 99.8Q403.7 99.9 404.0 99.9ZM411.2 101.1L411.2 101.1Q410.4 101.1 409.8 100.9Q409.2 100.7 408.8 100.2Q408.4 99.8 408.3 99.2L408.3 99.2L410.0 98.9Q410.1 99.4 410.4 99.6Q410.7 99.8 411.3 99.8L411.3 99.8Q411.8 99.8 412.1 99.6Q412.3 99.5 412.3 99.2L412.3 99.2Q412.3 98.9 412.1 98.7Q411.9 98.6 411.5 98.5L411.5 98.5L410.4 98.3Q409.4 98.1 409.0 97.6Q408.5 97.1 408.5 96.4L408.5 96.4Q408.5 95.8 408.8 95.3Q409.2 94.9 409.8 94.6Q410.4 94.4 411.2 94.4L411.2 94.4Q412.0 94.4 412.6 94.6Q413.2 94.8 413.5 95.2Q413.9 95.6 414.0 96.1L414.0 96.1L412.4 96.4Q412.3 96.1 412.0 95.8Q411.7 95.6 411.3 95.6L411.3 95.6Q410.8 95.6 410.5 95.8Q410.2 96.0 410.2 96.3L410.2 96.3Q410.2 96.5 410.4 96.7Q410.6 96.9 411.1 97.0L411.1 97.0L412.3 97.2Q413.2 97.4 413.7 97.8Q414.1 98.3 414.1 99.0L414.1 99.0Q414.1 99.6 413.8 100.1Q413.4 100.6 412.7 100.9Q412.1 101.1 411.2 101.1ZM418.3 101.1L418.3 101.1Q417.3 101.1 416.6 100.7Q415.8 100.3 415.4 99.6Q415.1 98.8 415.1 97.8L415.1 97.8Q415.1 96.7 415.4 96.0Q415.8 95.2 416.5 94.8Q417.2 94.4 418.2 94.4L418.2 94.4Q418.8 94.4 419.4 94.6Q420.0 94.8 420.4 95.2Q420.8 95.6 421.0 96.2Q421.3 96.8 421.3 97.7L421.3 97.7L421.3 98.2L416.8 98.2Q416.8 98.7 417.0 99.0L417.0 99.0Q417.2 99.4 417.5 99.6Q417.9 99.8 418.3 99.8L418.3 99.8Q418.6 99.8 418.9 99.7Q419.1 99.6 419.3 99.5Q419.5 99.3 419.6 99.0L419.6 99.0L421.2 99.3Q421.0 99.9 420.6 100.3Q420.2 100.7 419.6 100.9Q419.1 101.1 418.3 101.1ZM416.8 97.1L416.8 97.1L419.6 97.1Q419.6 96.8 419.4 96.5L419.4 96.5Q419.3 96.1 419.0 95.9Q418.7 95.7 418.2 95.7L418.2 95.7Q417.8 95.7 417.4 95.9Q417.1 96.1 417.0 96.5L417.0 96.5Q416.8 96.7 416.8 97.1Z "/></g><mask id="satori_om-id-2-2"><rect x="33" y="123" width="794" height="25" fill="#fff" mask="url(#satori_om-id)"/></mask><mask id="satori_om-id-2-2-0"><rect x="33" y="130" width="100" height="12" fill="#fff" mask="url(#satori_om-id)"/></mask><g mask="url(#satori_om-id)" clip-path="url(#satori_cp-id)"><path fill="#34d399" d="M35.6 134.0L33.4 134.0L33.4 132.7L39.3 132.7L39.3 134.0L37.1 134.0L37.1 140L35.6 140L35.6 134.0ZM44.5 140.1L44.5 140.1Q43.6 140.1 42.8 139.7Q42.0 139.2 41.6 138.4Q41.1 137.5 41.1 136.4L41.1 136.4Q41.1 135.2 41.6 134.3Q42.0 133.5 42.8 133.1Q43.6 132.6 44.5 132.6L44.5 132.6Q45.5 132.6 46.3 133.1Q47.0 133.5 47.5 134.3Q47.9 135.2 47.9 136.4L47.9 136.4Q47.9 137.5 47.5 138.4Q47.0 139.2 46.3 139.7Q45.5 140.1 44.5 140.1ZM44.5 138.8L44.5 138.8Q45.1 138.8 45.5 138.5Q45.9 138.2 46.2 137.7Q46.4 137.1 46.4 136.4L46.4 136.4Q46.4 135.6 46.2 135.0Q45.9 134.5 45.5 134.2Q45.1 134.0 44.5 134.0L44.5 134.0Q44.0 134.0 43.5 134.2Q43.1 134.5 42.9 135.0Q42.6 135.6 42.6 136.4L42.6 136.4Q42.6 137.1 42.9 137.7Q43.1 138.2 43.5 138.5Q44.0 138.8 44.5 138.8ZM53.2 140.1L53.2 140.1Q52.3 140.1 51.5 139.7Q50.7 139.2 50.3 138.4Q49.8 137.5 49.8 136.4L49.8 136.4Q49.8 135.2 50.3 134.3Q50.7 133.5 51.5 133.1Q52.3 132.6 53.2 132.6L53.2 132.6Q54.2 132.6 55.0 133.1Q55.7 133.5 56.2 134.3Q56.6 135.2 56.6 136.4L56.6 136.4Q56.6 137.5 56.2 138.4Q55.7 139.2 55.0 139.7Q54.2 140.1 53.2 140.1ZM53.2 138.8L53.2 138.8Q53.8 138.8 54.2 138.5Q54.6 138.2 54.9 137.7Q55.1 137.1 55.1 136.4L55.1 136.4Q55.1 135.6 54.9 135.0Q54.6 134.5 54.2 134.2Q53.8 134.0 53.2 134.0L53.2 134.0Q52.7 134.0 52.2 134.2Q51.8 134.5 51.6 135.0Q51.4 135.6 51.4 136.4L51.4 136.4Q51.4 137.1 51.6 137.7Q51.8 138.2 52.2 138.5Q52.7 138.8 53.2 138.8ZM63.4 140L58.7 140L58.7 132.7L60.2 132.7L60.2 138.8L63.4 138.8L63.4 140ZM68.1 140.1L68.1 140.1Q67.2 140.1 66.5 139.8Q65.9 139.6 65.5 139.0Q65.2 138.5 65.2 137.7L65.2 137.7L66.6 137.7Q66.6 138.1 66.8 138.4Q67.0 138.6 67.3 138.7Q67.6 138.8 68.0 138.8L68.0 138.8Q68.5 138.8 68.7 138.7Q69.0 138.6 69.2 138.4Q69.4 138.2 69.4 137.9L69.4 137.9Q69.4 137.7 69.2 137.5Q69.1 137.3 68.8 137.2Q68.5 137.1 68.1 137.0L68.1 137.0L67.3 136.8Q66.4 136.6 65.9 136.1Q65.3 135.6 65.3 134.8L65.3 134.8Q65.3 134.2 65.7 133.7Q66.1 133.2 66.7 132.9Q67.3 132.6 68.1 132.6L68.1 132.6Q68.9 132.6 69.5 132.9Q70.1 133.2 70.4 133.7Q70.8 134.2 70.8 134.8L70.8 134.8L69.3 134.8Q69.3 134.4 69.0 134.1Q68.6 133.9 68.1 133.9L68.1 133.9Q67.7 133.9 67.4 134.0Q67.2 134.1 67.0 134.3Q66.9 134.5 66.9 134.7L66.9 134.7Q66.9 135.0 67.0 135.2Q67.2 135.3 67.5 135.5Q67.7 135.6 68.0 135.6L68.0 135.6L68.7 135.8Q69.2 135.9 69.6 136.1Q69.9 136.3 70.2 136.5Q70.5 136.8 70.7 137.1Q70.9 137.5 70.9 137.9L70.9 137.9Q70.9 138.6 70.5 139.1Q70.2 139.6 69.6 139.8Q68.9 140.1 68.1 140.1Z "/></g><mask id="satori_om-id-2-2-1"><rect x="149" y="123" width="300" height="25" fill="#fff" mask="url(#satori_om-id)"/></mask><defs><clipPath id="satori_bc-id-2-2-1-0" clip-path="url(#satori_cp-id)"><path x="149" y="123" width="69" height="25" d="M155,123 h57 a6,6 0 0 1 6,6 v13 a6,6 0 0 1 -6,6 h-57 a6,6 0 0 1 -6,-6 v-13 a6,6 0 0 1 6,-6"/></clipPath></defs><mask id="satori_om-id-2-2-1-0"><rect x="150" y="124" width="67" height="23" fill="#fff" mask="url(#satori_om-id)"/><path width="69" height="25" fill="none" stroke="#000" stroke-width="2" d="M150.757,124.757 A6,6 0 0 1 155,123 h57 a6,6 0 0 1 6,6 v13 a6,6 0 0 1 -6,6 h-57 a6,6 0 0 1 -6,-6 v-13 A6,6 0 0 1 150.757,124.757"/></mask><path x="149" y="123" width="69" height="25" fill="#34d39915" d="M155,123 h57 a6,6 0 0 1 6,6 v13 a6,6 0 0 1 -6,6 h-57 a6,6 0 0 1 -6,-6 v-13 a6,6 0 0 1 6,-6" clip-path="url(#satori_cp-id)" mask="url(#satori_om-id)"/><path width="69" height="25" clip-path="url(#satori_bc-id-2-2-1-0)" fill="none" stroke="#34d39935" stroke-width="2" d="M150.757,124.757 A6,6 0 0 1 155,123 h57 a6,6 0 0 1 6,6 v13 a6,6 0 0 1 -6,6 h-57 a6,6 0 0 1 -6,-6 v-13 A6,6 0 0 1 150.757,124.757"/><g mask="url(#satori_om-id)" clip-path="url(#satori_cp-id)"><path fill="rgba(220,240,255,0.85)" d="M167.7 140.1L167.7 140.1Q166.4 140.1 165.5 139.6Q164.6 139.0 164.1 138.0Q163.6 137.0 163.6 135.6L163.6 135.6Q163.6 134.2 164.1 133.2Q164.6 132.2 165.5 131.7Q166.5 131.2 167.6 131.2L167.6 131.2Q168.4 131.2 169.0 131.4Q169.6 131.6 170.1 132.0Q170.6 132.4 170.9 132.9Q171.2 133.4 171.3 134.1L171.3 134.1L169.5 134.1Q169.4 133.8 169.3 133.5Q169.1 133.3 168.9 133.1Q168.6 132.9 168.3 132.8Q168.0 132.7 167.6 132.7L167.6 132.7Q167.0 132.7 166.5 133.1Q165.9 133.4 165.7 134.1Q165.4 134.7 165.4 135.6Q165.4 136.6 165.7 137.2Q165.9 137.8 166.5 138.2Q167.0 138.5 167.7 138.5L167.7 138.5Q168.3 138.5 168.8 138.3Q169.2 138.1 169.5 137.6L169.5 137.6Q169.7 137.2 169.7 136.7L169.7 136.7L167.8 136.7L167.8 135.3L171.4 135.3L171.4 136.4Q171.4 137.6 170.9 138.4Q170.5 139.2 169.6 139.7Q168.8 140.1 167.7 140.1ZM174.5 140L172.8 140L172.8 133.4L174.5 133.4L174.5 140ZM173.6 132.6L173.6 132.6Q173.2 132.6 173.0 132.3Q172.7 132.1 172.7 131.7L172.7 131.7Q172.7 131.3 173.0 131.1Q173.2 130.8 173.6 130.8L173.6 130.8Q174.0 130.8 174.3 131.0Q174.6 131.3 174.6 131.7L174.6 131.7Q174.6 132.1 174.3 132.3Q174.0 132.6 173.6 132.6ZM178.0 133.4L179.3 133.4L179.3 134.8L178.0 134.8L178.0 138.1Q178.0 138.4 178.2 138.5Q178.3 138.7 178.6 138.7L178.6 138.7Q178.7 138.7 178.9 138.7Q179.1 138.6 179.2 138.6L179.2 138.6L179.4 139.9Q179.1 140.0 178.9 140.1Q178.6 140.1 178.3 140.1L178.3 140.1Q177.3 140.1 176.8 139.6Q176.3 139.1 176.3 138.2L176.3 138.2L176.3 134.8L175.4 134.8L175.4 133.4L176.3 133.4L176.3 131.9L178.0 131.9L178.0 133.4ZM182.2 140L180.4 140L180.4 131.3L182.2 131.3L182.2 134.8L186.0 134.8L186.0 131.3L187.8 131.3L187.8 140L186.0 140L186.0 136.3L182.2 136.3L182.2 140ZM191.6 140.1L191.6 140.1Q190.9 140.1 190.4 139.8Q189.9 139.5 189.6 138.9Q189.4 138.4 189.4 137.6L189.4 137.6L189.4 133.4L191.1 133.4L191.1 137.3Q191.1 137.9 191.4 138.3Q191.8 138.6 192.3 138.6L192.3 138.6Q192.7 138.6 193.0 138.5Q193.3 138.3 193.4 138.0Q193.6 137.7 193.6 137.2L193.6 137.2L193.6 133.4L195.3 133.4L195.3 140L193.7 140L193.7 138.6Q193.4 139.3 193.0 139.6L193.0 139.6Q192.4 140.1 191.6 140.1ZM200.5 140.1L200.5 140.1Q200.0 140.1 199.6 139.9Q199.2 139.7 199.0 139.5Q198.8 139.2 198.6 139.0L198.6 139.0L198.6 139.0L198.6 140L196.8 140L196.8 131.3L198.6 131.3L198.6 134.6L198.6 134.6Q198.8 134.3 199.0 134.0Q199.2 133.7 199.6 133.6Q200.0 133.4 200.5 133.4L200.5 133.4Q201.2 133.4 201.8 133.7Q202.5 134.1 202.8 134.9Q203.2 135.6 203.2 136.7L203.2 136.7Q203.2 137.8 202.8 138.6Q202.5 139.3 201.9 139.7Q201.3 140.1 200.5 140.1ZM200.0 138.7L200.0 138.7Q200.4 138.7 200.7 138.4Q201.1 138.2 201.2 137.8Q201.4 137.3 201.4 136.7L201.4 136.7Q201.4 136.2 201.2 135.7Q201.1 135.3 200.7 135.0Q200.4 134.8 200.0 134.8L200.0 134.8Q199.5 134.8 199.2 135.0Q198.9 135.3 198.7 135.7Q198.6 136.1 198.6 136.7L198.6 136.7Q198.6 137.3 198.7 137.8Q198.9 138.2 199.2 138.5Q199.5 138.7 200.0 138.7Z "/></g><defs><clipPath id="satori_bc-id-2-2-1-1" clip-path="url(#satori_cp-id)"><path x="225" y="123" width="67" height="25" d="M231,123 h55 a6,6 0 0 1 6,6 v13 a6,6 0 0 1 -6,6 h-55 a6,6 0 0 1 -6,-6 v-13 a6,6 0 0 1 6,-6"/></clipPath></defs><mask id="satori_om-id-2-2-1-1"><rect x="226" y="124" width="65" height="23" fill="#fff" mask="url(#satori_om-id)"/><path width="67" height="25" fill="none" stroke="#000" stroke-width="2" d="M226.757,124.757 A6,6 0 0 1 231,123 h55 a6,6 0 0 1 6,6 v13 a6,6 0 0 1 -6,6 h-55 a6,6 0 0 1 -6,-6 v-13 A6,6 0 0 1 226.757,124.757"/></mask><path x="225" y="123" width="67" height="25" fill="#34d39915" d="M231,123 h55 a6,6 0 0 1 6,6 v13 a6,6 0 0 1 -6,6 h-55 a6,6 0 0 1 -6,-6 v-13 a6,6 0 0 1 6,-6" clip-path="url(#satori_cp-id)" mask="url(#satori_om-id)"/><path width="67" height="25" clip-path="url(#satori_bc-id-2-2-1-1)" fill="none" stroke="#34d39935" stroke-width="2" d="M226.757,124.757 A6,6 0 0 1 231,123 h55 a6,6 0 0 1 6,6 v13 a6,6 0 0 1 -6,6 h-55 a6,6 0 0 1 -6,-6 v-13 A6,6 0 0 1 226.757,124.757"/><g mask="url(#satori_om-id)" clip-path="url(#satori_cp-id)"><path fill="rgba(220,240,255,0.85)" d="M244.7 140L242.3 140L239.3 131.3L241.3 131.3L242.7 135.5Q242.9 136.3 243.2 137.2L243.2 137.2Q243.3 137.9 243.5 138.6L243.5 138.6Q243.7 137.9 243.9 137.2L243.9 137.2Q244.1 136.3 244.3 135.5L244.3 135.5L245.7 131.3L247.7 131.3L244.7 140ZM251.7 140.1L251.7 140.1Q250.7 140.1 249.9 139.7Q249.2 139.3 248.8 138.6Q248.4 137.8 248.4 136.8L248.4 136.8Q248.4 135.7 248.8 135.0Q249.2 134.2 249.9 133.8Q250.6 133.4 251.6 133.4L251.6 133.4Q252.2 133.4 252.8 133.6Q253.3 133.8 253.8 134.2Q254.2 134.6 254.4 135.2Q254.7 135.8 254.7 136.7L254.7 136.7L254.7 137.2L250.2 137.2Q250.2 137.7 250.4 138.0L250.4 138.0Q250.6 138.4 250.9 138.6Q251.2 138.8 251.7 138.8L251.7 138.8Q252.0 138.8 252.3 138.7Q252.5 138.6 252.7 138.5Q252.9 138.3 253.0 138.0L253.0 138.0L254.6 138.3Q254.4 138.9 254.0 139.3Q253.6 139.7 253.0 139.9Q252.4 140.1 251.7 140.1ZM250.2 136.1L250.2 136.1L253.0 136.1Q252.9 135.8 252.8 135.5L252.8 135.5Q252.7 135.1 252.4 134.9Q252.0 134.7 251.6 134.7L251.6 134.7Q251.1 134.7 250.8 134.9Q250.5 135.1 250.3 135.5L250.3 135.5Q250.2 135.7 250.2 136.1ZM257.6 140L255.9 140L255.9 133.4L257.6 133.4L257.6 134.6L257.6 134.6Q257.8 134.0 258.2 133.7Q258.7 133.4 259.2 133.4L259.2 133.4Q259.3 133.4 259.5 133.4Q259.7 133.4 259.8 133.4L259.8 133.4L259.8 135.0Q259.7 134.9 259.4 134.9Q259.2 134.9 259.0 134.9L259.0 134.9Q258.6 134.9 258.3 135.1Q258.0 135.2 257.8 135.6Q257.6 135.9 257.6 136.3L257.6 136.3L257.6 140ZM263.7 140.1L263.7 140.1Q262.7 140.1 262.0 139.7Q261.2 139.3 260.9 138.5Q260.5 137.8 260.5 136.8L260.5 136.8Q260.5 135.7 260.9 135.0Q261.2 134.2 262.0 133.8Q262.7 133.4 263.7 133.4L263.7 133.4Q264.3 133.4 264.7 133.5Q265.2 133.7 265.6 134.0Q266 134.2 266.2 134.6Q266.5 135.0 266.6 135.5L266.6 135.5L265.0 135.9Q264.9 135.6 264.8 135.4Q264.7 135.2 264.5 135.0Q264.4 134.9 264.2 134.8Q263.9 134.8 263.7 134.8L263.7 134.8Q263.2 134.8 262.9 135.0Q262.6 135.3 262.4 135.7Q262.3 136.2 262.3 136.7L262.3 136.7Q262.3 137.3 262.4 137.8Q262.6 138.2 262.9 138.5Q263.2 138.7 263.7 138.7L263.7 138.7Q263.9 138.7 264.2 138.7Q264.4 138.6 264.5 138.4Q264.7 138.3 264.8 138.1Q264.9 137.9 265.0 137.6L265.0 137.6L266.6 137.9Q266.5 138.4 266.3 138.8Q266.0 139.2 265.6 139.5Q265.3 139.8 264.8 140.0Q264.3 140.1 263.7 140.1ZM270.8 140.1L270.8 140.1Q269.8 140.1 269.0 139.7Q268.3 139.3 267.9 138.6Q267.5 137.8 267.5 136.8L267.5 136.8Q267.5 135.7 267.9 135.0Q268.3 134.2 269.0 133.8Q269.7 133.4 270.7 133.4L270.7 133.4Q271.3 133.4 271.9 133.6Q272.4 133.8 272.9 134.2Q273.3 134.6 273.5 135.2Q273.8 135.8 273.8 136.7L273.8 136.7L273.8 137.2L269.3 137.2Q269.3 137.7 269.5 138.0L269.5 138.0Q269.7 138.4 270.0 138.6Q270.3 138.8 270.8 138.8L270.8 138.8Q271.1 138.8 271.4 138.7Q271.6 138.6 271.8 138.5Q272.0 138.3 272.1 138.0L272.1 138.0L273.7 138.3Q273.5 138.9 273.1 139.3Q272.7 139.7 272.1 139.9Q271.5 140.1 270.8 140.1ZM269.3 136.1L269.3 136.1L272.1 136.1Q272.0 135.8 271.9 135.5L271.9 135.5Q271.8 135.1 271.5 134.9Q271.1 134.7 270.7 134.7L270.7 134.7Q270.2 134.7 269.9 134.9Q269.6 135.1 269.4 135.5L269.4 135.5Q269.3 135.7 269.3 136.1ZM275.0 131.3L276.7 131.3L276.7 140L275.0 140L275.0 131.3Z "/></g><defs><clipPath id="satori_bc-id-2-2-1-2" clip-path="url(#satori_cp-id)"><path x="299" y="123" width="79" height="25" d="M305,123 h67 a6,6 0 0 1 6,6 v13 a6,6 0 0 1 -6,6 h-67 a6,6 0 0 1 -6,-6 v-13 a6,6 0 0 1 6,-6"/></clipPath></defs><mask id="satori_om-id-2-2-1-2"><rect x="300" y="124" width="77" height="23" fill="#fff" mask="url(#satori_om-id)"/><path width="79" height="25" fill="none" stroke="#000" stroke-width="2" d="M300.757,124.757 A6,6 0 0 1 305,123 h67 a6,6 0 0 1 6,6 v13 a6,6 0 0 1 -6,6 h-67 a6,6 0 0 1 -6,-6 v-13 A6,6 0 0 1 300.757,124.757"/></mask><path x="299" y="123" width="79" height="25" fill="#34d39915" d="M305,123 h67 a6,6 0 0 1 6,6 v13 a6,6 0 0 1 -6,6 h-67 a6,6 0 0 1 -6,-6 v-13 a6,6 0 0 1 6,-6" clip-path="url(#satori_cp-id)" mask="url(#satori_om-id)"/><path width="79" height="25" clip-path="url(#satori_bc-id-2-2-1-2)" fill="none" stroke="#34d39935" stroke-width="2" d="M300.757,124.757 A6,6 0 0 1 305,123 h67 a6,6 0 0 1 6,6 v13 a6,6 0 0 1 -6,6 h-67 a6,6 0 0 1 -6,-6 v-13 A6,6 0 0 1 300.757,124.757"/><g mask="url(#satori_om-id)" clip-path="url(#satori_cp-id)"><path fill="rgba(220,240,255,0.85)" d="M318.7 140L316.3 140L313.3 131.3L315.3 131.3L316.7 135.5Q316.9 136.3 317.2 137.2L317.2 137.2Q317.3 137.9 317.5 138.6L317.5 138.6Q317.7 137.9 317.9 137.2L317.9 137.2Q318.1 136.3 318.3 135.5L318.3 135.5L319.7 131.3L321.7 131.3L318.7 140ZM325.9 140.1L325.9 140.1Q324.9 140.1 324.1 139.8Q323.3 139.5 322.9 138.9Q322.5 138.2 322.5 137.3L322.5 137.3L324.2 137.3Q324.2 137.7 324.5 138.0Q324.7 138.3 325.1 138.5Q325.5 138.6 325.9 138.6L325.9 138.6Q326.4 138.6 326.8 138.5Q327.1 138.3 327.3 138.1Q327.5 137.8 327.5 137.5L327.5 137.5Q327.5 137.2 327.3 137.0Q327.2 136.8 326.8 136.7Q326.5 136.5 326.0 136.4L326.0 136.4L325.1 136.2Q323.9 135.9 323.3 135.3Q322.7 134.7 322.7 133.8L322.7 133.8Q322.7 133.0 323.1 132.4Q323.5 131.8 324.3 131.5Q325.0 131.2 326.0 131.2L326.0 131.2Q326.9 131.2 327.7 131.5Q328.4 131.8 328.8 132.4Q329.2 133.0 329.2 133.8L329.2 133.8L327.5 133.8Q327.4 133.2 327.0 132.9Q326.6 132.7 326.0 132.7L326.0 132.7Q325.5 132.7 325.2 132.8Q324.9 132.9 324.7 133.1Q324.5 133.4 324.5 133.7L324.5 133.7Q324.5 134.0 324.7 134.2Q324.9 134.4 325.2 134.5Q325.6 134.7 325.9 134.8L325.9 134.8L326.7 135.0Q327.3 135.1 327.7 135.3Q328.2 135.5 328.6 135.8Q328.9 136.1 329.1 136.5Q329.3 137.0 329.3 137.5L329.3 137.5Q329.3 138.3 328.9 138.9Q328.5 139.5 327.8 139.8Q327.0 140.1 325.9 140.1Z M337.3 140.1L337.3 140.1Q336.1 140.1 335.2 139.6Q334.3 139.1 333.7 138.1Q333.2 137.1 333.2 135.6L333.2 135.6Q333.2 134.2 333.7 133.2Q334.3 132.2 335.2 131.7Q336.1 131.2 337.3 131.2L337.3 131.2Q338.0 131.2 338.6 131.4Q339.3 131.6 339.8 132.0Q340.3 132.4 340.6 132.9Q340.9 133.5 341.0 134.3L341.0 134.3L339.2 134.3Q339.2 133.9 339.0 133.6Q338.8 133.3 338.6 133.1Q338.3 132.9 338.0 132.8Q337.7 132.7 337.3 132.7L337.3 132.7Q336.6 132.7 336.1 133.1Q335.6 133.4 335.3 134.1Q335.0 134.7 335.0 135.6L335.0 135.6Q335.0 136.6 335.3 137.2Q335.6 137.9 336.1 138.2Q336.6 138.5 337.3 138.5L337.3 138.5Q337.7 138.5 338.0 138.4Q338.3 138.3 338.6 138.1Q338.8 137.9 339.0 137.7Q339.2 137.4 339.2 137.0L339.2 137.0L341.0 137.0Q341.0 137.6 340.7 138.2Q340.4 138.7 339.9 139.2Q339.4 139.6 338.8 139.9Q338.1 140.1 337.3 140.1ZM345.2 140.1L345.2 140.1Q344.2 140.1 343.5 139.7Q342.8 139.3 342.4 138.5Q342.0 137.8 342.0 136.8L342.0 136.8Q342.0 135.7 342.4 135.0Q342.8 134.2 343.5 133.8Q344.2 133.4 345.2 133.4L345.2 133.4Q346.2 133.4 346.9 133.8Q347.6 134.2 348.0 135.0Q348.4 135.7 348.4 136.8L348.4 136.8Q348.4 137.8 348.0 138.5Q347.6 139.3 346.9 139.7Q346.2 140.1 345.2 140.1ZM345.2 138.7L345.2 138.7Q345.7 138.7 346 138.5Q346.3 138.2 346.5 137.8Q346.6 137.3 346.6 136.7L346.6 136.7Q346.6 136.2 346.5 135.7Q346.3 135.3 346 135.0Q345.7 134.8 345.2 134.8L345.2 134.8Q344.7 134.8 344.4 135.0Q344.1 135.3 344.0 135.7Q343.8 136.2 343.8 136.7L343.8 136.7Q343.8 137.3 344.0 137.8Q344.1 138.2 344.4 138.5Q344.7 138.7 345.2 138.7ZM352.0 140.1L352.0 140.1Q351.3 140.1 350.7 139.7Q350.1 139.3 349.7 138.6Q349.4 137.8 349.4 136.7L349.4 136.7Q349.4 135.6 349.7 134.9Q350.1 134.1 350.7 133.7Q351.3 133.4 352.0 133.4L352.0 133.4Q352.6 133.4 353.0 133.6Q353.3 133.7 353.6 134.0Q353.8 134.3 353.9 134.6L353.9 134.6L354.0 134.6L354.0 131.3L355.7 131.3L355.7 140L354.0 140L354.0 139.0L353.9 139.0Q353.8 139.2 353.5 139.5Q353.3 139.7 352.9 139.9Q352.6 140.1 352.0 140.1ZM352.6 138.7L352.6 138.7Q353.0 138.7 353.3 138.5Q353.7 138.2 353.8 137.8Q354.0 137.3 354.0 136.7L354.0 136.7Q354.0 136.1 353.8 135.7Q353.7 135.3 353.3 135.0Q353.0 134.8 352.6 134.8L352.6 134.8Q352.1 134.8 351.8 135.0Q351.5 135.3 351.3 135.7Q351.2 136.2 351.2 136.7L351.2 136.7Q351.2 137.3 351.3 137.8Q351.5 138.2 351.8 138.4Q352.1 138.7 352.6 138.7ZM360.2 140.1L360.2 140.1Q359.2 140.1 358.4 139.7Q357.7 139.3 357.3 138.6Q356.9 137.8 356.9 136.8L356.9 136.8Q356.9 135.7 357.3 135.0Q357.7 134.2 358.4 133.8Q359.1 133.4 360.1 133.4L360.1 133.4Q360.7 133.4 361.3 133.6Q361.8 133.8 362.3 134.2Q362.7 134.6 362.9 135.2Q363.2 135.8 363.2 136.7L363.2 136.7L363.2 137.2L358.7 137.2Q358.7 137.7 358.9 138.0L358.9 138.0Q359.1 138.4 359.4 138.6Q359.7 138.8 360.2 138.8L360.2 138.8Q360.5 138.8 360.8 138.7Q361.0 138.6 361.2 138.5Q361.4 138.3 361.5 138.0L361.5 138.0L363.1 138.3Q362.9 138.9 362.5 139.3Q362.1 139.7 361.5 139.9Q360.9 140.1 360.2 140.1ZM358.7 136.1L358.7 136.1L361.5 136.1Q361.4 135.8 361.3 135.5L361.3 135.5Q361.2 135.1 360.9 134.9Q360.5 134.7 360.1 134.7L360.1 134.7Q359.6 134.7 359.3 134.9Q359.0 135.1 358.8 135.5L358.8 135.5Q358.7 135.7 358.7 136.1Z "/></g><defs><clipPath id="satori_bc-id-2-2-1-3" clip-path="url(#satori_cp-id)"><path x="385" y="123" width="64" height="25" d="M391,123 h52 a6,6 0 0 1 6,6 v13 a6,6 0 0 1 -6,6 h-52 a6,6 0 0 1 -6,-6 v-13 a6,6 0 0 1 6,-6"/></clipPath></defs><mask id="satori_om-id-2-2-1-3"><rect x="386" y="124" width="62" height="23" fill="#fff" mask="url(#satori_om-id)"/><path width="64" height="25" fill="none" stroke="#000" stroke-width="2" d="M386.757,124.757 A6,6 0 0 1 391,123 h52 a6,6 0 0 1 6,6 v13 a6,6 0 0 1 -6,6 h-52 a6,6 0 0 1 -6,-6 v-13 A6,6 0 0 1 386.757,124.757"/></mask><path x="385" y="123" width="64" height="25" fill="#34d39915" d="M391,123 h52 a6,6 0 0 1 6,6 v13 a6,6 0 0 1 -6,6 h-52 a6,6 0 0 1 -6,-6 v-13 a6,6 0 0 1 6,-6" clip-path="url(#satori_cp-id)" mask="url(#satori_om-id)"/><path width="64" height="25" clip-path="url(#satori_bc-id-2-2-1-3)" fill="none" stroke="#34d39935" stroke-width="2" d="M386.757,124.757 A6,6 0 0 1 391,123 h52 a6,6 0 0 1 6,6 v13 a6,6 0 0 1 -6,6 h-52 a6,6 0 0 1 -6,-6 v-13 A6,6 0 0 1 386.757,124.757"/><g mask="url(#satori_om-id)" clip-path="url(#satori_cp-id)"><path fill="rgba(220,240,255,0.85)" d="M403.0 140.1L403.0 140.1Q401.9 140.1 401.2 139.8Q400.4 139.5 400.0 138.9Q399.5 138.2 399.5 137.3L399.5 137.3L401.2 137.3Q401.3 137.7 401.5 138.0Q401.7 138.3 402.1 138.5Q402.5 138.6 403.0 138.6L403.0 138.6Q403.5 138.6 403.8 138.5Q404.2 138.3 404.4 138.1Q404.6 137.8 404.6 137.5L404.6 137.5Q404.6 137.2 404.4 137.0Q404.2 136.8 403.9 136.7Q403.5 136.5 403.1 136.4L403.1 136.4L402.1 136.2Q401.0 135.9 400.4 135.3Q399.7 134.7 399.7 133.8L399.7 133.8Q399.7 133.0 400.2 132.4Q400.6 131.8 401.3 131.5Q402.1 131.2 403.0 131.2L403.0 131.2Q404.0 131.2 404.7 131.5Q405.4 131.8 405.8 132.4Q406.2 133.0 406.2 133.8L406.2 133.8L404.5 133.8Q404.5 133.2 404.1 132.9Q403.7 132.7 403.0 132.7L403.0 132.7Q402.5 132.7 402.2 132.8Q401.9 132.9 401.7 133.1Q401.6 133.4 401.6 133.7L401.6 133.7Q401.6 134.0 401.8 134.2Q402.0 134.4 402.3 134.5Q402.6 134.7 403.0 134.8L403.0 134.8L403.8 135.0Q404.3 135.1 404.8 135.3Q405.3 135.5 405.6 135.8Q406.0 136.1 406.2 136.5Q406.4 137.0 406.4 137.5L406.4 137.5Q406.4 138.3 406.0 138.9Q405.6 139.5 404.8 139.8Q404.1 140.1 403.0 140.1ZM410.5 140.1L410.5 140.1Q409.5 140.1 408.8 139.7Q408.1 139.3 407.7 138.5Q407.3 137.8 407.3 136.8L407.3 136.8Q407.3 135.7 407.7 135.0Q408.1 134.2 408.8 133.8Q409.5 133.4 410.5 133.4L410.5 133.4Q411.1 133.4 411.6 133.5Q412.1 133.7 412.5 134.0Q412.9 134.2 413.1 134.6Q413.4 135.0 413.4 135.5L413.4 135.5L411.8 135.9Q411.8 135.6 411.7 135.4Q411.5 135.2 411.4 135.0Q411.2 134.9 411.0 134.8Q410.8 134.8 410.6 134.8L410.6 134.8Q410.1 134.8 409.8 135.0Q409.4 135.3 409.3 135.7Q409.1 136.2 409.1 136.7L409.1 136.7Q409.1 137.3 409.3 137.8Q409.4 138.2 409.8 138.5Q410.1 138.7 410.6 138.7L410.6 138.7Q410.8 138.7 411.0 138.7Q411.2 138.6 411.4 138.4Q411.6 138.3 411.7 138.1Q411.8 137.9 411.8 137.6L411.8 137.6L413.5 137.9Q413.4 138.4 413.1 138.8Q412.9 139.2 412.5 139.5Q412.1 139.8 411.6 140.0Q411.1 140.1 410.5 140.1ZM416.4 140L414.7 140L414.7 133.4L416.4 133.4L416.4 140ZM415.5 132.6L415.5 132.6Q415.1 132.6 414.9 132.3Q414.6 132.1 414.6 131.7L414.6 131.7Q414.6 131.3 414.9 131.1Q415.1 130.8 415.5 130.8L415.5 130.8Q415.9 130.8 416.2 131.0Q416.5 131.3 416.5 131.7L416.5 131.7Q416.5 132.1 416.2 132.3Q415.9 132.6 415.5 132.6ZM417.9 131.3L419.7 131.3L419.7 140L417.9 140L417.9 131.3ZM423 140.1L423 140.1Q422.4 140.1 421.9 139.9Q421.4 139.7 421.1 139.3Q420.8 138.8 420.8 138.2L420.8 138.2Q420.8 137.6 421.0 137.3Q421.2 136.9 421.6 136.7Q421.9 136.4 422.4 136.3Q422.8 136.2 423.3 136.2L423.3 136.2Q423.9 136.1 424.2 136.0Q424.6 136.0 424.7 135.9Q424.9 135.8 424.9 135.6L424.9 135.6L424.9 135.5Q424.9 135.3 424.8 135.1Q424.6 134.9 424.4 134.8Q424.2 134.7 423.9 134.7L423.9 134.7Q423.5 134.7 423.3 134.8Q423.0 134.9 422.9 135.0Q422.7 135.2 422.6 135.4L422.6 135.4L421.0 135.2Q421.2 134.6 421.6 134.2Q422.0 133.8 422.5 133.6Q423.1 133.4 423.9 133.4L423.9 133.4Q424.4 133.4 424.9 133.5Q425.4 133.6 425.8 133.9Q426.2 134.1 426.4 134.6Q426.6 135.0 426.6 135.6L426.6 135.6L426.6 140L425.0 140L425.0 139.1L424.9 139.1Q424.8 139.4 424.5 139.6Q424.2 139.9 423.9 140.0Q423.5 140.1 423 140.1ZM423.5 138.9L423.5 138.9Q423.9 138.9 424.2 138.7Q424.5 138.6 424.7 138.3Q424.9 138.0 424.9 137.7L424.9 137.7L424.9 136.9Q424.8 137.0 424.7 137.1Q424.5 137.1 424.3 137.1Q424.1 137.2 423.9 137.2Q423.7 137.2 423.6 137.2L423.6 137.2Q423.3 137.3 423.0 137.4Q422.8 137.5 422.6 137.7Q422.5 137.8 422.5 138.1L422.5 138.1Q422.5 138.4 422.6 138.5Q422.8 138.7 423.0 138.8Q423.2 138.9 423.5 138.9ZM431.8 140.1L431.8 140.1Q431.3 140.1 430.9 139.9Q430.5 139.7 430.3 139.5Q430.1 139.2 429.9 139.0L429.9 139.0L429.9 139.0L429.9 140L428.1 140L428.1 131.3L429.9 131.3L429.9 134.6L429.9 134.6Q430.1 134.3 430.3 134.0Q430.5 133.7 430.9 133.6Q431.3 133.4 431.8 133.4L431.8 133.4Q432.5 133.4 433.1 133.7Q433.8 134.1 434.1 134.9Q434.5 135.6 434.5 136.7L434.5 136.7Q434.5 137.8 434.1 138.6Q433.8 139.3 433.2 139.7Q432.6 140.1 431.8 140.1ZM431.3 138.7L431.3 138.7Q431.7 138.7 432.0 138.4Q432.4 138.2 432.5 137.8Q432.7 137.3 432.7 136.7L432.7 136.7Q432.7 136.2 432.5 135.7Q432.4 135.3 432.0 135.0Q431.7 134.8 431.3 134.8L431.3 134.8Q430.8 134.8 430.5 135.0Q430.2 135.3 430.0 135.7Q429.9 136.1 429.9 136.7L429.9 136.7Q429.9 137.3 430.0 137.8Q430.2 138.2 430.5 138.5Q430.8 138.7 431.3 138.7Z "/></g></svg>