<!-- Generated by readme-aura https://github.com/collectioneur/readme-aura -->
<svg width="860" height="140" viewBox="0 0 860 140" xmlns="http://www.w3.org/2000/svg"><defs><clipPath id="satori_bc-id"><path x="0" y="0" width="860" height="140" d="M16,0 h828 a16,16 0 0 1 16,16 v108 a16,16 0 0 1 -16,16 h-828 a16,16 0 0 1 -16,-16 v-108 a16,16 0 0 1 16,-16"/></clipPath></defs><clipPath id="satori_cp-id"><path x="0" y="0" width="860" height="140" d="M16,0 h828 a16,16 0 0 1 16,16 v108 a16,16 0 0 1 -16,16 h-828 a16,16 0 0 1 -16,-16 v-108 a16,16 0 0 1 16,-16"/></clipPath><mask id="satori_om-id"><rect x="1" y="1" width="858" height="138" fill="#fff"/><path width="860" height="140" fill="none" stroke="#000" stroke-width="2" d="M4.686,4.686 A16,16 0 0 1 16,0 h828 a16,16 0 0 1 16,16 v108 a16,16 0 0 1 -16,16 h-828 a16,16 0 0 1 -16,-16 v-108 A16,16 0 0 1 4.686,4.686"/></mask><path x="0" y="0" width="860" height="140" fill="#08080c" d="M16,0 h828 a16,16 0 0 1 16,16 v108 a16,16 0 0 1 -16,16 h-828 a16,16 0 0 1 -16,-16 v-108 a16,16 0 0 1 16,-16"/><path width="860" height="140" clip-path="url(#satori_bc-id)" fill="none" stroke="rgba(0,185,240,0.18)" stroke-width="2" d="M4.686,4.686 A16,16 0 0 1 16,0 h828 a16,16 0 0 1 16,16 v108 a16,16 0 0 1 -16,16 h-828 a16,16 0 0 1 -16,-16 v-108 A16,16 0 0 1 4.686,4.686"/><clipPath id="satori_cp-id-0" clip-path="url(#satori_cp-id)"><rect x="1" y="1" width="860" height="140"/></clipPath><mask id="satori_om-id-0"><rect x="1" y="1" width="860" height="140" fill="#fff" mask="url(#satori_om-id)"/></mask><svg x="1" y="1" width="860" height="140" preserveAspectRatio="none" clip-path="url(#satori_cp-id-0)" mask="url(#satori_om-id-0)"><defs><radialGradient id="g1" cx="50%" cy="50%" r="50%"><stop offset="0%" stop-color="rgba(0,185,240,0.60)"></stop><stop offset="45%" stop-color="rgba(0,140,210,0.25)"></stop><stop offset="70%" stop-color="rgba(0,140,210,0)"></stop></radialGradient><radialGradient id="g2" cx="50%" cy="50%" r="50%"><stop offset="0%" stop-color="rgba(110,20,210,0.65)"></stop><stop offset="45%" stop-color="rgba(80,15,170,0.28)"></stop><stop offset="70%" stop-color="rgba(80,15,170,0)"></stop></radialGradient><radialGradient id="g3" cx="50%" cy="50%" r="50%"><stop offset="0%" stop-color="rgba(40,70,255,0.55)"></stop><stop offset="70%" stop-color="rgba(20,50,200,0)"></stop></radialGradient><radialGradient id="g4" cx="50%" cy="50%" r="50%"><stop offset="0%" stop-color="rgba(0,195,235,0.30)"></stop><stop offset="70%" stop-color="rgba(0,195,235,0)"></stop></radialGradient><radialGradient id="g5" cx="50%" cy="50%" r="50%"><stop offset="0%" stop-color="rgba(100,30,210,0.40)"></stop><stop offset="70%" stop-color="rgba(100,30,210,0)"></stop></radialGradient></defs><ellipse id="glow-1" cx="710" cy="150" rx="210" ry="150" fill="url(#g1)"></ellipse><ellipse id="glow-2" cx="550" cy="140" rx="190" ry="140" fill="url(#g2)"></ellipse><ellipse id="glow-3" cx="400" cy="130" rx="170" ry="130" fill="url(#g3)"></ellipse><ellipse id="glow-4" cx="250" cy="140" rx="150" ry="120" fill="url(#g4)"></ellipse><ellipse id="glow-5" cx="100" cy="150" rx="130" ry="110" fill="url(#g5)"></ellipse><style>

         @keyframes float-slow {
           0%, 100% { transform: translateX(0px); opacity: 0.8; }
           50% { transform: translateX(350px); opacity: 1.2; }
         }
         @keyframes float-medium {
           0%, 100% { transform: translateX(0px); opacity: 0.7; }
           50% { transform: translateX(-250px); opacity: 1.1; }
         }
         @keyframes float-fast {
           0%, 100% { transform: translateX(0px); opacity: 0.9; }
           50% { transform: translateX(200px); opacity: 0.6; }
         }
         @keyframes float-diagonal {
           0%, 100% { transform: translate(0px, 0px); opacity: 0.75; }
           50% { transform: translate(120px, 30px); opacity: 1.0; }
         }
         @keyframes float-wave {
           0%, 100% { transform: translateX(0px); opacity: 0.65; }
           33% { transform: translateX(-160px); opacity: 0.9; }
           66% { transform: translateX(80px); opacity: 1.0; }
         }
         #glow-1 { animation: float-slow 8s ease-in-out infinite; }
         #glow-2 { animation: float-medium 12s ease-in-out infinite; }
         #glow-3 { animation: float-fast 9s ease-in-out infinite; }
         #glow-4 { animation: float-diagonal 10s ease-in-out infinite; }
         #glow-5 { animation: float-wave 14s ease-in-out infinite; }
       
</style>
</svg><mask id="satori_om-id-0-0"><rect x="1" y="1" width="0" height="140" fill="#fff" mask="url(#satori_om-id)"/></mask><mask id="satori_om-id-0-0-0"><rect x="1" y="1" width="0" height="140" fill="#fff" mask="url(#satori_om-id)"/></mask><mask id="satori_om-id-0-0-0-0"><rect x="1" y="1" width="0" height="140" fill="#fff" mask="url(#satori_om-id)"/></mask><mask id="satori_om-id-0-0-0-1"><rect x="1" y="1" width="0" height="140" fill="#fff" mask="url(#satori_om-id)"/></mask><mask id="satori_om-id-0-0-0-2"><rect x="1" y="1" width="0" height="140" fill="#fff" mask="url(#satori_om-id)"/></mask><mask id="satori_om-id-0-0-1"><rect x="1" y="1" width="0" height="140" fill="#fff" mask="url(#satori_om-id)"/></mask><mask id="satori_om-id-0-0-1-0"><rect x="1" y="1" width="0" height="140" fill="#fff" mask="url(#satori_om-id)"/></mask><mask id="satori_om-id-0-0-1-1"><rect x="1" y="1" width="0" height="140" fill="#fff" mask="url(#satori_om-id)"/></mask><mask id="satori_om-id-0-0-1-2"><rect x="1" y="1" width="0" height="140" fill="#fff" mask="url(#satori_om-id)"/></mask><mask id="satori_om-id-0-0-2"><rect x="1" y="1" width="0" height="140" fill="#fff" mask="url(#satori_om-id)"/></mask><mask id="satori_om-id-0-0-2-0"><rect x="1" y="1" width="0" height="140" fill="#fff" mask="url(#satori_om-id)"/></mask><mask id="satori_om-id-0-0-2-1"><rect x="1" y="1" width="0" height="140" fill="#fff" mask="url(#satori_om-id)"/></mask><mask id="satori_om-id-0-0-3"><rect x="1" y="1" width="0" height="140" fill="#fff" mask="url(#satori_om-id)"/></mask><mask id="satori_om-id-0-0-3-0"><rect x="1" y="1" width="0" height="140" fill="#fff" mask="url(#satori_om-id)"/></mask><mask id="satori_om-id-0-0-3-1"><rect x="1" y="1" width="0" height="140" fill="#fff" mask="url(#satori_om-id)"/></mask><mask id="satori_om-id-0-0-4"><rect x="1" y="1" width="0" height="140" fill="#fff" mask="url(#satori_om-id)"/></mask><mask id="satori_om-id-0-0-4-0"><rect x="1" y="1" width="0" height="140" fill="#fff" mask="url(#satori_om-id)"/></mask><mask id="satori_om-id-0-0-4-1"><rect x="1" y="1" width="0" height="140" fill="#fff" mask="url(#satori_om-id)"/></mask><mask id="satori_om-id-0-1"><rect x="1" y="1" width="0" height="140" fill="#fff" mask="url(#satori_om-id)"/></mask><mask id="satori_om-id-0-2"><rect x="1" y="1" width="0" height="140" fill="#fff" mask="url(#satori_om-id)"/></mask><mask id="satori_om-id-0-3"><rect x="1" y="1" width="0" height="140" fill="#fff" mask="url(#satori_om-id)"/></mask><mask id="satori_om-id-0-4"><rect x="1" y="1" width="0" height="140" fill="#fff" mask="url(#satori_om-id)"/></mask><mask id="satori_om-id-0-5"><rect x="1" y="1" width="0" height="140" fill="#fff" mask="url(#satori_om-id)"/></mask><defs><clipPath id="satori_bc-id-1" clip-path="url(#satori_cp-id)"><rect x="1" y="30" width="261" height="80"/></clipPath></defs><mask id="satori_om-id-1"><rect x="1" y="30" width="260" height="80" fill="#fff" mask="url(#satori_om-id)"/><path width="261" height="80" fill="none" stroke="#000" stroke-width="2" d="M262,30 A0,0 0 0 1 262,30 v80 A0,0 0 0 1 262,110"/></mask><path width="261" height="80" clip-path="url(#satori_bc-id-1)" fill="none" stroke="rgba(255,255,255,0.06)" stroke-width="2" d="M262,30 A0,0 0 0 1 262,30 v80 A0,0 0 0 1 262,110"/><mask id="satori_om-id-1-0"><rect x="121" y="46" width="20" height="30" fill="#fff" mask="url(#satori_om-id)"/></mask><g mask="url(#satori_om-id)" clip-path="url(#satori_cp-id)"><path fill="#60a5fa" d="M130.8 72.3L130.8 72.3Q128.3 72.3 126.4 71.5Q124.5 70.7 123.5 69.3Q122.4 67.9 122.4 66.1L122.4 66.1Q122.4 64.8 123.0 63.6Q123.6 62.5 124.7 61.7Q125.7 60.9 127.1 60.7L127.1 60.7L127.1 60.6Q125.3 60.2 124.3 58.9Q123.2 57.5 123.2 55.7L123.2 55.7Q123.2 54.1 124.1 52.7Q125.1 51.4 126.8 50.6Q128.6 49.9 130.8 49.9L130.8 49.9Q132.9 49.9 134.7 50.6Q136.4 51.4 137.4 52.7Q138.4 54.1 138.4 55.7L138.4 55.7Q138.4 57.5 137.3 58.9Q136.2 60.2 134.5 60.6L134.5 60.6L134.5 60.7Q135.8 60.9 136.8 61.7Q137.9 62.5 138.5 63.6Q139.2 64.8 139.2 66.1L139.2 66.1Q139.2 67.9 138.1 69.3Q137.0 70.7 135.1 71.5Q133.2 72.3 130.8 72.3ZM130.8 69.0L130.8 69.0Q131.9 69.0 132.7 68.6Q133.6 68.2 134.0 67.5Q134.5 66.7 134.5 65.8L134.5 65.8Q134.5 64.8 134.0 64.1Q133.5 63.3 132.7 62.9Q131.8 62.5 130.8 62.5L130.8 62.5Q129.7 62.5 128.8 62.9Q128.0 63.3 127.5 64.1Q127.0 64.8 127.0 65.8L127.0 65.8Q127.0 66.7 127.5 67.4Q127.9 68.2 128.8 68.6Q129.6 69.0 130.8 69.0ZM130.8 59.2L130.8 59.2Q131.7 59.2 132.4 58.8Q133.1 58.4 133.6 57.8Q134.0 57.1 134.0 56.2L134.0 56.2Q134.0 55.3 133.6 54.7Q133.2 54.0 132.4 53.7Q131.7 53.3 130.8 53.3L130.8 53.3Q129.8 53.3 129.1 53.7Q128.4 54.0 127.9 54.7Q127.5 55.3 127.5 56.2L127.5 56.2Q127.5 57.1 127.9 57.8Q128.4 58.4 129.1 58.8Q129.8 59.2 130.8 59.2Z "/></g><mask id="satori_om-id-1-1"><rect x="109" y="81" width="45" height="13" fill="#fff" mask="url(#satori_om-id)"/></mask><g mask="url(#satori_om-id)" clip-path="url(#satori_cp-id)"><path fill="rgba(200,220,255,0.45)" d="M111.4 92L109.7 92L109.7 84.0L112.8 84.0Q113.8 84.0 114.4 84.3Q115.0 84.6 115.4 85.2Q115.7 85.8 115.7 86.6Q115.7 87.4 115.4 88.0Q115.0 88.5 114.4 88.8L114.4 88.8Q114.3 88.9 114.3 88.9L114.3 88.9L116.0 92L114.2 92L112.6 89.1L111.4 89.1L111.4 92ZM111.4 85.4L111.4 87.8L112.5 87.8Q113.0 87.8 113.4 87.7Q113.7 87.5 113.9 87.3Q114.0 87.0 114.0 86.6L114.0 86.6Q114.0 86.2 113.9 85.9Q113.7 85.6 113.4 85.5Q113.0 85.4 112.5 85.4L112.5 85.4L111.4 85.4ZM123.8 92L118.4 92L118.4 84.0L123.8 84.0L123.8 85.4L120.1 85.4L120.1 87.3L123.5 87.3L123.5 88.6L120.1 88.6L120.1 90.6L123.8 90.6L123.8 92ZM128.3 92L126.6 92L126.6 84.0L129.8 84.0Q130.7 84.0 131.3 84.3Q131.9 84.7 132.3 85.3Q132.6 85.9 132.6 86.7L132.6 86.7Q132.6 87.5 132.3 88.1Q131.9 88.7 131.3 89.0Q130.6 89.4 129.7 89.4L129.7 89.4L128.3 89.4L128.3 92ZM128.3 85.4L128.3 88.1L129.5 88.1Q130.0 88.1 130.3 87.9Q130.6 87.7 130.8 87.4Q130.9 87.1 130.9 86.7Q130.9 86.3 130.8 86.0Q130.6 85.7 130.3 85.5Q130.0 85.4 129.4 85.4L129.4 85.4L128.3 85.4ZM138.8 92.1L138.8 92.1Q137.7 92.1 136.9 91.6Q136.0 91.1 135.5 90.2Q135.0 89.3 135.0 88.0L135.0 88.0Q135.0 86.7 135.5 85.8Q136.0 84.9 136.9 84.4Q137.7 83.9 138.8 83.9L138.8 83.9Q139.8 83.9 140.7 84.4Q141.5 84.9 142.0 85.8Q142.5 86.7 142.5 88.0L142.5 88.0Q142.5 89.3 142.0 90.2Q141.5 91.1 140.7 91.6Q139.8 92.1 138.8 92.1ZM138.8 90.7L138.8 90.7Q139.4 90.7 139.9 90.3Q140.3 90.0 140.6 89.5Q140.8 88.9 140.8 88.0L140.8 88.0Q140.8 87.1 140.6 86.5Q140.3 86.0 139.9 85.6Q139.4 85.3 138.8 85.3L138.8 85.3Q138.2 85.3 137.7 85.7Q137.2 86.0 137.0 86.6Q136.7 87.1 136.7 88.0L136.7 88.0Q136.7 88.9 137.0 89.4Q137.2 90.0 137.7 90.3Q138.2 90.7 138.8 90.7ZM148.2 92.1L148.2 92.1Q147.2 92.1 146.5 91.8Q145.8 91.5 145.4 90.9Q145.0 90.4 145.0 89.5L145.0 89.5L146.6 89.5Q146.6 89.9 146.8 90.2Q147.0 90.5 147.4 90.6Q147.7 90.7 148.2 90.7L148.2 90.7Q148.6 90.7 148.9 90.6Q149.2 90.5 149.4 90.2Q149.6 90.0 149.6 89.7L149.6 89.7Q149.6 89.4 149.4 89.3Q149.3 89.1 149.0 88.9Q148.7 88.8 148.2 88.7L148.2 88.7L147.3 88.5Q146.3 88.2 145.8 87.7Q145.2 87.2 145.2 86.3L145.2 86.3Q145.2 85.6 145.6 85.0Q146.0 84.5 146.6 84.2Q147.3 83.9 148.2 83.9L148.2 83.9Q149.1 83.9 149.7 84.2Q150.4 84.5 150.8 85.0Q151.1 85.6 151.1 86.3L151.1 86.3L149.6 86.3Q149.5 85.8 149.2 85.5Q148.8 85.3 148.2 85.3L148.2 85.3Q147.8 85.3 147.5 85.4Q147.2 85.5 147.0 85.7Q146.9 85.9 146.9 86.2L146.9 86.2Q146.9 86.5 147.0 86.7Q147.2 86.9 147.5 87.0Q147.8 87.1 148.1 87.2L148.1 87.2L148.9 87.4Q149.4 87.5 149.8 87.7Q150.2 87.9 150.6 88.2Q150.9 88.4 151.1 88.8Q151.3 89.2 151.3 89.7L151.3 89.7Q151.3 90.4 150.9 91.0Q150.5 91.5 149.8 91.8Q149.1 92.1 148.2 92.1Z "/></g><defs><clipPath id="satori_bc-id-2" clip-path="url(#satori_cp-id)"><rect x="262" y="30" width="316" height="80"/></clipPath></defs><mask id="satori_om-id-2"><rect x="262" y="30" width="315" height="80" fill="#fff" mask="url(#satori_om-id)"/><path width="316" height="80" fill="none" stroke="#000" stroke-width="2" d="M578,30 A0,0 0 0 1 578,30 v80 A0,0 0 0 1 578,110"/></mask><path width="316" height="80" clip-path="url(#satori_bc-id-2)" fill="none" stroke="rgba(255,255,255,0.06)" stroke-width="2" d="M578,30 A0,0 0 0 1 578,30 v80 A0,0 0 0 1 578,110"/><mask id="satori_om-id-2-0"><rect x="391" y="46" width="57" height="30" fill="#fff" mask="url(#satori_om-id)"/></mask><g mask="url(#satori_om-id)" clip-path="url(#satori_cp-id)"><path fill="#a78bfa" d="M400.2 72.3L400.2 72.3Q398.0 72.3 396.2 71.5Q394.5 70.6 393.4 69.2Q392.4 67.7 392.4 65.9L392.4 65.9L396.7 65.9Q396.8 66.7 397.2 67.4Q397.7 68.0 398.5 68.4Q399.3 68.7 400.2 68.7L400.2 68.7Q401.3 68.7 402.1 68.3Q403.0 67.8 403.5 66.9Q403.9 66.0 403.9 64.9L403.9 64.9Q403.9 63.7 403.5 62.8Q403.0 61.9 402.1 61.4Q401.3 60.9 400.1 60.9L400.1 60.9Q399.1 60.9 398.2 61.3Q397.3 61.7 396.8 62.3L396.8 62.3L392.8 61.6L393.9 50.2L407.1 50.2L407.1 53.9L397.6 53.9L397.0 59.4L397.1 59.4Q397.7 58.6 398.9 58.1Q400.0 57.6 401.4 57.6L401.4 57.6Q402.9 57.6 404.2 58.1Q405.4 58.6 406.3 59.6Q407.3 60.5 407.8 61.9Q408.3 63.2 408.3 64.7L408.3 64.7Q408.3 66.9 407.3 68.6Q406.2 70.3 404.4 71.3Q402.6 72.3 400.2 72.3ZM419.0 72.3L419.0 72.3Q416.8 72.3 415.2 71.5Q413.5 70.6 412.5 69.2Q411.5 67.7 411.3 65.9L411.3 65.9L415.7 65.9Q415.9 67.1 416.8 67.8Q417.7 68.5 419.0 68.5L419.0 68.5Q420.4 68.5 421.4 67.6Q422.4 66.8 422.9 65.2Q423.4 63.6 423.4 61.5L423.4 61.5L423.3 61.5Q422.8 62.4 421.9 63.1Q421.1 63.8 420.0 64.1Q419.0 64.5 417.8 64.5L417.8 64.5Q415.8 64.5 414.3 63.6Q412.8 62.7 411.9 61.1Q411.0 59.5 411.0 57.5L411.0 57.5Q411.0 55.2 412.1 53.5Q413.1 51.8 414.9 50.8Q416.8 49.8 419.2 49.9L419.2 49.9Q420.8 49.9 422.4 50.4Q423.9 51.0 425.1 52.2Q426.3 53.5 427.1 55.5Q427.8 57.6 427.8 60.6L427.8 60.6Q427.8 63.3 427.2 65.5Q426.5 67.7 425.4 69.2Q424.2 70.7 422.6 71.5Q421.0 72.3 419.0 72.3ZM419.1 61.2L419.1 61.2Q419.9 61.2 420.6 60.9Q421.3 60.6 421.8 60.1Q422.4 59.5 422.7 58.8Q422.9 58.1 422.9 57.3L422.9 57.3Q422.9 56.3 422.5 55.4Q422.0 54.5 421.1 54.0Q420.3 53.4 419.2 53.4L419.2 53.4Q418.1 53.4 417.2 53.9Q416.4 54.5 415.9 55.4Q415.4 56.2 415.4 57.3L415.4 57.3Q415.4 58.4 415.9 59.3Q416.4 60.2 417.2 60.7Q418.1 61.2 419.1 61.2ZM438.3 72.3L438.3 72.3Q436.1 72.3 434.4 71.5Q432.6 70.6 431.6 69.2Q430.6 67.7 430.5 65.9L430.5 65.9L434.9 65.9Q434.9 66.7 435.4 67.4Q435.9 68.0 436.6 68.4Q437.4 68.7 438.3 68.7L438.3 68.7Q439.4 68.7 440.3 68.3Q441.1 67.8 441.6 66.9Q442.1 66.0 442.1 64.9L442.1 64.9Q442.1 63.7 441.6 62.8Q441.1 61.9 440.3 61.4Q439.4 60.9 438.3 60.9L438.3 60.9Q437.3 60.9 436.4 61.3Q435.5 61.7 435.0 62.3L435.0 62.3L431.0 61.6L432.0 50.2L445.2 50.2L445.2 53.9L435.7 53.9L435.2 59.4L435.3 59.4Q435.9 58.6 437.0 58.1Q438.2 57.6 439.6 57.6L439.6 57.6Q441.1 57.6 442.3 58.1Q443.6 58.6 444.5 59.6Q445.4 60.5 445.9 61.9Q446.4 63.2 446.4 64.7L446.4 64.7Q446.4 66.9 445.4 68.6Q444.4 70.3 442.6 71.3Q440.7 72.3 438.3 72.3Z "/></g><mask id="satori_om-id-2-1"><rect x="370" y="81" width="99" height="13" fill="#fff" mask="url(#satori_om-id)"/></mask><g mask="url(#satori_om-id)" clip-path="url(#satori_cp-id)"><path fill="rgba(200,220,255,0.45)" d="M372.1 92L370.3 92L373.0 84.0L375.1 84.0L377.9 92L376.1 92L375.5 90.1L372.7 90.1L372.1 92ZM373.1 88.9L375.1 88.9L374.8 88.1Q374.6 87.4 374.4 86.5L374.4 86.5Q374.2 85.9 374.1 85.3L374.1 85.3Q373.9 85.9 373.8 86.5L373.8 86.5Q373.5 87.4 373.3 88.1L373.3 88.1L373.1 88.9ZM383.9 92.1L383.9 92.1Q382.9 92.1 382.0 91.6Q381.2 91.1 380.7 90.2Q380.2 89.3 380.2 88.0L380.2 88.0Q380.2 86.7 380.7 85.8Q381.2 84.9 382.0 84.4Q382.9 83.9 383.9 83.9L383.9 83.9Q384.6 83.9 385.2 84.1Q385.8 84.3 386.2 84.6Q386.7 85.0 387.0 85.5Q387.3 86.1 387.4 86.7L387.4 86.7L385.7 86.7Q385.7 86.4 385.5 86.1Q385.4 85.9 385.1 85.7Q384.9 85.5 384.6 85.4Q384.3 85.3 384.0 85.3L384.0 85.3Q383.3 85.3 382.9 85.7Q382.4 86.0 382.1 86.6Q381.9 87.2 381.9 88.0L381.9 88.0Q381.9 88.9 382.1 89.5Q382.4 90.1 382.9 90.4Q383.3 90.7 384.0 90.7L384.0 90.7Q384.3 90.7 384.6 90.6Q384.9 90.5 385.1 90.3Q385.4 90.1 385.5 89.8Q385.7 89.6 385.7 89.3L385.7 89.3L387.4 89.3Q387.3 89.8 387.1 90.3Q386.8 90.8 386.3 91.2Q385.9 91.6 385.3 91.9Q384.7 92.1 383.9 92.1ZM393.6 92.1L393.6 92.1Q392.5 92.1 391.7 91.6Q390.8 91.1 390.3 90.2Q389.9 89.3 389.9 88.0L389.9 88.0Q389.9 86.7 390.3 85.8Q390.8 84.9 391.7 84.4Q392.5 83.9 393.6 83.9L393.6 83.9Q394.3 83.9 394.8 84.1Q395.4 84.3 395.9 84.6Q396.3 85.0 396.6 85.5Q396.9 86.1 397.0 86.7L397.0 86.7L395.4 86.7Q395.3 86.4 395.1 86.1Q395.0 85.9 394.8 85.7Q394.5 85.5 394.2 85.4Q393.9 85.3 393.6 85.3L393.6 85.3Q393.0 85.3 392.5 85.7Q392.0 86.0 391.8 86.6Q391.5 87.2 391.5 88.0L391.5 88.0Q391.5 88.9 391.8 89.5Q392.0 90.1 392.5 90.4Q393.0 90.7 393.6 90.7L393.6 90.7Q393.9 90.7 394.2 90.6Q394.5 90.5 394.8 90.3Q395.0 90.1 395.1 89.8Q395.3 89.6 395.4 89.3L395.4 89.3L397.0 89.3Q397.0 89.8 396.7 90.3Q396.4 90.8 396.0 91.2Q395.5 91.6 394.9 91.9Q394.3 92.1 393.6 92.1ZM403.2 92.1L403.2 92.1Q402.2 92.1 401.3 91.6Q400.5 91.1 400.0 90.2Q399.5 89.3 399.5 88.0L399.5 88.0Q399.5 86.7 400.0 85.8Q400.5 84.9 401.3 84.4Q402.2 83.9 403.2 83.9L403.2 83.9Q404.3 83.9 405.1 84.4Q406.0 84.9 406.5 85.8Q407.0 86.7 407.0 88.0L407.0 88.0Q407.0 89.3 406.5 90.2Q406.0 91.1 405.1 91.6Q404.3 92.1 403.2 92.1ZM403.2 90.7L403.2 90.7Q403.8 90.7 404.3 90.3Q404.8 90.0 405.0 89.5Q405.3 88.9 405.3 88.0L405.3 88.0Q405.3 87.1 405.0 86.5Q404.8 86.0 404.3 85.6Q403.8 85.3 403.2 85.3L403.2 85.3Q402.6 85.3 402.1 85.7Q401.7 86.0 401.4 86.6Q401.2 87.1 401.2 88.0L401.2 88.0Q401.2 88.9 401.4 89.4Q401.7 90.0 402.1 90.3Q402.6 90.7 403.2 90.7ZM413.0 92.1L413.0 92.1Q412.0 92.1 411.3 91.7Q410.5 91.4 410.1 90.7Q409.7 90.1 409.7 89.2L409.7 89.2L409.7 84.0L411.3 84.0L411.3 89.1Q411.3 89.5 411.5 89.9Q411.7 90.2 412.1 90.5Q412.5 90.7 413.0 90.7L413.0 90.7Q413.5 90.7 413.9 90.5Q414.2 90.2 414.4 89.9Q414.7 89.5 414.7 89.1L414.7 89.1L414.7 84.0L416.3 84.0L416.3 89.2Q416.3 90.1 415.9 90.7Q415.5 91.4 414.7 91.7Q414.0 92.1 413.0 92.1ZM420.9 92L419.2 92L419.2 84.0L421.1 84.0L423.6 88.0Q423.8 88.4 424.0 88.7Q424.2 89.1 424.4 89.5L424.4 89.5Q424.5 89.8 424.6 90.0L424.6 90.0Q424.6 89.8 424.6 89.6L424.6 89.6Q424.5 89.1 424.5 88.6Q424.5 88.2 424.5 87.8L424.5 87.8L424.5 84.0L426.2 84.0L426.2 92L424.3 92L422.0 88.3Q421.8 87.9 421.6 87.5Q421.4 87.1 421.1 86.7L421.1 86.7Q421.0 86.4 420.8 86.0L420.8 86.0Q420.8 86.3 420.8 86.7L420.8 86.7Q420.9 87.2 420.9 87.6Q420.9 88.0 420.9 88.3L420.9 88.3L420.9 92ZM431.3 85.4L428.8 85.4L428.8 84.0L435.3 84.0L435.3 85.4L432.9 85.4L432.9 92L431.3 92L431.3 85.4Z M443.4 92L441.6 92L444.3 84.0L446.5 84.0L449.3 92L447.5 92L446.9 90.1L444.0 90.1L443.4 92ZM444.4 88.9L446.4 88.9L446.2 88.1Q446.0 87.4 445.7 86.5L445.7 86.5Q445.6 85.9 445.4 85.3L445.4 85.3Q445.2 85.9 445.1 86.5L445.1 86.5Q444.9 87.4 444.7 88.1L444.7 88.1L444.4 88.9ZM455.3 92.1L455.3 92.1Q454.2 92.1 453.4 91.6Q452.5 91.1 452.0 90.2Q451.6 89.3 451.6 88.0L451.6 88.0Q451.6 86.7 452.1 85.8Q452.6 84.9 453.4 84.4Q454.2 83.9 455.3 83.9L455.3 83.9Q456.0 83.9 456.5 84.1Q457.1 84.3 457.6 84.6Q458.0 85.0 458.3 85.5Q458.6 86.0 458.7 86.6L458.7 86.6L457.0 86.6Q456.9 86.3 456.8 86.1Q456.6 85.8 456.4 85.7Q456.2 85.5 455.9 85.4Q455.6 85.3 455.3 85.3L455.3 85.3Q454.7 85.3 454.2 85.7Q453.8 86.0 453.5 86.6Q453.2 87.1 453.2 88.0Q453.2 88.8 453.5 89.4Q453.7 90.0 454.2 90.3Q454.7 90.7 455.3 90.7L455.3 90.7Q455.9 90.7 456.3 90.4Q456.7 90.2 457.0 89.8L457.0 89.8Q457.2 89.5 457.2 89.0L457.2 89.0L455.5 89.0L455.5 87.7L458.8 87.7L458.8 88.7Q458.8 89.8 458.3 90.5Q457.9 91.3 457.1 91.7Q456.3 92.1 455.3 92.1ZM466.9 92L461.5 92L461.5 84.0L466.9 84.0L466.9 85.4L463.2 85.4L463.2 87.3L466.6 87.3L466.6 88.6L463.2 88.6L463.2 90.6L466.9 90.6L466.9 92Z "/></g><mask id="satori_om-id-3"><rect x="578" y="30" width="281" height="80" fill="#fff" mask="url(#satori_om-id)"/></mask><mask id="satori_om-id-3-0"><rect x="700" y="46" width="38" height="30" fill="#fff" mask="url(#satori_om-id)"/></mask><g mask="url(#satori_om-id)" clip-path="url(#satori_cp-id)"><path fill="#34d399" d="M709.2 72.3L709.2 72.3Q707.0 72.3 705.2 71.5Q703.5 70.6 702.4 69.2Q701.4 67.7 701.4 65.9L701.4 65.9L705.7 65.9Q705.8 66.7 706.2 67.4Q706.7 68.0 707.5 68.4Q708.3 68.7 709.2 68.7L709.2 68.7Q710.3 68.7 711.1 68.3Q712.0 67.8 712.5 66.9Q712.9 66.0 712.9 64.9L712.9 64.9Q712.9 63.7 712.5 62.8Q712.0 61.9 711.1 61.4Q710.3 60.9 709.1 60.9L709.1 60.9Q708.1 60.9 707.2 61.3Q706.3 61.7 705.8 62.3L705.8 62.3L701.8 61.6L702.9 50.2L716.1 50.2L716.1 53.9L706.6 53.9L706.0 59.4L706.1 59.4Q706.7 58.6 707.9 58.1Q709.0 57.6 710.4 57.6L710.4 57.6Q711.9 57.6 713.2 58.1Q714.4 58.6 715.3 59.6Q716.3 60.5 716.8 61.9Q717.3 63.2 717.3 64.7L717.3 64.7Q717.3 66.9 716.3 68.6Q715.2 70.3 713.4 71.3Q711.6 72.3 709.2 72.3ZM727.9 72.3L727.9 72.3Q725.6 72.3 723.9 71.5Q722.1 70.6 721.1 69.2Q720.1 67.7 720.0 65.9L720.0 65.9L724.4 65.9Q724.4 66.7 724.9 67.4Q725.4 68.0 726.2 68.4Q726.9 68.7 727.9 68.7L727.9 68.7Q729.0 68.7 729.8 68.3Q730.6 67.8 731.1 66.9Q731.6 66.0 731.6 64.9L731.6 64.9Q731.6 63.7 731.1 62.8Q730.6 61.9 729.8 61.4Q728.9 60.9 727.8 60.9L727.8 60.9Q726.8 60.9 725.9 61.3Q725.0 61.7 724.5 62.3L724.5 62.3L720.5 61.6L721.5 50.2L734.7 50.2L734.7 53.9L725.2 53.9L724.7 59.4L724.8 59.4Q725.4 58.6 726.5 58.1Q727.7 57.6 729.1 57.6L729.1 57.6Q730.6 57.6 731.8 58.1Q733.1 58.6 734.0 59.6Q734.9 60.5 735.4 61.9Q735.9 63.2 735.9 64.7L735.9 64.7Q735.9 66.9 734.9 68.6Q733.9 70.3 732.1 71.3Q730.3 72.3 727.9 72.3Z "/></g><mask id="satori_om-id-3-1"><rect x="686" y="81" width="66" height="13" fill="#fff" mask="url(#satori_om-id)"/></mask><g mask="url(#satori_om-id)" clip-path="url(#satori_cp-id)"><path fill="rgba(200,220,255,0.45)" d="M690.2 92.1L690.2 92.1Q689.2 92.1 688.3 91.6Q687.5 91.1 687.0 90.2Q686.5 89.3 686.5 88.0L686.5 88.0Q686.5 86.7 687.0 85.8Q687.5 84.9 688.3 84.4Q689.2 83.9 690.2 83.9L690.2 83.9Q690.9 83.9 691.5 84.1Q692.1 84.3 692.5 84.6Q693.0 85.0 693.3 85.5Q693.6 86.1 693.7 86.7L693.7 86.7L692.0 86.7Q692.0 86.4 691.8 86.1Q691.6 85.9 691.4 85.7Q691.2 85.5 690.9 85.4Q690.6 85.3 690.3 85.3L690.3 85.3Q689.6 85.3 689.2 85.7Q688.7 86.0 688.4 86.6Q688.2 87.2 688.2 88.0L688.2 88.0Q688.2 88.9 688.4 89.5Q688.7 90.1 689.2 90.4Q689.6 90.7 690.2 90.7L690.2 90.7Q690.6 90.7 690.9 90.6Q691.2 90.5 691.4 90.3Q691.6 90.1 691.8 89.8Q692.0 89.6 692.0 89.3L692.0 89.3L693.7 89.3Q693.6 89.8 693.3 90.3Q693.1 90.8 692.6 91.2Q692.2 91.6 691.6 91.9Q691.0 92.1 690.2 92.1ZM699.9 92.1L699.9 92.1Q698.8 92.1 698.0 91.6Q697.1 91.1 696.6 90.2Q696.1 89.3 696.1 88.0L696.1 88.0Q696.1 86.7 696.6 85.8Q697.1 84.9 698.0 84.4Q698.8 83.9 699.9 83.9L699.9 83.9Q700.9 83.9 701.8 84.4Q702.6 84.9 703.1 85.8Q703.6 86.7 703.6 88.0L703.6 88.0Q703.6 89.3 703.1 90.2Q702.6 91.1 701.8 91.6Q700.9 92.1 699.9 92.1ZM699.9 90.7L699.9 90.7Q700.5 90.7 701.0 90.3Q701.4 90.0 701.7 89.5Q701.9 88.9 701.9 88.0L701.9 88.0Q701.9 87.1 701.7 86.5Q701.4 86.0 701.0 85.6Q700.5 85.3 699.9 85.3L699.9 85.3Q699.3 85.3 698.8 85.7Q698.3 86.0 698.1 86.6Q697.8 87.1 697.8 88.0L697.8 88.0Q697.8 88.9 698.1 89.4Q698.3 90.0 698.8 90.3Q699.3 90.7 699.9 90.7ZM708.0 92L706.3 92L706.3 84.0L708.9 84.0L710.2 87.7Q710.2 87.9 710.3 88.3Q710.4 88.7 710.5 89.2L710.5 89.2Q710.7 89.7 710.7 90.1L710.7 90.1Q710.8 89.7 710.9 89.2L710.9 89.2Q711.0 88.8 711.2 88.3Q711.3 87.9 711.3 87.7L711.3 87.7L712.6 84.0L715.1 84.0L715.1 92L713.5 92L713.5 88.2Q713.5 88.0 713.5 87.6Q713.5 87.2 713.5 86.7Q713.5 86.3 713.5 85.8L713.5 85.8Q713.6 85.6 713.6 85.4L713.6 85.4Q713.5 85.6 713.4 85.9L713.4 85.9Q713.3 86.3 713.2 86.8Q713.1 87.2 712.9 87.6Q712.8 88.0 712.8 88.2L712.8 88.2L711.4 92L710.0 92L708.7 88.2Q708.6 88.0 708.5 87.6Q708.4 87.2 708.3 86.8Q708.1 86.4 708.0 85.9L708.0 85.9Q708.0 85.7 707.9 85.5L707.9 85.5Q707.9 85.6 707.9 85.8L707.9 85.8Q707.9 86.2 707.9 86.7Q707.9 87.2 708.0 87.6Q708.0 88.0 708.0 88.2L708.0 88.2L708.0 92ZM719.7 92L718.1 92L718.1 84.0L720.6 84.0L721.9 87.7Q722.0 87.9 722.1 88.3Q722.2 88.7 722.3 89.2L722.3 89.2Q722.4 89.7 722.5 90.1L722.5 90.1Q722.6 89.7 722.7 89.2L722.7 89.2Q722.8 88.8 722.9 88.3Q723.0 87.9 723.1 87.7L723.1 87.7L724.4 84.0L726.9 84.0L726.9 92L725.2 92L725.2 88.2Q725.2 88.0 725.2 87.6Q725.3 87.2 725.3 86.7Q725.3 86.3 725.3 85.8L725.3 85.8Q725.3 85.6 725.3 85.4L725.3 85.4Q725.2 85.6 725.2 85.9L725.2 85.9Q725.1 86.3 724.9 86.8Q724.8 87.2 724.7 87.6Q724.6 88.0 724.5 88.2L724.5 88.2L723.2 92L721.8 92L720.4 88.2Q720.4 88.0 720.3 87.6Q720.1 87.2 720.0 86.8Q719.9 86.4 719.8 85.9L719.8 85.9Q719.7 85.7 719.7 85.5L719.7 85.5Q719.7 85.6 719.7 85.8L719.7 85.8Q719.7 86.2 719.7 86.7Q719.7 87.2 719.7 87.6Q719.7 88.0 719.7 88.2L719.7 88.2L719.7 92ZM729.8 84.0L731.5 84.0L731.5 92L729.8 92L729.8 84.0ZM736.5 85.4L734.1 85.4L734.1 84.0L740.6 84.0L740.6 85.4L738.2 85.4L738.2 92L736.5 92L736.5 85.4ZM746.2 92.1L746.2 92.1Q745.2 92.1 744.5 91.8Q743.8 91.5 743.4 90.9Q743.0 90.4 743.0 89.5L743.0 89.5L744.6 89.5Q744.6 89.9 744.8 90.2Q745.0 90.5 745.4 90.6Q745.7 90.7 746.2 90.7L746.2 90.7Q746.6 90.7 746.9 90.6Q747.3 90.5 747.5 90.2Q747.6 90.0 747.6 89.7L747.6 89.7Q747.6 89.4 747.5 89.3Q747.3 89.1 747.0 88.9Q746.7 88.8 746.3 88.7L746.3 88.7L745.4 88.5Q744.4 88.2 743.8 87.7Q743.2 87.2 743.2 86.3L743.2 86.3Q743.2 85.6 743.6 85.0Q744.0 84.5 744.7 84.2Q745.3 83.9 746.2 83.9L746.2 83.9Q747.1 83.9 747.8 84.2Q748.4 84.5 748.8 85.0Q749.2 85.6 749.2 86.3L749.2 86.3L747.6 86.3Q747.6 85.8 747.2 85.5Q746.8 85.3 746.2 85.3L746.2 85.3Q745.8 85.3 745.5 85.4Q745.2 85.5 745.0 85.7Q744.9 85.9 744.9 86.2L744.9 86.2Q744.9 86.5 745.1 86.7Q745.2 86.9 745.5 87.0Q745.8 87.1 746.2 87.2L746.2 87.2L746.9 87.4Q747.4 87.5 747.8 87.7Q748.3 87.9 748.6 88.2Q748.9 88.4 749.1 88.8Q749.3 89.2 749.3 89.7L749.3 89.7Q749.3 90.4 748.9 91.0Q748.6 91.5 747.9 91.8Q747.2 92.1 746.2 92.1Z "/></g></svg>