<!-- Generated by readme-aura https://github.com/collectioneur/readme-aura -->
<svg width="120" height="44" viewBox="0 0 120 44" xmlns="http://www.w3.org/2000/svg"><mask id="satori_om-id"><rect x="0" y="0" width="120" height="44" fill="#fff"/></mask><path x="0" y="0" width="120" height="44" fill="#000000" d="M22,0 h76 a22,22 0 0 1 22,22 v0 a22,22 0 0 1 -22,22 h-76 a22,22 0 0 1 -22,-22 v0 a22,22 0 0 1 22,-22"/><clipPath id="satori_cp-id-0"><rect x="0" y="0" width="120" height="44"/></clipPath><mask id="satori_om-id-0"><rect x="0" y="0" width="120" height="44" fill="#fff"/></mask><svg x="0" y="0" width="120" height="44" preserveAspectRatio="none" clip-path="url(#satori_cp-id-0)" mask="url(#satori_om-id-0)"><defs><linearGradient id="smb-grad-Resume" gradientUnits="objectBoundingBox" x1="0" y1="0" x2="1" y2="1"><stop offset="0%" stop-color="#34d399"></stop><stop offset="30%" stop-color="#000000"></stop><stop offset="60%" stop-color="#10b981"></stop><stop offset="80%" stop-color="#000000"></stop><stop offset="100%" stop-color="#047857"></stop><animateTransform attributeName="gradientTransform" type="rotate" from="0 0.5 0.5" to="360 0.5 0.5" dur="8s" repeatCount="indefinite"></animateTransform></linearGradient></defs><rect x="1.25" y="1.25" width="117.5" height="41.5" rx="20.75" ry="20.75" fill="none" stroke="url(#smb-grad-Resume)" stroke-width="2" stroke-linecap="round" stroke-linejoin="round"></rect><rect x="0.25" y="0.25" width="119.5" height="43.5" rx="21.75" ry="21.75" fill="none" stroke="#AAAAAA" stroke-width="0.5" stroke-linecap="round" stroke-linejoin="round"></rect></svg><mask id="satori_om-id-0-0"><rect x="0" y="0" width="0" height="44" fill="#fff"/></mask><mask id="satori_om-id-0-0-0"><rect x="0" y="0" width="0" height="44" fill="#fff"/></mask><mask id="satori_om-id-0-0-0-0"><rect x="0" y="0" width="0" height="44" fill="#fff"/></mask><mask id="satori_om-id-0-0-0-1"><rect x="0" y="0" width="0" height="44" fill="#fff"/></mask><mask id="satori_om-id-0-0-0-2"><rect x="0" y="0" width="0" height="44" fill="#fff"/></mask><mask id="satori_om-id-0-0-0-3"><rect x="0" y="0" width="0" height="44" fill="#fff"/></mask><mask id="satori_om-id-0-0-0-4"><rect x="0" y="0" width="0" height="44" fill="#fff"/></mask><mask id="satori_om-id-0-0-0-5"><rect x="0" y="0" width="0" height="44" fill="#fff"/></mask><mask id="satori_om-id-0-1"><rect x="0" y="0" width="0" height="44" fill="#fff"/></mask><mask id="satori_om-id-0-2"><rect x="0" y="0" width="0" height="44" fill="#fff"/></mask><mask id="satori_om-id-1"><rect x="0" y="0" width="120" height="44" fill="#fff"/></mask><mask id="satori_om-id-1-0"><rect x="23" y="13" width="18" height="18" fill="#fff"/></mask><mask id="satori_om-id-1-1"><rect x="46" y="14" width="51" height="16" fill="#fff"/></mask><g  ><path fill="#f5f5f5" d="M48.8 27L46.9 27L46.9 17.5L50.5 17.5Q51.6 17.5 52.4 17.9Q53.1 18.3 53.5 19.0Q53.9 19.7 53.9 20.6Q53.9 21.6 53.5 22.2Q53.1 22.9 52.4 23.3L52.4 23.3Q52.3 23.3 52.3 23.3L52.3 23.3L54.3 27L52.1 27L50.3 23.6L48.8 23.6L48.8 27ZM48.8 19.1L48.8 22.1L50.2 22.1Q50.8 22.1 51.2 21.9Q51.5 21.7 51.7 21.4Q51.9 21.1 51.9 20.6L51.9 20.6Q51.9 20.1 51.7 19.8Q51.5 19.5 51.2 19.3Q50.8 19.1 50.2 19.1L50.2 19.1L48.8 19.1ZM58.4 27.1L58.4 27.1Q57.3 27.1 56.5 26.7Q55.7 26.3 55.3 25.4Q54.9 24.6 54.9 23.5L54.9 23.5Q54.9 22.4 55.3 21.6Q55.7 20.7 56.5 20.3Q57.2 19.8 58.3 19.8L58.3 19.8Q59.0 19.8 59.6 20.0Q60.2 20.3 60.6 20.7Q61.1 21.2 61.3 21.8Q61.6 22.5 61.6 23.4L61.6 23.4L61.6 23.9L56.7 23.9Q56.8 24.5 56.9 24.9L56.9 24.9Q57.1 25.3 57.5 25.5Q57.9 25.7 58.4 25.7L58.4 25.7Q58.7 25.7 59.0 25.6Q59.3 25.5 59.5 25.3Q59.7 25.1 59.8 24.9L59.8 24.9L61.5 25.2Q61.3 25.8 60.9 26.2Q60.5 26.7 59.8 26.9Q59.2 27.1 58.4 27.1ZM56.7 22.8L56.7 22.8L59.8 22.8Q59.7 22.4 59.6 22.1L59.6 22.1Q59.4 21.7 59.1 21.5Q58.8 21.2 58.3 21.2L58.3 21.2Q57.8 21.2 57.4 21.5Q57.1 21.7 56.9 22.1L56.9 22.1Q56.8 22.4 56.7 22.8ZM65.5 27.1L65.5 27.1Q64.7 27.1 64.0 26.9Q63.3 26.7 62.9 26.2Q62.5 25.7 62.4 25.1L62.4 25.1L64.1 24.8Q64.3 25.2 64.6 25.5Q65.0 25.7 65.6 25.7L65.6 25.7Q66.1 25.7 66.4 25.5Q66.7 25.3 66.7 25.0L66.7 25.0Q66.7 24.7 66.5 24.6Q66.3 24.4 65.8 24.3L65.8 24.3L64.6 24.0Q63.6 23.8 63.1 23.3Q62.6 22.8 62.6 22.0L62.6 22.0Q62.6 21.3 62.9 20.8Q63.3 20.3 64.0 20.1Q64.6 19.8 65.5 19.8L65.5 19.8Q66.4 19.8 67.0 20.0Q67.6 20.3 68.0 20.7Q68.4 21.1 68.5 21.7L68.5 21.7L66.8 22.0Q66.7 21.6 66.4 21.4Q66.1 21.2 65.6 21.2L65.6 21.2Q65.1 21.2 64.8 21.4Q64.5 21.6 64.5 21.9L64.5 21.9Q64.5 22.2 64.7 22.4Q64.9 22.5 65.4 22.6L65.4 22.6L66.7 22.9Q67.7 23.1 68.2 23.6Q68.7 24.0 68.7 24.8L68.7 24.8Q68.7 25.5 68.3 26.0Q67.9 26.6 67.2 26.8Q66.4 27.1 65.5 27.1ZM72.2 27.1L72.2 27.1Q71.5 27.1 70.9 26.8Q70.4 26.4 70.1 25.8Q69.8 25.2 69.8 24.4L69.8 24.4L69.8 19.9L71.7 19.9L71.7 24.1Q71.7 24.7 72.0 25.1Q72.4 25.5 73.0 25.5L73.0 25.5Q73.4 25.5 73.7 25.3Q74.0 25.1 74.2 24.8Q74.3 24.5 74.3 24.0L74.3 24.0L74.3 19.9L76.2 19.9L76.2 27L74.4 27L74.4 25.5Q74.2 26.2 73.7 26.6L73.7 26.6Q73.1 27.1 72.2 27.1ZM79.6 27L77.7 27L77.7 19.9L79.4 19.9L79.5 21.3Q79.7 20.9 79.9 20.6L79.9 20.6Q80.2 20.2 80.6 20.0Q81.1 19.8 81.5 19.8L81.5 19.8Q82.3 19.8 82.8 20.3L82.8 20.3Q83.1 20.7 83.4 21.4L83.4 21.4Q83.5 21.0 83.8 20.7L83.8 20.7Q84.1 20.2 84.6 20.0Q85.1 19.8 85.6 19.8L85.6 19.8Q86.3 19.8 86.8 20.1Q87.3 20.4 87.6 20.9Q87.9 21.4 87.9 22.2L87.9 22.2L87.9 27L86.0 27L86.0 22.6Q86.0 22.0 85.7 21.7Q85.3 21.4 84.9 21.4L84.9 21.4Q84.5 21.4 84.3 21.5Q84.0 21.7 83.8 22.0Q83.7 22.3 83.7 22.6L83.7 22.6L83.7 27L81.9 27L81.9 22.5Q81.9 22.0 81.6 21.7Q81.2 21.4 80.8 21.4L80.8 21.4Q80.4 21.4 80.2 21.5Q79.9 21.7 79.7 22.0Q79.6 22.3 79.6 22.7L79.6 22.7L79.6 27ZM92.5 27.1L92.5 27.1Q91.5 27.1 90.7 26.7Q89.9 26.3 89.5 25.4Q89.0 24.6 89.0 23.5L89.0 23.5Q89.0 22.4 89.5 21.6Q89.9 20.7 90.6 20.3Q91.4 19.8 92.4 19.8L92.4 19.8Q93.1 19.8 93.7 20.0Q94.3 20.3 94.8 20.7Q95.3 21.2 95.5 21.8Q95.8 22.5 95.8 23.4L95.8 23.4L95.8 23.9L90.9 23.9Q90.9 24.5 91.1 24.9L91.1 24.9Q91.3 25.3 91.7 25.5Q92.1 25.7 92.6 25.7L92.6 25.7Q92.9 25.7 93.2 25.6Q93.5 25.5 93.6 25.3Q93.8 25.1 93.9 24.9L93.9 24.9L95.7 25.2Q95.5 25.8 95.1 26.2Q94.6 26.7 94.0 26.9Q93.4 27.1 92.5 27.1ZM90.9 22.8L90.9 22.8L93.9 22.8Q93.9 22.4 93.8 22.1L93.8 22.1Q93.6 21.7 93.3 21.5Q93.0 21.2 92.5 21.2L92.5 21.2Q92.0 21.2 91.6 21.5Q91.3 21.7 91.1 22.1L91.1 22.1Q91.0 22.4 90.9 22.8Z "/></g></svg>