<!-- Generated by readme-aura https://github.com/collectioneur/readme-aura -->
<svg width="860" height="140" viewBox="0 0 860 140" xmlns="http://www.w3.org/2000/svg"><defs><clipPath id="satori_bc-id"><path x="0" y="0" width="860" height="140" d="M16,0 h828 a16,16 0 0 1 16,16 v108 a16,16 0 0 1 -16,16 h-828 a16,16 0 0 1 -16,-16 v-108 a16,16 0 0 1 16,-16"/></clipPath></defs><clipPath id="satori_cp-id"><path x="0" y="0" width="860" height="140" d="M16,0 h828 a16,16 0 0 1 16,16 v108 a16,16 0 0 1 -16,16 h-828 a16,16 0 0 1 -16,-16 v-108 a16,16 0 0 1 16,-16"/></clipPath><mask id="satori_om-id"><rect x="1" y="1" width="858" height="138" fill="#fff"/><path width="860" height="140" fill="none" stroke="#000" stroke-width="2" d="M4.686,4.686 A16,16 0 0 1 16,0 h828 a16,16 0 0 1 16,16 v108 a16,16 0 0 1 -16,16 h-828 a16,16 0 0 1 -16,-16 v-108 A16,16 0 0 1 4.686,4.686"/></mask><path x="0" y="0" width="860" height="140" fill="#08080c" d="M16,0 h828 a16,16 0 0 1 16,16 v108 a16,16 0 0 1 -16,16 h-828 a16,16 0 0 1 -16,-16 v-108 a16,16 0 0 1 16,-16"/><path width="860" height="140" clip-path="url(#satori_bc-id)" fill="none" stroke="rgba(0,185,240,0.18)" stroke-width="2" d="M4.686,4.686 A16,16 0 0 1 16,0 h828 a16,16 0 0 1 16,16 v108 a16,16 0 0 1 -16,16 h-828 a16,16 0 0 1 -16,-16 v-108 A16,16 0 0 1 4.686,4.686"/><clipPath id="satori_cp-id-0" clip-path="url(#satori_cp-id)"><rect x="1" y="1" width="860" height="140"/></clipPath><mask id="satori_om-id-0"><rect x="1" y="1" width="860" height="140" fill="#fff" mask="url(#satori_om-id)"/></mask><svg x="1" y="1" width="860" height="140" preserveAspectRatio="none" clip-path="url(#satori_cp-id-0)" mask="url(#satori_om-id-0)"><defs><radialGradient id="g1" cx="50%" cy="50%" r="50%"><stop offset="0%" stop-color="rgba(0,185,240,0.60)"></stop><stop offset="45%" stop-color="rgba(0,140,210,0.25)"></stop><stop offset="70%" stop-color="rgba(0,140,210,0)"></stop></radialGradient><radialGradient id="g2" cx="50%" cy="50%" r="50%"><stop offset="0%" stop-color="rgba(110,20,210,0.65)"></stop><stop offset="45%" stop-color="rgba(80,15,170,0.28)"></stop><stop offset="70%" stop-color="rgba(80,15,170,0)"></stop></radialGradient><radialGradient id="g3" cx="50%" cy="50%" r="50%"><stop offset="0%" stop-color="rgba(40,70,255,0.55)"></stop><stop offset="70%" stop-color="rgba(20,50,200,0)"></stop></radialGradient><radialGradient id="g4" cx="50%" cy="50%" r="50%"><stop offset="0%" stop-color="rgba(0,195,235,0.30)"></stop><stop offset="70%" stop-color="rgba(0,195,235,0)"></stop></radialGradient><radialGradient id="g5" cx="50%" cy="50%" r="50%"><stop offset="0%" stop-color="rgba(100,30,210,0.40)"></stop><stop offset="70%" stop-color="rgba(100,30,210,0)"></stop></radialGradient></defs><ellipse id="glow-1" cx="710" cy="150" rx="210" ry="150" fill="url(#g1)"></ellipse><ellipse id="glow-2" cx="550" cy="140" rx="190" ry="140" fill="url(#g2)"></ellipse><ellipse id="glow-3" cx="400" cy="130" rx="170" ry="130" fill="url(#g3)"></ellipse><ellipse id="glow-4" cx="250" cy="140" rx="150" ry="120" fill="url(#g4)"></ellipse><ellipse id="glow-5" cx="100" cy="150" rx="130" ry="110" fill="url(#g5)"></ellipse><style>

         @keyframes float-slow {
           0%, 100% { transform: translateX(0px); opacity: 0.8; }
           50% { transform: translateX(350px); opacity: 1.2; }
         }
         @keyframes float-medium {
           0%, 100% { transform: translateX(0px); opacity: 0.7; }
           50% { transform: translateX(-250px); opacity: 1.1; }
         }
         @keyframes float-fast {
           0%, 100% { transform: translateX(0px); opacity: 0.9; }
           50% { transform: translateX(200px); opacity: 0.6; }
         }
         @keyframes float-diagonal {
           0%, 100% { transform: translate(0px, 0px); opacity: 0.75; }
           50% { transform: translate(120px, 30px); opacity: 1.0; }
         }
         @keyframes float-wave {
           0%, 100% { transform: translateX(0px); opacity: 0.65; }
           33% { transform: translateX(-160px); opacity: 0.9; }
           66% { transform: translateX(80px); opacity: 1.0; }
         }
         #glow-1 { animation: float-slow 8s ease-in-out infinite; }
         #glow-2 { animation: float-medium 12s ease-in-out infinite; }
         #glow-3 { animation: float-fast 9s ease-in-out infinite; }
         #glow-4 { animation: float-diagonal 10s ease-in-out infinite; }
         #glow-5 { animation: float-wave 14s ease-in-out infinite; }
       
</style>
</svg><mask id="satori_om-id-0-0"><rect x="1" y="1" width="0" height="140" fill="#fff" mask="url(#satori_om-id)"/></mask><mask id="satori_om-id-0-0-0"><rect x="1" y="1" width="0" height="140" fill="#fff" mask="url(#satori_om-id)"/></mask><mask id="satori_om-id-0-0-0-0"><rect x="1" y="1" width="0" height="140" fill="#fff" mask="url(#satori_om-id)"/></mask><mask id="satori_om-id-0-0-0-1"><rect x="1" y="1" width="0" height="140" fill="#fff" mask="url(#satori_om-id)"/></mask><mask id="satori_om-id-0-0-0-2"><rect x="1" y="1" width="0" height="140" fill="#fff" mask="url(#satori_om-id)"/></mask><mask id="satori_om-id-0-0-1"><rect x="1" y="1" width="0" height="140" fill="#fff" mask="url(#satori_om-id)"/></mask><mask id="satori_om-id-0-0-1-0"><rect x="1" y="1" width="0" height="140" fill="#fff" mask="url(#satori_om-id)"/></mask><mask id="satori_om-id-0-0-1-1"><rect x="1" y="1" width="0" height="140" fill="#fff" mask="url(#satori_om-id)"/></mask><mask id="satori_om-id-0-0-1-2"><rect x="1" y="1" width="0" height="140" fill="#fff" mask="url(#satori_om-id)"/></mask><mask id="satori_om-id-0-0-2"><rect x="1" y="1" width="0" height="140" fill="#fff" mask="url(#satori_om-id)"/></mask><mask id="satori_om-id-0-0-2-0"><rect x="1" y="1" width="0" height="140" fill="#fff" mask="url(#satori_om-id)"/></mask><mask id="satori_om-id-0-0-2-1"><rect x="1" y="1" width="0" height="140" fill="#fff" mask="url(#satori_om-id)"/></mask><mask id="satori_om-id-0-0-3"><rect x="1" y="1" width="0" height="140" fill="#fff" mask="url(#satori_om-id)"/></mask><mask id="satori_om-id-0-0-3-0"><rect x="1" y="1" width="0" height="140" fill="#fff" mask="url(#satori_om-id)"/></mask><mask id="satori_om-id-0-0-3-1"><rect x="1" y="1" width="0" height="140" fill="#fff" mask="url(#satori_om-id)"/></mask><mask id="satori_om-id-0-0-4"><rect x="1" y="1" width="0" height="140" fill="#fff" mask="url(#satori_om-id)"/></mask><mask id="satori_om-id-0-0-4-0"><rect x="1" y="1" width="0" height="140" fill="#fff" mask="url(#satori_om-id)"/></mask><mask id="satori_om-id-0-0-4-1"><rect x="1" y="1" width="0" height="140" fill="#fff" mask="url(#satori_om-id)"/></mask><mask id="satori_om-id-0-1"><rect x="1" y="1" width="0" height="140" fill="#fff" mask="url(#satori_om-id)"/></mask><mask id="satori_om-id-0-2"><rect x="1" y="1" width="0" height="140" fill="#fff" mask="url(#satori_om-id)"/></mask><mask id="satori_om-id-0-3"><rect x="1" y="1" width="0" height="140" fill="#fff" mask="url(#satori_om-id)"/></mask><mask id="satori_om-id-0-4"><rect x="1" y="1" width="0" height="140" fill="#fff" mask="url(#satori_om-id)"/></mask><mask id="satori_om-id-0-5"><rect x="1" y="1" width="0" height="140" fill="#fff" mask="url(#satori_om-id)"/></mask><defs><clipPath id="satori_bc-id-1" clip-path="url(#satori_cp-id)"><rect x="1" y="30" width="263" height="80"/></clipPath></defs><mask id="satori_om-id-1"><rect x="1" y="30" width="262" height="80" fill="#fff" mask="url(#satori_om-id)"/><path width="263" height="80" fill="none" stroke="#000" stroke-width="2" d="M264,30 A0,0 0 0 1 264,30 v80 A0,0 0 0 1 264,110"/></mask><path width="263" height="80" clip-path="url(#satori_bc-id-1)" fill="none" stroke="rgba(255,255,255,0.06)" stroke-width="2" d="M264,30 A0,0 0 0 1 264,30 v80 A0,0 0 0 1 264,110"/><mask id="satori_om-id-1-0"><rect x="122" y="46" width="20" height="30" fill="#fff" mask="url(#satori_om-id)"/></mask><g mask="url(#satori_om-id)" clip-path="url(#satori_cp-id)"><path fill="#60a5fa" d="M131.8 72.3L131.8 72.3Q129.3 72.3 127.4 71.5Q125.5 70.7 124.5 69.3Q123.4 67.9 123.4 66.1L123.4 66.1Q123.4 64.8 124.0 63.6Q124.6 62.5 125.7 61.7Q126.7 60.9 128.1 60.7L128.1 60.7L128.1 60.6Q126.3 60.2 125.3 58.9Q124.2 57.5 124.2 55.7L124.2 55.7Q124.2 54.1 125.1 52.7Q126.1 51.4 127.8 50.6Q129.6 49.9 131.8 49.9L131.8 49.9Q133.9 49.9 135.7 50.6Q137.4 51.4 138.4 52.7Q139.4 54.1 139.4 55.7L139.4 55.7Q139.4 57.5 138.3 58.9Q137.2 60.2 135.5 60.6L135.5 60.6L135.5 60.7Q136.8 60.9 137.8 61.7Q138.9 62.5 139.5 63.6Q140.2 64.8 140.2 66.1L140.2 66.1Q140.2 67.9 139.1 69.3Q138.0 70.7 136.1 71.5Q134.2 72.3 131.8 72.3ZM131.8 69.0L131.8 69.0Q132.9 69.0 133.7 68.6Q134.6 68.2 135.0 67.5Q135.5 66.7 135.5 65.8L135.5 65.8Q135.5 64.8 135.0 64.1Q134.5 63.3 133.7 62.9Q132.8 62.5 131.8 62.5L131.8 62.5Q130.7 62.5 129.8 62.9Q129.0 63.3 128.5 64.1Q128.0 64.8 128.0 65.8L128.0 65.8Q128.0 66.7 128.5 67.4Q128.9 68.2 129.8 68.6Q130.6 69.0 131.8 69.0ZM131.8 59.2L131.8 59.2Q132.7 59.2 133.4 58.8Q134.1 58.4 134.6 57.8Q135.0 57.1 135.0 56.2L135.0 56.2Q135.0 55.3 134.6 54.7Q134.2 54.0 133.4 53.7Q132.7 53.3 131.8 53.3L131.8 53.3Q130.8 53.3 130.1 53.7Q129.4 54.0 128.9 54.7Q128.5 55.3 128.5 56.2L128.5 56.2Q128.5 57.1 128.9 57.8Q129.4 58.4 130.1 58.8Q130.8 59.2 131.8 59.2Z "/></g><mask id="satori_om-id-1-1"><rect x="110" y="81" width="45" height="13" fill="#fff" mask="url(#satori_om-id)"/></mask><g mask="url(#satori_om-id)" clip-path="url(#satori_cp-id)"><path fill="rgba(200,220,255,0.45)" d="M112.4 92L110.7 92L110.7 84.0L113.8 84.0Q114.8 84.0 115.4 84.3Q116.0 84.6 116.4 85.2Q116.7 85.8 116.7 86.6Q116.7 87.4 116.4 88.0Q116.0 88.5 115.4 88.8L115.4 88.8Q115.3 88.9 115.3 88.9L115.3 88.9L117.0 92L115.2 92L113.6 89.1L112.4 89.1L112.4 92ZM112.4 85.4L112.4 87.8L113.5 87.8Q114.0 87.8 114.4 87.7Q114.7 87.5 114.9 87.3Q115.0 87.0 115.0 86.6L115.0 86.6Q115.0 86.2 114.9 85.9Q114.7 85.6 114.4 85.5Q114.0 85.4 113.5 85.4L113.5 85.4L112.4 85.4ZM124.8 92L119.4 92L119.4 84.0L124.8 84.0L124.8 85.4L121.1 85.4L121.1 87.3L124.5 87.3L124.5 88.6L121.1 88.6L121.1 90.6L124.8 90.6L124.8 92ZM129.3 92L127.6 92L127.6 84.0L130.8 84.0Q131.7 84.0 132.3 84.3Q132.9 84.7 133.3 85.3Q133.6 85.9 133.6 86.7L133.6 86.7Q133.6 87.5 133.3 88.1Q132.9 88.7 132.3 89.0Q131.6 89.4 130.7 89.4L130.7 89.4L129.3 89.4L129.3 92ZM129.3 85.4L129.3 88.1L130.5 88.1Q131.0 88.1 131.3 87.9Q131.6 87.7 131.8 87.4Q131.9 87.1 131.9 86.7Q131.9 86.3 131.8 86.0Q131.6 85.7 131.3 85.5Q131.0 85.4 130.4 85.4L130.4 85.4L129.3 85.4ZM139.8 92.1L139.8 92.1Q138.7 92.1 137.9 91.6Q137.0 91.1 136.5 90.2Q136.0 89.3 136.0 88.0L136.0 88.0Q136.0 86.7 136.5 85.8Q137.0 84.9 137.9 84.4Q138.7 83.9 139.8 83.9L139.8 83.9Q140.8 83.9 141.7 84.4Q142.5 84.9 143.0 85.8Q143.5 86.7 143.5 88.0L143.5 88.0Q143.5 89.3 143.0 90.2Q142.5 91.1 141.7 91.6Q140.8 92.1 139.8 92.1ZM139.8 90.7L139.8 90.7Q140.4 90.7 140.9 90.3Q141.3 90.0 141.6 89.5Q141.8 88.9 141.8 88.0L141.8 88.0Q141.8 87.1 141.6 86.5Q141.3 86.0 140.9 85.6Q140.4 85.3 139.8 85.3L139.8 85.3Q139.2 85.3 138.7 85.7Q138.2 86.0 138.0 86.6Q137.7 87.1 137.7 88.0L137.7 88.0Q137.7 88.9 138.0 89.4Q138.2 90.0 138.7 90.3Q139.2 90.7 139.8 90.7ZM149.2 92.1L149.2 92.1Q148.2 92.1 147.5 91.8Q146.8 91.5 146.4 90.9Q146.0 90.4 146.0 89.5L146.0 89.5L147.6 89.5Q147.6 89.9 147.8 90.2Q148.0 90.5 148.4 90.6Q148.7 90.7 149.2 90.7L149.2 90.7Q149.6 90.7 149.9 90.6Q150.2 90.5 150.4 90.2Q150.6 90.0 150.6 89.7L150.6 89.7Q150.6 89.4 150.4 89.3Q150.3 89.1 150.0 88.9Q149.7 88.8 149.2 88.7L149.2 88.7L148.3 88.5Q147.3 88.2 146.8 87.7Q146.2 87.2 146.2 86.3L146.2 86.3Q146.2 85.6 146.6 85.0Q147.0 84.5 147.6 84.2Q148.3 83.9 149.2 83.9L149.2 83.9Q150.1 83.9 150.7 84.2Q151.4 84.5 151.8 85.0Q152.1 85.6 152.1 86.3L152.1 86.3L150.6 86.3Q150.5 85.8 150.2 85.5Q149.8 85.3 149.2 85.3L149.2 85.3Q148.8 85.3 148.5 85.4Q148.2 85.5 148.0 85.7Q147.9 85.9 147.9 86.2L147.9 86.2Q147.9 86.5 148.0 86.7Q148.2 86.9 148.5 87.0Q148.8 87.1 149.1 87.2L149.1 87.2L149.9 87.4Q150.4 87.5 150.8 87.7Q151.2 87.9 151.6 88.2Q151.9 88.4 152.1 88.8Q152.3 89.2 152.3 89.7L152.3 89.7Q152.3 90.4 151.9 91.0Q151.5 91.5 150.8 91.8Q150.1 92.1 149.2 92.1Z "/></g><defs><clipPath id="satori_bc-id-2" clip-path="url(#satori_cp-id)"><rect x="264" y="30" width="312" height="80"/></clipPath></defs><mask id="satori_om-id-2"><rect x="264" y="30" width="311" height="80" fill="#fff" mask="url(#satori_om-id)"/><path width="312" height="80" fill="none" stroke="#000" stroke-width="2" d="M576,30 A0,0 0 0 1 576,30 v80 A0,0 0 0 1 576,110"/></mask><path width="312" height="80" clip-path="url(#satori_bc-id-2)" fill="none" stroke="rgba(255,255,255,0.06)" stroke-width="2" d="M576,30 A0,0 0 0 1 576,30 v80 A0,0 0 0 1 576,110"/><mask id="satori_om-id-2-0"><rect x="390" y="46" width="58" height="30" fill="#fff" mask="url(#satori_om-id)"/></mask><g mask="url(#satori_om-id)" clip-path="url(#satori_cp-id)"><path fill="#a78bfa" d="M399.2 72.3L399.2 72.3Q397.0 72.3 395.2 71.5Q393.5 70.6 392.4 69.2Q391.4 67.7 391.4 65.9L391.4 65.9L395.7 65.9Q395.8 66.7 396.2 67.4Q396.7 68.0 397.5 68.4Q398.3 68.7 399.2 68.7L399.2 68.7Q400.3 68.7 401.1 68.3Q402.0 67.8 402.5 66.9Q402.9 66.0 402.9 64.9L402.9 64.9Q402.9 63.7 402.5 62.8Q402.0 61.9 401.1 61.4Q400.3 60.9 399.1 60.9L399.1 60.9Q398.1 60.9 397.2 61.3Q396.3 61.7 395.8 62.3L395.8 62.3L391.8 61.6L392.9 50.2L406.1 50.2L406.1 53.9L396.6 53.9L396.0 59.4L396.1 59.4Q396.7 58.6 397.9 58.1Q399.0 57.6 400.4 57.6L400.4 57.6Q401.9 57.6 403.2 58.1Q404.4 58.6 405.3 59.6Q406.3 60.5 406.8 61.9Q407.3 63.2 407.3 64.7L407.3 64.7Q407.3 66.9 406.3 68.6Q405.2 70.3 403.4 71.3Q401.6 72.3 399.2 72.3ZM418.0 72.3L418.0 72.3Q415.8 72.3 414.2 71.5Q412.5 70.6 411.5 69.2Q410.5 67.7 410.3 65.9L410.3 65.9L414.7 65.9Q414.9 67.1 415.8 67.8Q416.7 68.5 418.0 68.5L418.0 68.5Q419.4 68.5 420.4 67.6Q421.4 66.8 421.9 65.2Q422.4 63.6 422.4 61.5L422.4 61.5L422.3 61.5Q421.8 62.4 420.9 63.1Q420.1 63.8 419.0 64.1Q418.0 64.5 416.8 64.5L416.8 64.5Q414.8 64.5 413.3 63.6Q411.8 62.7 410.9 61.1Q410.0 59.5 410.0 57.5L410.0 57.5Q410.0 55.2 411.1 53.5Q412.1 51.8 413.9 50.8Q415.8 49.8 418.2 49.9L418.2 49.9Q419.8 49.9 421.4 50.4Q422.9 51.0 424.1 52.2Q425.3 53.5 426.1 55.5Q426.8 57.6 426.8 60.6L426.8 60.6Q426.8 63.3 426.2 65.5Q425.5 67.7 424.4 69.2Q423.2 70.7 421.6 71.5Q420.0 72.3 418.0 72.3ZM418.1 61.2L418.1 61.2Q418.9 61.2 419.6 60.9Q420.3 60.6 420.8 60.1Q421.4 59.5 421.7 58.8Q421.9 58.1 421.9 57.3L421.9 57.3Q421.9 56.3 421.5 55.4Q421.0 54.5 420.1 54.0Q419.3 53.4 418.2 53.4L418.2 53.4Q417.1 53.4 416.2 53.9Q415.4 54.5 414.9 55.4Q414.4 56.2 414.4 57.3L414.4 57.3Q414.4 58.4 414.9 59.3Q415.4 60.2 416.2 60.7Q417.1 61.2 418.1 61.2ZM445.4 72L430.0 72L430.0 68.8L437.7 61.5Q438.7 60.6 439.4 59.8Q440.1 59.0 440.4 58.2Q440.8 57.5 440.8 56.6L440.8 56.6Q440.8 55.6 440.3 54.9Q439.9 54.2 439.1 53.8Q438.4 53.5 437.4 53.5L437.4 53.5Q436.4 53.5 435.6 53.9Q434.9 54.3 434.4 55.0Q434.0 55.8 434.0 56.9L434.0 56.9L429.8 56.9Q429.8 54.7 430.7 53.2Q431.7 51.6 433.4 50.7Q435.2 49.9 437.4 49.9L437.4 49.9Q439.7 49.9 441.5 50.7Q443.2 51.5 444.1 53.0Q445.1 54.4 445.1 56.3L445.1 56.3Q445.1 57.5 444.6 58.7Q444.2 59.9 442.9 61.4Q441.7 62.9 439.5 64.9L439.5 64.9L436.2 68.2L436.2 68.3L445.4 68.3L445.4 72Z "/></g><mask id="satori_om-id-2-1"><rect x="373" y="81" width="93" height="13" fill="#fff" mask="url(#satori_om-id)"/></mask><g mask="url(#satori_om-id)" clip-path="url(#satori_cp-id)"><path fill="rgba(200,220,255,0.45)" d="M375.1 92L373.3 92L376.0 84.0L378.1 84.0L380.9 92L379.1 92L378.5 90.1L375.7 90.1L375.1 92ZM376.1 88.9L378.1 88.9L377.8 88.1Q377.6 87.4 377.4 86.5L377.4 86.5Q377.2 85.9 377.1 85.3L377.1 85.3Q376.9 85.9 376.8 86.5L376.8 86.5Q376.5 87.4 376.3 88.1L376.3 88.1L376.1 88.9ZM386.9 92.1L386.9 92.1Q385.9 92.1 385.0 91.6Q384.2 91.1 383.7 90.2Q383.2 89.3 383.2 88.0L383.2 88.0Q383.2 86.7 383.7 85.8Q384.2 84.9 385.0 84.4Q385.9 83.9 386.9 83.9L386.9 83.9Q387.6 83.9 388.2 84.1Q388.8 84.3 389.2 84.6Q389.7 85.0 390.0 85.5Q390.3 86.1 390.4 86.7L390.4 86.7L388.7 86.7Q388.7 86.4 388.5 86.1Q388.4 85.9 388.1 85.7Q387.9 85.5 387.6 85.4Q387.3 85.3 387.0 85.3L387.0 85.3Q386.3 85.3 385.9 85.7Q385.4 86.0 385.1 86.6Q384.9 87.2 384.9 88.0L384.9 88.0Q384.9 88.9 385.1 89.5Q385.4 90.1 385.9 90.4Q386.3 90.7 387.0 90.7L387.0 90.7Q387.3 90.7 387.6 90.6Q387.9 90.5 388.1 90.3Q388.4 90.1 388.5 89.8Q388.7 89.6 388.7 89.3L388.7 89.3L390.4 89.3Q390.3 89.8 390.1 90.3Q389.8 90.8 389.3 91.2Q388.9 91.6 388.3 91.9Q387.7 92.1 386.9 92.1ZM395.2 85.4L392.8 85.4L392.8 84.0L399.3 84.0L399.3 85.4L396.8 85.4L396.8 92L395.2 92L395.2 85.4ZM401.9 84.0L403.6 84.0L403.6 92L401.9 92L401.9 84.0ZM411.0 92L408.8 92L406.0 84.0L407.9 84.0L409.1 87.9Q409.4 88.6 409.6 89.5L409.6 89.5Q409.8 90.0 409.9 90.7L409.9 90.7Q410.1 90.0 410.2 89.5L410.2 89.5Q410.5 88.6 410.7 87.9L410.7 87.9L411.9 84.0L413.7 84.0L411.0 92ZM421.6 92L416.2 92L416.2 84.0L421.6 84.0L421.6 85.4L417.9 85.4L417.9 87.3L421.3 87.3L421.3 88.6L417.9 88.6L417.9 90.6L421.6 90.6L421.6 92Z M431.3 92L431.3 92L428.5 92L428.5 84.0L431.3 84.0Q432.5 84.0 433.4 84.5Q434.3 85.0 434.8 85.9Q435.2 86.7 435.2 88.0L435.2 88.0Q435.2 89.2 434.8 90.1Q434.3 91.0 433.4 91.5Q432.5 92 431.3 92ZM430.1 85.4L430.1 90.6L431.2 90.6Q432.0 90.6 432.5 90.3Q433.1 90.0 433.3 89.5Q433.6 88.9 433.6 88.0L433.6 88.0Q433.6 87.1 433.3 86.5Q433.1 86.0 432.5 85.7Q432.0 85.4 431.2 85.4L431.2 85.4L430.1 85.4ZM439.3 92L437.5 92L440.2 84.0L442.4 84.0L445.2 92L443.4 92L442.7 90.1L439.9 90.1L439.3 92ZM440.3 88.9L442.3 88.9L442.1 88.1Q441.8 87.4 441.6 86.5L441.6 86.5Q441.4 85.9 441.3 85.3L441.3 85.3Q441.1 85.9 441.0 86.5L441.0 86.5Q440.8 87.4 440.5 88.1L440.5 88.1L440.3 88.9ZM451.8 92L450.2 92L450.2 89.0L447.2 84.0L449.1 84.0L450.5 86.5Q450.7 86.9 450.8 87.2L450.8 87.2Q450.9 87.4 451.0 87.6L451.0 87.6Q451.1 87.4 451.1 87.2L451.1 87.2Q451.3 86.9 451.5 86.5L451.5 86.5L452.8 84.0L454.7 84.0L451.8 89.0L451.8 92ZM460.1 92.1L460.1 92.1Q459.2 92.1 458.5 91.8Q457.7 91.5 457.4 90.9Q457.0 90.4 456.9 89.5L456.9 89.5L458.5 89.5Q458.6 89.9 458.8 90.2Q459.0 90.5 459.3 90.6Q459.7 90.7 460.1 90.7L460.1 90.7Q460.6 90.7 460.9 90.6Q461.2 90.5 461.4 90.2Q461.6 90.0 461.6 89.7L461.6 89.7Q461.6 89.4 461.4 89.3Q461.2 89.1 460.9 88.9Q460.6 88.8 460.2 88.7L460.2 88.7L459.3 88.5Q458.3 88.2 457.7 87.7Q457.1 87.2 457.1 86.3L457.1 86.3Q457.1 85.6 457.5 85.0Q457.9 84.5 458.6 84.2Q459.3 83.9 460.2 83.9L460.2 83.9Q461.0 83.9 461.7 84.2Q462.4 84.5 462.7 85.0Q463.1 85.6 463.1 86.3L463.1 86.3L461.5 86.3Q461.5 85.8 461.1 85.5Q460.8 85.3 460.1 85.3L460.1 85.3Q459.7 85.3 459.4 85.4Q459.1 85.5 459.0 85.7Q458.8 85.9 458.8 86.2L458.8 86.2Q458.8 86.5 459.0 86.7Q459.2 86.9 459.5 87.0Q459.8 87.1 460.1 87.2L460.1 87.2L460.8 87.4Q461.3 87.5 461.8 87.7Q462.2 87.9 462.5 88.2Q462.9 88.4 463.0 88.8Q463.2 89.2 463.2 89.7L463.2 89.7Q463.2 90.4 462.9 91.0Q462.5 91.5 461.8 91.8Q461.1 92.1 460.1 92.1Z "/></g><mask id="satori_om-id-3"><rect x="576" y="30" width="283" height="80" fill="#fff" mask="url(#satori_om-id)"/></mask><mask id="satori_om-id-3-0"><rect x="685" y="46" width="66" height="30" fill="#fff" mask="url(#satori_om-id)"/></mask><g mask="url(#satori_om-id)" clip-path="url(#satori_cp-id)"><path fill="#34d399" d="M691.2 50.2L696.0 50.2L696.0 72L691.5 72L691.5 54.1L691.4 54.1L686.4 57.7L686.4 53.6L691.2 50.2ZM707.7 72.3L707.7 72.3Q705.2 72.3 703.4 71.5Q701.5 70.7 700.4 69.3Q699.3 67.9 699.3 66.1L699.3 66.1Q699.3 64.8 699.9 63.6Q700.6 62.5 701.6 61.7Q702.7 60.9 704.0 60.7L704.0 60.7L704.0 60.6Q702.3 60.2 701.2 58.9Q700.1 57.5 700.1 55.7L700.1 55.7Q700.1 54.1 701.1 52.7Q702.1 51.4 703.8 50.6Q705.5 49.9 707.7 49.9L707.7 49.9Q709.9 49.9 711.6 50.6Q713.3 51.4 714.3 52.7Q715.3 54.1 715.3 55.7L715.3 55.7Q715.3 57.5 714.2 58.9Q713.1 60.2 711.4 60.6L711.4 60.6L711.4 60.7Q712.7 60.9 713.8 61.7Q714.8 62.5 715.5 63.6Q716.1 64.8 716.1 66.1L716.1 66.1Q716.1 67.9 715.0 69.3Q713.9 70.7 712.0 71.5Q710.1 72.3 707.7 72.3ZM707.7 69.0L707.7 69.0Q708.8 69.0 709.7 68.6Q710.5 68.2 711.0 67.5Q711.4 66.7 711.4 65.8L711.4 65.8Q711.4 64.8 710.9 64.1Q710.5 63.3 709.6 62.9Q708.8 62.5 707.7 62.5L707.7 62.5Q706.6 62.5 705.8 62.9Q704.9 63.3 704.4 64.1Q704.0 64.8 704.0 65.8L704.0 65.8Q704.0 66.7 704.4 67.4Q704.9 68.2 705.7 68.6Q706.6 69.0 707.7 69.0ZM707.7 59.2L707.7 59.2Q708.6 59.2 709.4 58.8Q710.1 58.4 710.5 57.8Q710.9 57.1 710.9 56.2L710.9 56.2Q710.9 55.3 710.5 54.7Q710.1 54.0 709.4 53.7Q708.6 53.3 707.7 53.3L707.7 53.3Q706.7 53.3 706.0 53.7Q705.3 54.0 704.9 54.7Q704.5 55.3 704.5 56.2L704.5 56.2Q704.5 57.1 704.9 57.8Q705.3 58.4 706.0 58.8Q706.8 59.2 707.7 59.2ZM723.6 50.2L728.4 50.2L728.4 72L724.0 72L724.0 54.1L723.8 54.1L718.8 57.7L718.8 53.6L723.6 50.2ZM742.3 68.1L731.9 68.1L731.9 64.6L741.0 50.2L746.6 50.2L746.6 64.5L749.3 64.5L749.3 68.1L746.6 68.1L746.6 72L742.3 72L742.3 68.1ZM736.4 64.5L742.4 64.5L742.4 55.1L742.2 55.1L736.4 64.3L736.4 64.5Z "/></g><mask id="satori_om-id-3-1"><rect x="685" y="81" width="66" height="13" fill="#fff" mask="url(#satori_om-id)"/></mask><g mask="url(#satori_om-id)" clip-path="url(#satori_cp-id)"><path fill="rgba(200,220,255,0.45)" d="M689.2 92.1L689.2 92.1Q688.2 92.1 687.3 91.6Q686.5 91.1 686.0 90.2Q685.5 89.3 685.5 88.0L685.5 88.0Q685.5 86.7 686.0 85.8Q686.5 84.9 687.3 84.4Q688.2 83.9 689.2 83.9L689.2 83.9Q689.9 83.9 690.5 84.1Q691.1 84.3 691.5 84.6Q692.0 85.0 692.3 85.5Q692.6 86.1 692.7 86.7L692.7 86.7L691.0 86.7Q691.0 86.4 690.8 86.1Q690.6 85.9 690.4 85.7Q690.2 85.5 689.9 85.4Q689.6 85.3 689.3 85.3L689.3 85.3Q688.6 85.3 688.2 85.7Q687.7 86.0 687.4 86.6Q687.2 87.2 687.2 88.0L687.2 88.0Q687.2 88.9 687.4 89.5Q687.7 90.1 688.2 90.4Q688.6 90.7 689.2 90.7L689.2 90.7Q689.6 90.7 689.9 90.6Q690.2 90.5 690.4 90.3Q690.6 90.1 690.8 89.8Q691.0 89.6 691.0 89.3L691.0 89.3L692.7 89.3Q692.6 89.8 692.3 90.3Q692.1 90.8 691.6 91.2Q691.2 91.6 690.6 91.9Q690.0 92.1 689.2 92.1ZM698.9 92.1L698.9 92.1Q697.8 92.1 697.0 91.6Q696.1 91.1 695.6 90.2Q695.1 89.3 695.1 88.0L695.1 88.0Q695.1 86.7 695.6 85.8Q696.1 84.9 697.0 84.4Q697.8 83.9 698.9 83.9L698.9 83.9Q699.9 83.9 700.8 84.4Q701.6 84.9 702.1 85.8Q702.6 86.7 702.6 88.0L702.6 88.0Q702.6 89.3 702.1 90.2Q701.6 91.1 700.8 91.6Q699.9 92.1 698.9 92.1ZM698.9 90.7L698.9 90.7Q699.5 90.7 700.0 90.3Q700.4 90.0 700.7 89.5Q700.9 88.9 700.9 88.0L700.9 88.0Q700.9 87.1 700.7 86.5Q700.4 86.0 700.0 85.6Q699.5 85.3 698.9 85.3L698.9 85.3Q698.3 85.3 697.8 85.7Q697.3 86.0 697.1 86.6Q696.8 87.1 696.8 88.0L696.8 88.0Q696.8 88.9 697.1 89.4Q697.3 90.0 697.8 90.3Q698.3 90.7 698.9 90.7ZM707.0 92L705.3 92L705.3 84.0L707.9 84.0L709.2 87.7Q709.2 87.9 709.3 88.3Q709.4 88.7 709.5 89.2L709.5 89.2Q709.7 89.7 709.7 90.1L709.7 90.1Q709.8 89.7 709.9 89.2L709.9 89.2Q710.0 88.8 710.2 88.3Q710.3 87.9 710.3 87.7L710.3 87.7L711.6 84.0L714.1 84.0L714.1 92L712.5 92L712.5 88.2Q712.5 88.0 712.5 87.6Q712.5 87.2 712.5 86.7Q712.5 86.3 712.5 85.8L712.5 85.8Q712.6 85.6 712.6 85.4L712.6 85.4Q712.5 85.6 712.4 85.9L712.4 85.9Q712.3 86.3 712.2 86.8Q712.1 87.2 711.9 87.6Q711.8 88.0 711.8 88.2L711.8 88.2L710.4 92L709.0 92L707.7 88.2Q707.6 88.0 707.5 87.6Q707.4 87.2 707.3 86.8Q707.1 86.4 707.0 85.9L707.0 85.9Q707.0 85.7 706.9 85.5L706.9 85.5Q706.9 85.6 706.9 85.8L706.9 85.8Q706.9 86.2 706.9 86.7Q706.9 87.2 707.0 87.6Q707.0 88.0 707.0 88.2L707.0 88.2L707.0 92ZM718.7 92L717.1 92L717.1 84.0L719.6 84.0L720.9 87.7Q721.0 87.9 721.1 88.3Q721.2 88.7 721.3 89.2L721.3 89.2Q721.4 89.7 721.5 90.1L721.5 90.1Q721.6 89.7 721.7 89.2L721.7 89.2Q721.8 88.8 721.9 88.3Q722.0 87.9 722.1 87.7L722.1 87.7L723.4 84.0L725.9 84.0L725.9 92L724.2 92L724.2 88.2Q724.2 88.0 724.2 87.6Q724.3 87.2 724.3 86.7Q724.3 86.3 724.3 85.8L724.3 85.8Q724.3 85.6 724.3 85.4L724.3 85.4Q724.2 85.6 724.2 85.9L724.2 85.9Q724.1 86.3 723.9 86.8Q723.8 87.2 723.7 87.6Q723.6 88.0 723.5 88.2L723.5 88.2L722.2 92L720.8 92L719.4 88.2Q719.4 88.0 719.3 87.6Q719.1 87.2 719.0 86.8Q718.9 86.4 718.8 85.9L718.8 85.9Q718.7 85.7 718.7 85.5L718.7 85.5Q718.7 85.6 718.7 85.8L718.7 85.8Q718.7 86.2 718.7 86.7Q718.7 87.2 718.7 87.6Q718.7 88.0 718.7 88.2L718.7 88.2L718.7 92ZM728.8 84.0L730.5 84.0L730.5 92L728.8 92L728.8 84.0ZM735.5 85.4L733.1 85.4L733.1 84.0L739.6 84.0L739.6 85.4L737.2 85.4L737.2 92L735.5 92L735.5 85.4ZM745.2 92.1L745.2 92.1Q744.2 92.1 743.5 91.8Q742.8 91.5 742.4 90.9Q742.0 90.4 742.0 89.5L742.0 89.5L743.6 89.5Q743.6 89.9 743.8 90.2Q744.0 90.5 744.4 90.6Q744.7 90.7 745.2 90.7L745.2 90.7Q745.6 90.7 745.9 90.6Q746.3 90.5 746.5 90.2Q746.6 90.0 746.6 89.7L746.6 89.7Q746.6 89.4 746.5 89.3Q746.3 89.1 746.0 88.9Q745.7 88.8 745.3 88.7L745.3 88.7L744.4 88.5Q743.4 88.2 742.8 87.7Q742.2 87.2 742.2 86.3L742.2 86.3Q742.2 85.6 742.6 85.0Q743.0 84.5 743.7 84.2Q744.3 83.9 745.2 83.9L745.2 83.9Q746.1 83.9 746.8 84.2Q747.4 84.5 747.8 85.0Q748.2 85.6 748.2 86.3L748.2 86.3L746.6 86.3Q746.6 85.8 746.2 85.5Q745.8 85.3 745.2 85.3L745.2 85.3Q744.8 85.3 744.5 85.4Q744.2 85.5 744.0 85.7Q743.9 85.9 743.9 86.2L743.9 86.2Q743.9 86.5 744.1 86.7Q744.2 86.9 744.5 87.0Q744.8 87.1 745.2 87.2L745.2 87.2L745.9 87.4Q746.4 87.5 746.8 87.7Q747.3 87.9 747.6 88.2Q747.9 88.4 748.1 88.8Q748.3 89.2 748.3 89.7L748.3 89.7Q748.3 90.4 747.9 91.0Q747.6 91.5 746.9 91.8Q746.2 92.1 745.2 92.1Z "/></g></svg>