<!-- Generated by readme-aura https://github.com/collectioneur/readme-aura -->
<svg width="860" height="140" viewBox="0 0 860 140" xmlns="http://www.w3.org/2000/svg"><defs><clipPath id="satori_bc-id"><path x="0" y="0" width="860" height="140" d="M16,0 h828 a16,16 0 0 1 16,16 v108 a16,16 0 0 1 -16,16 h-828 a16,16 0 0 1 -16,-16 v-108 a16,16 0 0 1 16,-16"/></clipPath></defs><clipPath id="satori_cp-id"><path x="0" y="0" width="860" height="140" d="M16,0 h828 a16,16 0 0 1 16,16 v108 a16,16 0 0 1 -16,16 h-828 a16,16 0 0 1 -16,-16 v-108 a16,16 0 0 1 16,-16"/></clipPath><mask id="satori_om-id"><rect x="1" y="1" width="858" height="138" fill="#fff"/><path width="860" height="140" fill="none" stroke="#000" stroke-width="2" d="M4.686,4.686 A16,16 0 0 1 16,0 h828 a16,16 0 0 1 16,16 v108 a16,16 0 0 1 -16,16 h-828 a16,16 0 0 1 -16,-16 v-108 A16,16 0 0 1 4.686,4.686"/></mask><path x="0" y="0" width="860" height="140" fill="#08080c" d="M16,0 h828 a16,16 0 0 1 16,16 v108 a16,16 0 0 1 -16,16 h-828 a16,16 0 0 1 -16,-16 v-108 a16,16 0 0 1 16,-16"/><path width="860" height="140" clip-path="url(#satori_bc-id)" fill="none" stroke="rgba(0,185,240,0.18)" stroke-width="2" d="M4.686,4.686 A16,16 0 0 1 16,0 h828 a16,16 0 0 1 16,16 v108 a16,16 0 0 1 -16,16 h-828 a16,16 0 0 1 -16,-16 v-108 A16,16 0 0 1 4.686,4.686"/><clipPath id="satori_cp-id-0" clip-path="url(#satori_cp-id)"><rect x="1" y="1" width="860" height="140"/></clipPath><mask id="satori_om-id-0"><rect x="1" y="1" width="860" height="140" fill="#fff" mask="url(#satori_om-id)"/></mask><svg x="1" y="1" width="860" height="140" preserveAspectRatio="none" clip-path="url(#satori_cp-id-0)" mask="url(#satori_om-id-0)"><defs><radialGradient id="g1" cx="50%" cy="50%" r="50%"><stop offset="0%" stop-color="rgba(0,185,240,0.60)"></stop><stop offset="45%" stop-color="rgba(0,140,210,0.25)"></stop><stop offset="70%" stop-color="rgba(0,140,210,0)"></stop></radialGradient><radialGradient id="g2" cx="50%" cy="50%" r="50%"><stop offset="0%" stop-color="rgba(110,20,210,0.65)"></stop><stop offset="45%" stop-color="rgba(80,15,170,0.28)"></stop><stop offset="70%" stop-color="rgba(80,15,170,0)"></stop></radialGradient><radialGradient id="g3" cx="50%" cy="50%" r="50%"><stop offset="0%" stop-color="rgba(40,70,255,0.55)"></stop><stop offset="70%" stop-color="rgba(20,50,200,0)"></stop></radialGradient><radialGradient id="g4" cx="50%" cy="50%" r="50%"><stop offset="0%" stop-color="rgba(0,195,235,0.30)"></stop><stop offset="70%" stop-color="rgba(0,195,235,0)"></stop></radialGradient><radialGradient id="g5" cx="50%" cy="50%" r="50%"><stop offset="0%" stop-color="rgba(100,30,210,0.40)"></stop><stop offset="70%" stop-color="rgba(100,30,210,0)"></stop></radialGradient></defs><ellipse id="glow-1" cx="710" cy="150" rx="210" ry="150" fill="url(#g1)"></ellipse><ellipse id="glow-2" cx="550" cy="140" rx="190" ry="140" fill="url(#g2)"></ellipse><ellipse id="glow-3" cx="400" cy="130" rx="170" ry="130" fill="url(#g3)"></ellipse><ellipse id="glow-4" cx="250" cy="140" rx="150" ry="120" fill="url(#g4)"></ellipse><ellipse id="glow-5" cx="100" cy="150" rx="130" ry="110" fill="url(#g5)"></ellipse><style>

         @keyframes float-slow {
           0%, 100% { transform: translateX(0px); opacity: 0.8; }
           50% { transform: translateX(350px); opacity: 1.2; }
         }
         @keyframes float-medium {
           0%, 100% { transform: translateX(0px); opacity: 0.7; }
           50% { transform: translateX(-250px); opacity: 1.1; }
         }
         @keyframes float-fast {
           0%, 100% { transform: translateX(0px); opacity: 0.9; }
           50% { transform: translateX(200px); opacity: 0.6; }
         }
         @keyframes float-diagonal {
           0%, 100% { transform: translate(0px, 0px); opacity: 0.75; }
           50% { transform: translate(120px, 30px); opacity: 1.0; }
         }
         @keyframes float-wave {
           0%, 100% { transform: translateX(0px); opacity: 0.65; }
           33% { transform: translateX(-160px); opacity: 0.9; }
           66% { transform: translateX(80px); opacity: 1.0; }
         }
         #glow-1 { animation: float-slow 8s ease-in-out infinite; }
         #glow-2 { animation: float-medium 12s ease-in-out infinite; }
         #glow-3 { animation: float-fast 9s ease-in-out infinite; }
         #glow-4 { animation: float-diagonal 10s ease-in-out infinite; }
         #glow-5 { animation: float-wave 14s ease-in-out infinite; }
       
</style>
</svg><mask id="satori_om-id-0-0"><rect x="1" y="1" width="0" height="140" fill="#fff" mask="url(#satori_om-id)"/></mask><mask id="satori_om-id-0-0-0"><rect x="1" y="1" width="0" height="140" fill="#fff" mask="url(#satori_om-id)"/></mask><mask id="satori_om-id-0-0-0-0"><rect x="1" y="1" width="0" height="140" fill="#fff" mask="url(#satori_om-id)"/></mask><mask id="satori_om-id-0-0-0-1"><rect x="1" y="1" width="0" height="140" fill="#fff" mask="url(#satori_om-id)"/></mask><mask id="satori_om-id-0-0-0-2"><rect x="1" y="1" width="0" height="140" fill="#fff" mask="url(#satori_om-id)"/></mask><mask id="satori_om-id-0-0-1"><rect x="1" y="1" width="0" height="140" fill="#fff" mask="url(#satori_om-id)"/></mask><mask id="satori_om-id-0-0-1-0"><rect x="1" y="1" width="0" height="140" fill="#fff" mask="url(#satori_om-id)"/></mask><mask id="satori_om-id-0-0-1-1"><rect x="1" y="1" width="0" height="140" fill="#fff" mask="url(#satori_om-id)"/></mask><mask id="satori_om-id-0-0-1-2"><rect x="1" y="1" width="0" height="140" fill="#fff" mask="url(#satori_om-id)"/></mask><mask id="satori_om-id-0-0-2"><rect x="1" y="1" width="0" height="140" fill="#fff" mask="url(#satori_om-id)"/></mask><mask id="satori_om-id-0-0-2-0"><rect x="1" y="1" width="0" height="140" fill="#fff" mask="url(#satori_om-id)"/></mask><mask id="satori_om-id-0-0-2-1"><rect x="1" y="1" width="0" height="140" fill="#fff" mask="url(#satori_om-id)"/></mask><mask id="satori_om-id-0-0-3"><rect x="1" y="1" width="0" height="140" fill="#fff" mask="url(#satori_om-id)"/></mask><mask id="satori_om-id-0-0-3-0"><rect x="1" y="1" width="0" height="140" fill="#fff" mask="url(#satori_om-id)"/></mask><mask id="satori_om-id-0-0-3-1"><rect x="1" y="1" width="0" height="140" fill="#fff" mask="url(#satori_om-id)"/></mask><mask id="satori_om-id-0-0-4"><rect x="1" y="1" width="0" height="140" fill="#fff" mask="url(#satori_om-id)"/></mask><mask id="satori_om-id-0-0-4-0"><rect x="1" y="1" width="0" height="140" fill="#fff" mask="url(#satori_om-id)"/></mask><mask id="satori_om-id-0-0-4-1"><rect x="1" y="1" width="0" height="140" fill="#fff" mask="url(#satori_om-id)"/></mask><mask id="satori_om-id-0-1"><rect x="1" y="1" width="0" height="140" fill="#fff" mask="url(#satori_om-id)"/></mask><mask id="satori_om-id-0-2"><rect x="1" y="1" width="0" height="140" fill="#fff" mask="url(#satori_om-id)"/></mask><mask id="satori_om-id-0-3"><rect x="1" y="1" width="0" height="140" fill="#fff" mask="url(#satori_om-id)"/></mask><mask id="satori_om-id-0-4"><rect x="1" y="1" width="0" height="140" fill="#fff" mask="url(#satori_om-id)"/></mask><mask id="satori_om-id-0-5"><rect x="1" y="1" width="0" height="140" fill="#fff" mask="url(#satori_om-id)"/></mask><defs><clipPath id="satori_bc-id-1" clip-path="url(#satori_cp-id)"><rect x="1" y="30" width="278" height="80"/></clipPath></defs><mask id="satori_om-id-1"><rect x="1" y="30" width="277" height="80" fill="#fff" mask="url(#satori_om-id)"/><path width="278" height="80" fill="none" stroke="#000" stroke-width="2" d="M279,30 A0,0 0 0 1 279,30 v80 A0,0 0 0 1 279,110"/></mask><path width="278" height="80" clip-path="url(#satori_bc-id-1)" fill="none" stroke="rgba(255,255,255,0.06)" stroke-width="2" d="M279,30 A0,0 0 0 1 279,30 v80 A0,0 0 0 1 279,110"/><mask id="satori_om-id-1-0"><rect x="130" y="46" width="20" height="30" fill="#fff" mask="url(#satori_om-id)"/></mask><g mask="url(#satori_om-id)" clip-path="url(#satori_cp-id)"><path fill="#60a5fa" d="M139.8 72.3L139.8 72.3Q137.3 72.3 135.4 71.5Q133.5 70.7 132.5 69.3Q131.4 67.9 131.4 66.1L131.4 66.1Q131.4 64.8 132.0 63.6Q132.6 62.5 133.7 61.7Q134.7 60.9 136.1 60.7L136.1 60.7L136.1 60.6Q134.3 60.2 133.3 58.9Q132.2 57.5 132.2 55.7L132.2 55.7Q132.2 54.1 133.1 52.7Q134.1 51.4 135.8 50.6Q137.6 49.9 139.8 49.9L139.8 49.9Q141.9 49.9 143.7 50.6Q145.4 51.4 146.4 52.7Q147.4 54.1 147.4 55.7L147.4 55.7Q147.4 57.5 146.3 58.9Q145.2 60.2 143.5 60.6L143.5 60.6L143.5 60.7Q144.8 60.9 145.8 61.7Q146.9 62.5 147.5 63.6Q148.2 64.8 148.2 66.1L148.2 66.1Q148.2 67.9 147.1 69.3Q146.0 70.7 144.1 71.5Q142.2 72.3 139.8 72.3ZM139.8 69.0L139.8 69.0Q140.9 69.0 141.7 68.6Q142.6 68.2 143.0 67.5Q143.5 66.7 143.5 65.8L143.5 65.8Q143.5 64.8 143.0 64.1Q142.5 63.3 141.7 62.9Q140.8 62.5 139.8 62.5L139.8 62.5Q138.7 62.5 137.8 62.9Q137.0 63.3 136.5 64.1Q136.0 64.8 136.0 65.8L136.0 65.8Q136.0 66.7 136.5 67.4Q136.9 68.2 137.8 68.6Q138.6 69.0 139.8 69.0ZM139.8 59.2L139.8 59.2Q140.7 59.2 141.4 58.8Q142.1 58.4 142.6 57.8Q143.0 57.1 143.0 56.2L143.0 56.2Q143.0 55.3 142.6 54.7Q142.2 54.0 141.4 53.7Q140.7 53.3 139.8 53.3L139.8 53.3Q138.8 53.3 138.1 53.7Q137.4 54.0 136.9 54.7Q136.5 55.3 136.5 56.2L136.5 56.2Q136.5 57.1 136.9 57.8Q137.4 58.4 138.1 58.8Q138.8 59.2 139.8 59.2Z "/></g><mask id="satori_om-id-1-1"><rect x="117" y="81" width="45" height="13" fill="#fff" mask="url(#satori_om-id)"/></mask><g mask="url(#satori_om-id)" clip-path="url(#satori_cp-id)"><path fill="rgba(200,220,255,0.45)" d="M119.4 92L117.7 92L117.7 84.0L120.8 84.0Q121.8 84.0 122.4 84.3Q123.0 84.6 123.4 85.2Q123.7 85.8 123.7 86.6Q123.7 87.4 123.4 88.0Q123.0 88.5 122.4 88.8L122.4 88.8Q122.3 88.9 122.3 88.9L122.3 88.9L124.0 92L122.2 92L120.6 89.1L119.4 89.1L119.4 92ZM119.4 85.4L119.4 87.8L120.5 87.8Q121.0 87.8 121.4 87.7Q121.7 87.5 121.9 87.3Q122.0 87.0 122.0 86.6L122.0 86.6Q122.0 86.2 121.9 85.9Q121.7 85.6 121.4 85.5Q121.0 85.4 120.5 85.4L120.5 85.4L119.4 85.4ZM131.8 92L126.4 92L126.4 84.0L131.8 84.0L131.8 85.4L128.1 85.4L128.1 87.3L131.5 87.3L131.5 88.6L128.1 88.6L128.1 90.6L131.8 90.6L131.8 92ZM136.3 92L134.6 92L134.6 84.0L137.8 84.0Q138.7 84.0 139.3 84.3Q139.9 84.7 140.3 85.3Q140.6 85.9 140.6 86.7L140.6 86.7Q140.6 87.5 140.3 88.1Q139.9 88.7 139.3 89.0Q138.6 89.4 137.7 89.4L137.7 89.4L136.3 89.4L136.3 92ZM136.3 85.4L136.3 88.1L137.5 88.1Q138.0 88.1 138.3 87.9Q138.6 87.7 138.8 87.4Q138.9 87.1 138.9 86.7Q138.9 86.3 138.8 86.0Q138.6 85.7 138.3 85.5Q138.0 85.4 137.4 85.4L137.4 85.4L136.3 85.4ZM146.8 92.1L146.8 92.1Q145.7 92.1 144.9 91.6Q144.0 91.1 143.5 90.2Q143.0 89.3 143.0 88.0L143.0 88.0Q143.0 86.7 143.5 85.8Q144.0 84.9 144.9 84.4Q145.7 83.9 146.8 83.9L146.8 83.9Q147.8 83.9 148.7 84.4Q149.5 84.9 150.0 85.8Q150.5 86.7 150.5 88.0L150.5 88.0Q150.5 89.3 150.0 90.2Q149.5 91.1 148.7 91.6Q147.8 92.1 146.8 92.1ZM146.8 90.7L146.8 90.7Q147.4 90.7 147.9 90.3Q148.3 90.0 148.6 89.5Q148.8 88.9 148.8 88.0L148.8 88.0Q148.8 87.1 148.6 86.5Q148.3 86.0 147.9 85.6Q147.4 85.3 146.8 85.3L146.8 85.3Q146.2 85.3 145.7 85.7Q145.2 86.0 145.0 86.6Q144.7 87.1 144.7 88.0L144.7 88.0Q144.7 88.9 145.0 89.4Q145.2 90.0 145.7 90.3Q146.2 90.7 146.8 90.7ZM156.2 92.1L156.2 92.1Q155.2 92.1 154.5 91.8Q153.8 91.5 153.4 90.9Q153.0 90.4 153.0 89.5L153.0 89.5L154.6 89.5Q154.6 89.9 154.8 90.2Q155.0 90.5 155.4 90.6Q155.7 90.7 156.2 90.7L156.2 90.7Q156.6 90.7 156.9 90.6Q157.2 90.5 157.4 90.2Q157.6 90.0 157.6 89.7L157.6 89.7Q157.6 89.4 157.4 89.3Q157.3 89.1 157.0 88.9Q156.7 88.8 156.2 88.7L156.2 88.7L155.3 88.5Q154.3 88.2 153.8 87.7Q153.2 87.2 153.2 86.3L153.2 86.3Q153.2 85.6 153.6 85.0Q154.0 84.5 154.6 84.2Q155.3 83.9 156.2 83.9L156.2 83.9Q157.1 83.9 157.7 84.2Q158.4 84.5 158.8 85.0Q159.1 85.6 159.1 86.3L159.1 86.3L157.6 86.3Q157.5 85.8 157.2 85.5Q156.8 85.3 156.2 85.3L156.2 85.3Q155.8 85.3 155.5 85.4Q155.2 85.5 155.0 85.7Q154.9 85.9 154.9 86.2L154.9 86.2Q154.9 86.5 155.0 86.7Q155.2 86.9 155.5 87.0Q155.8 87.1 156.1 87.2L156.1 87.2L156.9 87.4Q157.4 87.5 157.8 87.7Q158.2 87.9 158.6 88.2Q158.9 88.4 159.1 88.8Q159.3 89.2 159.3 89.7L159.3 89.7Q159.3 90.4 158.9 91.0Q158.5 91.5 157.8 91.8Q157.1 92.1 156.2 92.1Z "/></g><defs><clipPath id="satori_bc-id-2" clip-path="url(#satori_cp-id)"><rect x="279" y="30" width="278" height="80"/></clipPath></defs><mask id="satori_om-id-2"><rect x="279" y="30" width="277" height="80" fill="#fff" mask="url(#satori_om-id)"/><path width="278" height="80" fill="none" stroke="#000" stroke-width="2" d="M557,30 A0,0 0 0 1 557,30 v80 A0,0 0 0 1 557,110"/></mask><path width="278" height="80" clip-path="url(#satori_bc-id-2)" fill="none" stroke="rgba(255,255,255,0.06)" stroke-width="2" d="M557,30 A0,0 0 0 1 557,30 v80 A0,0 0 0 1 557,110"/><mask id="satori_om-id-2-0"><rect x="407" y="46" width="21" height="30" fill="#fff" mask="url(#satori_om-id)"/></mask><g mask="url(#satori_om-id)" clip-path="url(#satori_cp-id)"><path fill="#a78bfa" d="M417.1 72.3L417.1 72.3Q414.4 72.3 412.4 71.0Q410.5 69.6 409.4 67.1Q408.4 64.6 408.4 61.1L408.4 61.1Q408.4 57.6 409.4 55.1Q410.5 52.5 412.4 51.2Q414.4 49.9 417.1 49.9L417.1 49.9Q419.9 49.9 421.8 51.2Q423.8 52.6 424.8 55.1Q425.9 57.6 425.9 61.1L425.9 61.1Q425.9 64.6 424.8 67.1Q423.8 69.6 421.8 71.0Q419.9 72.3 417.1 72.3ZM417.1 68.6L417.1 68.6Q418.5 68.6 419.4 67.7Q420.3 66.8 420.8 65.2Q421.3 63.5 421.3 61.1L421.3 61.1Q421.3 58.7 420.8 57.0Q420.3 55.3 419.4 54.5Q418.5 53.6 417.1 53.6L417.1 53.6Q415.8 53.6 414.8 54.5Q413.9 55.3 413.4 57.0Q412.9 58.7 412.9 61.1L412.9 61.1Q412.9 63.5 413.4 65.2Q413.9 66.8 414.8 67.7Q415.8 68.6 417.1 68.6Z "/></g><mask id="satori_om-id-2-1"><rect x="395" y="81" width="45" height="13" fill="#fff" mask="url(#satori_om-id)"/></mask><g mask="url(#satori_om-id)" clip-path="url(#satori_cp-id)"><path fill="rgba(200,220,255,0.45)" d="M398.7 92.1L398.7 92.1Q397.7 92.1 397.0 91.8Q396.3 91.5 395.9 90.9Q395.5 90.4 395.5 89.5L395.5 89.5L397.1 89.5Q397.1 89.9 397.3 90.2Q397.5 90.5 397.9 90.6Q398.2 90.7 398.6 90.7L398.6 90.7Q399.1 90.7 399.4 90.6Q399.7 90.5 399.9 90.2Q400.1 90.0 400.1 89.7L400.1 89.7Q400.1 89.4 399.9 89.3Q399.8 89.1 399.5 88.9Q399.2 88.8 398.7 88.7L398.7 88.7L397.8 88.5Q396.8 88.2 396.2 87.7Q395.7 87.2 395.7 86.3L395.7 86.3Q395.7 85.6 396.1 85.0Q396.5 84.5 397.1 84.2Q397.8 83.9 398.7 83.9L398.7 83.9Q399.6 83.9 400.2 84.2Q400.9 84.5 401.3 85.0Q401.6 85.6 401.6 86.3L401.6 86.3L400.1 86.3Q400.0 85.8 399.6 85.5Q399.3 85.3 398.7 85.3L398.7 85.3Q398.2 85.3 398.0 85.4Q397.7 85.5 397.5 85.7Q397.4 85.9 397.4 86.2L397.4 86.2Q397.4 86.5 397.5 86.7Q397.7 86.9 398.0 87.0Q398.3 87.1 398.6 87.2L398.6 87.2L399.4 87.4Q399.9 87.5 400.3 87.7Q400.7 87.9 401.1 88.2Q401.4 88.4 401.6 88.8Q401.7 89.2 401.7 89.7L401.7 89.7Q401.7 90.4 401.4 91.0Q401.0 91.5 400.3 91.8Q399.6 92.1 398.7 92.1ZM406.6 85.4L404.1 85.4L404.1 84.0L410.6 84.0L410.6 85.4L408.2 85.4L408.2 92L406.6 92L406.6 85.4ZM414.6 92L412.8 92L415.5 84.0L417.7 84.0L420.5 92L418.7 92L418.1 90.1L415.2 90.1L414.6 92ZM415.6 88.9L417.6 88.9L417.4 88.1Q417.2 87.4 416.9 86.5L416.9 86.5Q416.8 85.9 416.6 85.3L416.6 85.3Q416.4 85.9 416.3 86.5L416.3 86.5Q416.1 87.4 415.9 88.1L415.9 88.1L415.6 88.9ZM424.6 92L423.0 92L423.0 84.0L426.1 84.0Q427.0 84.0 427.7 84.3Q428.3 84.6 428.6 85.2Q429.0 85.8 429.0 86.6Q429.0 87.4 428.6 88.0Q428.3 88.5 427.6 88.8L427.6 88.8Q427.6 88.9 427.5 88.9L427.5 88.9L429.3 92L427.4 92L425.9 89.1L424.6 89.1L424.6 92ZM424.6 85.4L424.6 87.8L425.8 87.8Q426.3 87.8 426.6 87.7Q427.0 87.5 427.1 87.3Q427.3 87.0 427.3 86.6L427.3 86.6Q427.3 86.2 427.1 85.9Q427.0 85.6 426.6 85.5Q426.3 85.4 425.8 85.4L425.8 85.4L424.6 85.4ZM434.6 92.1L434.6 92.1Q433.7 92.1 433.0 91.8Q432.3 91.5 431.9 90.9Q431.5 90.4 431.4 89.5L431.4 89.5L433.0 89.5Q433.1 89.9 433.3 90.2Q433.5 90.5 433.8 90.6Q434.2 90.7 434.6 90.7L434.6 90.7Q435.1 90.7 435.4 90.6Q435.7 90.5 435.9 90.2Q436.1 90.0 436.1 89.7L436.1 89.7Q436.1 89.4 435.9 89.3Q435.8 89.1 435.4 88.9Q435.1 88.8 434.7 88.7L434.7 88.7L433.8 88.5Q432.8 88.2 432.2 87.7Q431.7 87.2 431.7 86.3L431.7 86.3Q431.7 85.6 432.0 85.0Q432.4 84.5 433.1 84.2Q433.8 83.9 434.7 83.9L434.7 83.9Q435.5 83.9 436.2 84.2Q436.9 84.5 437.2 85.0Q437.6 85.6 437.6 86.3L437.6 86.3L436.0 86.3Q436.0 85.8 435.6 85.5Q435.3 85.3 434.6 85.3L434.6 85.3Q434.2 85.3 433.9 85.4Q433.6 85.5 433.5 85.7Q433.3 85.9 433.3 86.2L433.3 86.2Q433.3 86.5 433.5 86.7Q433.7 86.9 434.0 87.0Q434.3 87.1 434.6 87.2L434.6 87.2L435.3 87.4Q435.8 87.5 436.3 87.7Q436.7 87.9 437.0 88.2Q437.4 88.4 437.5 88.8Q437.7 89.2 437.7 89.7L437.7 89.7Q437.7 90.4 437.4 91.0Q437.0 91.5 436.3 91.8Q435.6 92.1 434.6 92.1Z "/></g><mask id="satori_om-id-3"><rect x="557" y="30" width="302" height="80" fill="#fff" mask="url(#satori_om-id)"/></mask><mask id="satori_om-id-3-0"><rect x="673" y="46" width="70" height="30" fill="#fff" mask="url(#satori_om-id)"/></mask><g mask="url(#satori_om-id)" clip-path="url(#satori_cp-id)"><path fill="#34d399" d="M679.2 50.2L684.0 50.2L684.0 72L679.5 72L679.5 54.1L679.4 54.1L674.4 57.7L674.4 53.6L679.2 50.2ZM693.2 72L688.5 72L697.6 54.0L697.6 53.9L687.0 53.9L687.0 50.2L702.3 50.2L702.3 53.9L693.2 72ZM712.4 72.3L712.4 72.3Q710.3 72.3 708.6 71.5Q706.9 70.6 705.9 69.2Q704.9 67.7 704.7 65.9L704.7 65.9L709.1 65.9Q709.4 67.1 710.2 67.8Q711.1 68.5 712.4 68.5L712.4 68.5Q713.8 68.5 714.8 67.6Q715.8 66.8 716.3 65.2Q716.8 63.6 716.8 61.5L716.8 61.5L716.7 61.5Q716.2 62.4 715.4 63.1Q714.5 63.8 713.5 64.1Q712.4 64.5 711.2 64.5L711.2 64.5Q709.3 64.5 707.7 63.6Q706.2 62.7 705.3 61.1Q704.5 59.5 704.5 57.5L704.5 57.5Q704.5 55.2 705.5 53.5Q706.5 51.8 708.3 50.8Q710.2 49.8 712.6 49.9L712.6 49.9Q714.3 49.9 715.8 50.4Q717.3 51.0 718.5 52.2Q719.8 53.5 720.5 55.5Q721.2 57.6 721.2 60.6L721.2 60.6Q721.2 63.3 720.6 65.5Q720.0 67.7 718.8 69.2Q717.7 70.7 716.0 71.5Q714.4 72.3 712.4 72.3ZM712.6 61.2L712.6 61.2Q713.4 61.2 714.1 60.9Q714.8 60.6 715.3 60.1Q715.8 59.5 716.1 58.8Q716.4 58.1 716.4 57.3L716.4 57.3Q716.4 56.3 715.9 55.4Q715.4 54.5 714.5 54.0Q713.7 53.4 712.6 53.4L712.6 53.4Q711.5 53.4 710.7 53.9Q709.8 54.5 709.3 55.4Q708.8 56.2 708.8 57.3L708.8 57.3Q708.8 58.4 709.3 59.3Q709.8 60.2 710.6 60.7Q711.5 61.2 712.6 61.2ZM732.3 72.3L732.3 72.3Q729.9 72.3 728.0 71.5Q726.1 70.7 725.0 69.3Q723.9 67.9 723.9 66.1L723.9 66.1Q723.9 64.8 724.6 63.6Q725.2 62.5 726.3 61.7Q727.3 60.9 728.6 60.7L728.6 60.7L728.6 60.6Q726.9 60.2 725.8 58.9Q724.7 57.5 724.7 55.7L724.7 55.7Q724.7 54.1 725.7 52.7Q726.7 51.4 728.4 50.6Q730.1 49.9 732.3 49.9L732.3 49.9Q734.5 49.9 736.2 50.6Q738.0 51.4 738.9 52.7Q739.9 54.1 739.9 55.7L739.9 55.7Q739.9 57.5 738.8 58.9Q737.7 60.2 736.0 60.6L736.0 60.6L736.0 60.7Q737.3 60.9 738.4 61.7Q739.5 62.5 740.1 63.6Q740.7 64.8 740.7 66.1L740.7 66.1Q740.7 67.9 739.7 69.3Q738.6 70.7 736.7 71.5Q734.8 72.3 732.3 72.3ZM732.3 69.0L732.3 69.0Q733.5 69.0 734.3 68.6Q735.1 68.2 735.6 67.5Q736.1 66.7 736.1 65.8L736.1 65.8Q736.1 64.8 735.6 64.1Q735.1 63.3 734.3 62.9Q733.4 62.5 732.3 62.5L732.3 62.5Q731.2 62.5 730.4 62.9Q729.6 63.3 729.1 64.1Q728.6 64.8 728.6 65.8L728.6 65.8Q728.6 66.7 729.1 67.4Q729.5 68.2 730.4 68.6Q731.2 69.0 732.3 69.0ZM732.3 59.2L732.3 59.2Q733.3 59.2 734.0 58.8Q734.7 58.4 735.1 57.8Q735.5 57.1 735.5 56.2L735.5 56.2Q735.5 55.3 735.1 54.7Q734.7 54.0 734.0 53.7Q733.3 53.3 732.3 53.3L732.3 53.3Q731.4 53.3 730.6 53.7Q729.9 54.0 729.5 54.7Q729.1 55.3 729.1 56.2L729.1 56.2Q729.1 57.1 729.5 57.8Q729.9 58.4 730.7 58.8Q731.4 59.2 732.3 59.2Z "/></g><mask id="satori_om-id-3-1"><rect x="675" y="81" width="66" height="13" fill="#fff" mask="url(#satori_om-id)"/></mask><g mask="url(#satori_om-id)" clip-path="url(#satori_cp-id)"><path fill="rgba(200,220,255,0.45)" d="M679.2 92.1L679.2 92.1Q678.2 92.1 677.3 91.6Q676.5 91.1 676.0 90.2Q675.5 89.3 675.5 88.0L675.5 88.0Q675.5 86.7 676.0 85.8Q676.5 84.9 677.3 84.4Q678.2 83.9 679.2 83.9L679.2 83.9Q679.9 83.9 680.5 84.1Q681.1 84.3 681.5 84.6Q682.0 85.0 682.3 85.5Q682.6 86.1 682.7 86.7L682.7 86.7L681.0 86.7Q681.0 86.4 680.8 86.1Q680.6 85.9 680.4 85.7Q680.2 85.5 679.9 85.4Q679.6 85.3 679.3 85.3L679.3 85.3Q678.6 85.3 678.2 85.7Q677.7 86.0 677.4 86.6Q677.2 87.2 677.2 88.0L677.2 88.0Q677.2 88.9 677.4 89.5Q677.7 90.1 678.2 90.4Q678.6 90.7 679.2 90.7L679.2 90.7Q679.6 90.7 679.9 90.6Q680.2 90.5 680.4 90.3Q680.6 90.1 680.8 89.8Q681.0 89.6 681.0 89.3L681.0 89.3L682.7 89.3Q682.6 89.8 682.3 90.3Q682.1 90.8 681.6 91.2Q681.2 91.6 680.6 91.9Q680.0 92.1 679.2 92.1ZM688.9 92.1L688.9 92.1Q687.8 92.1 687.0 91.6Q686.1 91.1 685.6 90.2Q685.1 89.3 685.1 88.0L685.1 88.0Q685.1 86.7 685.6 85.8Q686.1 84.9 687.0 84.4Q687.8 83.9 688.9 83.9L688.9 83.9Q689.9 83.9 690.8 84.4Q691.6 84.9 692.1 85.8Q692.6 86.7 692.6 88.0L692.6 88.0Q692.6 89.3 692.1 90.2Q691.6 91.1 690.8 91.6Q689.9 92.1 688.9 92.1ZM688.9 90.7L688.9 90.7Q689.5 90.7 690.0 90.3Q690.4 90.0 690.7 89.5Q690.9 88.9 690.9 88.0L690.9 88.0Q690.9 87.1 690.7 86.5Q690.4 86.0 690.0 85.6Q689.5 85.3 688.9 85.3L688.9 85.3Q688.3 85.3 687.8 85.7Q687.3 86.0 687.1 86.6Q686.8 87.1 686.8 88.0L686.8 88.0Q686.8 88.9 687.1 89.4Q687.3 90.0 687.8 90.3Q688.3 90.7 688.9 90.7ZM697.0 92L695.3 92L695.3 84.0L697.9 84.0L699.2 87.7Q699.2 87.9 699.3 88.3Q699.4 88.7 699.5 89.2L699.5 89.2Q699.7 89.7 699.7 90.1L699.7 90.1Q699.8 89.7 699.9 89.2L699.9 89.2Q700.0 88.8 700.2 88.3Q700.3 87.9 700.3 87.7L700.3 87.7L701.6 84.0L704.1 84.0L704.1 92L702.5 92L702.5 88.2Q702.5 88.0 702.5 87.6Q702.5 87.2 702.5 86.7Q702.5 86.3 702.5 85.8L702.5 85.8Q702.6 85.6 702.6 85.4L702.6 85.4Q702.5 85.6 702.4 85.9L702.4 85.9Q702.3 86.3 702.2 86.8Q702.1 87.2 701.9 87.6Q701.8 88.0 701.8 88.2L701.8 88.2L700.4 92L699.0 92L697.7 88.2Q697.6 88.0 697.5 87.6Q697.4 87.2 697.3 86.8Q697.1 86.4 697.0 85.9L697.0 85.9Q697.0 85.7 696.9 85.5L696.9 85.5Q696.9 85.6 696.9 85.8L696.9 85.8Q696.9 86.2 696.9 86.7Q696.9 87.2 697.0 87.6Q697.0 88.0 697.0 88.2L697.0 88.2L697.0 92ZM708.7 92L707.1 92L707.1 84.0L709.6 84.0L710.9 87.7Q711.0 87.9 711.1 88.3Q711.2 88.7 711.3 89.2L711.3 89.2Q711.4 89.7 711.5 90.1L711.5 90.1Q711.6 89.7 711.7 89.2L711.7 89.2Q711.8 88.8 711.9 88.3Q712.0 87.9 712.1 87.7L712.1 87.7L713.4 84.0L715.9 84.0L715.9 92L714.2 92L714.2 88.2Q714.2 88.0 714.2 87.6Q714.3 87.2 714.3 86.7Q714.3 86.3 714.3 85.8L714.3 85.8Q714.3 85.6 714.3 85.4L714.3 85.4Q714.2 85.6 714.2 85.9L714.2 85.9Q714.1 86.3 713.9 86.8Q713.8 87.2 713.7 87.6Q713.6 88.0 713.5 88.2L713.5 88.2L712.2 92L710.8 92L709.4 88.2Q709.4 88.0 709.3 87.6Q709.1 87.2 709.0 86.8Q708.9 86.4 708.8 85.9L708.8 85.9Q708.7 85.7 708.7 85.5L708.7 85.5Q708.7 85.6 708.7 85.8L708.7 85.8Q708.7 86.2 708.7 86.7Q708.7 87.2 708.7 87.6Q708.7 88.0 708.7 88.2L708.7 88.2L708.7 92ZM718.8 84.0L720.5 84.0L720.5 92L718.8 92L718.8 84.0ZM725.5 85.4L723.1 85.4L723.1 84.0L729.6 84.0L729.6 85.4L727.2 85.4L727.2 92L725.5 92L725.5 85.4ZM735.2 92.1L735.2 92.1Q734.2 92.1 733.5 91.8Q732.8 91.5 732.4 90.9Q732.0 90.4 732.0 89.5L732.0 89.5L733.6 89.5Q733.6 89.9 733.8 90.2Q734.0 90.5 734.4 90.6Q734.7 90.7 735.2 90.7L735.2 90.7Q735.6 90.7 735.9 90.6Q736.3 90.5 736.5 90.2Q736.6 90.0 736.6 89.7L736.6 89.7Q736.6 89.4 736.5 89.3Q736.3 89.1 736.0 88.9Q735.7 88.8 735.3 88.7L735.3 88.7L734.4 88.5Q733.4 88.2 732.8 87.7Q732.2 87.2 732.2 86.3L732.2 86.3Q732.2 85.6 732.6 85.0Q733.0 84.5 733.7 84.2Q734.3 83.9 735.2 83.9L735.2 83.9Q736.1 83.9 736.8 84.2Q737.4 84.5 737.8 85.0Q738.2 85.6 738.2 86.3L738.2 86.3L736.6 86.3Q736.6 85.8 736.2 85.5Q735.8 85.3 735.2 85.3L735.2 85.3Q734.8 85.3 734.5 85.4Q734.2 85.5 734.0 85.7Q733.9 85.9 733.9 86.2L733.9 86.2Q733.9 86.5 734.1 86.7Q734.2 86.9 734.5 87.0Q734.8 87.1 735.2 87.2L735.2 87.2L735.9 87.4Q736.4 87.5 736.8 87.7Q737.3 87.9 737.6 88.2Q737.9 88.4 738.1 88.8Q738.3 89.2 738.3 89.7L738.3 89.7Q738.3 90.4 737.9 91.0Q737.6 91.5 736.9 91.8Q736.2 92.1 735.2 92.1Z "/></g></svg>