<!-- Generated by readme-aura https://github.com/collectioneur/readme-aura -->
<svg width="860" height="140" viewBox="0 0 860 140" xmlns="http://www.w3.org/2000/svg"><defs><clipPath id="satori_bc-id"><path x="0" y="0" width="860" height="140" d="M16,0 h828 a16,16 0 0 1 16,16 v108 a16,16 0 0 1 -16,16 h-828 a16,16 0 0 1 -16,-16 v-108 a16,16 0 0 1 16,-16"/></clipPath></defs><clipPath id="satori_cp-id"><path x="0" y="0" width="860" height="140" d="M16,0 h828 a16,16 0 0 1 16,16 v108 a16,16 0 0 1 -16,16 h-828 a16,16 0 0 1 -16,-16 v-108 a16,16 0 0 1 16,-16"/></clipPath><mask id="satori_om-id"><rect x="1" y="1" width="858" height="138" fill="#fff"/><path width="860" height="140" fill="none" stroke="#000" stroke-width="2" d="M4.686,4.686 A16,16 0 0 1 16,0 h828 a16,16 0 0 1 16,16 v108 a16,16 0 0 1 -16,16 h-828 a16,16 0 0 1 -16,-16 v-108 A16,16 0 0 1 4.686,4.686"/></mask><path x="0" y="0" width="860" height="140" fill="#08080c" d="M16,0 h828 a16,16 0 0 1 16,16 v108 a16,16 0 0 1 -16,16 h-828 a16,16 0 0 1 -16,-16 v-108 a16,16 0 0 1 16,-16"/><path width="860" height="140" clip-path="url(#satori_bc-id)" fill="none" stroke="rgba(0,185,240,0.18)" stroke-width="2" d="M4.686,4.686 A16,16 0 0 1 16,0 h828 a16,16 0 0 1 16,16 v108 a16,16 0 0 1 -16,16 h-828 a16,16 0 0 1 -16,-16 v-108 A16,16 0 0 1 4.686,4.686"/><clipPath id="satori_cp-id-0" clip-path="url(#satori_cp-id)"><rect x="1" y="1" width="860" height="140"/></clipPath><mask id="satori_om-id-0"><rect x="1" y="1" width="860" height="140" fill="#fff" mask="url(#satori_om-id)"/></mask><svg x="1" y="1" width="860" height="140" preserveAspectRatio="none" clip-path="url(#satori_cp-id-0)" mask="url(#satori_om-id-0)"><defs><radialGradient id="g1" cx="50%" cy="50%" r="50%"><stop offset="0%" stop-color="rgba(0,185,240,0.60)"></stop><stop offset="45%" stop-color="rgba(0,140,210,0.25)"></stop><stop offset="70%" stop-color="rgba(0,140,210,0)"></stop></radialGradient><radialGradient id="g2" cx="50%" cy="50%" r="50%"><stop offset="0%" stop-color="rgba(110,20,210,0.65)"></stop><stop offset="45%" stop-color="rgba(80,15,170,0.28)"></stop><stop offset="70%" stop-color="rgba(80,15,170,0)"></stop></radialGradient><radialGradient id="g3" cx="50%" cy="50%" r="50%"><stop offset="0%" stop-color="rgba(40,70,255,0.55)"></stop><stop offset="70%" stop-color="rgba(20,50,200,0)"></stop></radialGradient><radialGradient id="g4" cx="50%" cy="50%" r="50%"><stop offset="0%" stop-color="rgba(0,195,235,0.30)"></stop><stop offset="70%" stop-color="rgba(0,195,235,0)"></stop></radialGradient><radialGradient id="g5" cx="50%" cy="50%" r="50%"><stop offset="0%" stop-color="rgba(100,30,210,0.40)"></stop><stop offset="70%" stop-color="rgba(100,30,210,0)"></stop></radialGradient></defs><ellipse id="glow-1" cx="710" cy="150" rx="210" ry="150" fill="url(#g1)"></ellipse><ellipse id="glow-2" cx="550" cy="140" rx="190" ry="140" fill="url(#g2)"></ellipse><ellipse id="glow-3" cx="400" cy="130" rx="170" ry="130" fill="url(#g3)"></ellipse><ellipse id="glow-4" cx="250" cy="140" rx="150" ry="120" fill="url(#g4)"></ellipse><ellipse id="glow-5" cx="100" cy="150" rx="130" ry="110" fill="url(#g5)"></ellipse><style>

         @keyframes float-slow {
           0%, 100% { transform: translateX(0px); opacity: 0.8; }
           50% { transform: translateX(350px); opacity: 1.2; }
         }
         @keyframes float-medium {
           0%, 100% { transform: translateX(0px); opacity: 0.7; }
           50% { transform: translateX(-250px); opacity: 1.1; }
         }
         @keyframes float-fast {
           0%, 100% { transform: translateX(0px); opacity: 0.9; }
           50% { transform: translateX(200px); opacity: 0.6; }
         }
         @keyframes float-diagonal {
           0%, 100% { transform: translate(0px, 0px); opacity: 0.75; }
           50% { transform: translate(120px, 30px); opacity: 1.0; }
         }
         @keyframes float-wave {
           0%, 100% { transform: translateX(0px); opacity: 0.65; }
           33% { transform: translateX(-160px); opacity: 0.9; }
           66% { transform: translateX(80px); opacity: 1.0; }
         }
         #glow-1 { animation: float-slow 8s ease-in-out infinite; }
         #glow-2 { animation: float-medium 12s ease-in-out infinite; }
         #glow-3 { animation: float-fast 9s ease-in-out infinite; }
         #glow-4 { animation: float-diagonal 10s ease-in-out infinite; }
         #glow-5 { animation: float-wave 14s ease-in-out infinite; }
       
</style>
</svg><mask id="satori_om-id-0-0"><rect x="1" y="1" width="0" height="140" fill="#fff" mask="url(#satori_om-id)"/></mask><mask id="satori_om-id-0-0-0"><rect x="1" y="1" width="0" height="140" fill="#fff" mask="url(#satori_om-id)"/></mask><mask id="satori_om-id-0-0-0-0"><rect x="1" y="1" width="0" height="140" fill="#fff" mask="url(#satori_om-id)"/></mask><mask id="satori_om-id-0-0-0-1"><rect x="1" y="1" width="0" height="140" fill="#fff" mask="url(#satori_om-id)"/></mask><mask id="satori_om-id-0-0-0-2"><rect x="1" y="1" width="0" height="140" fill="#fff" mask="url(#satori_om-id)"/></mask><mask id="satori_om-id-0-0-1"><rect x="1" y="1" width="0" height="140" fill="#fff" mask="url(#satori_om-id)"/></mask><mask id="satori_om-id-0-0-1-0"><rect x="1" y="1" width="0" height="140" fill="#fff" mask="url(#satori_om-id)"/></mask><mask id="satori_om-id-0-0-1-1"><rect x="1" y="1" width="0" height="140" fill="#fff" mask="url(#satori_om-id)"/></mask><mask id="satori_om-id-0-0-1-2"><rect x="1" y="1" width="0" height="140" fill="#fff" mask="url(#satori_om-id)"/></mask><mask id="satori_om-id-0-0-2"><rect x="1" y="1" width="0" height="140" fill="#fff" mask="url(#satori_om-id)"/></mask><mask id="satori_om-id-0-0-2-0"><rect x="1" y="1" width="0" height="140" fill="#fff" mask="url(#satori_om-id)"/></mask><mask id="satori_om-id-0-0-2-1"><rect x="1" y="1" width="0" height="140" fill="#fff" mask="url(#satori_om-id)"/></mask><mask id="satori_om-id-0-0-3"><rect x="1" y="1" width="0" height="140" fill="#fff" mask="url(#satori_om-id)"/></mask><mask id="satori_om-id-0-0-3-0"><rect x="1" y="1" width="0" height="140" fill="#fff" mask="url(#satori_om-id)"/></mask><mask id="satori_om-id-0-0-3-1"><rect x="1" y="1" width="0" height="140" fill="#fff" mask="url(#satori_om-id)"/></mask><mask id="satori_om-id-0-0-4"><rect x="1" y="1" width="0" height="140" fill="#fff" mask="url(#satori_om-id)"/></mask><mask id="satori_om-id-0-0-4-0"><rect x="1" y="1" width="0" height="140" fill="#fff" mask="url(#satori_om-id)"/></mask><mask id="satori_om-id-0-0-4-1"><rect x="1" y="1" width="0" height="140" fill="#fff" mask="url(#satori_om-id)"/></mask><mask id="satori_om-id-0-1"><rect x="1" y="1" width="0" height="140" fill="#fff" mask="url(#satori_om-id)"/></mask><mask id="satori_om-id-0-2"><rect x="1" y="1" width="0" height="140" fill="#fff" mask="url(#satori_om-id)"/></mask><mask id="satori_om-id-0-3"><rect x="1" y="1" width="0" height="140" fill="#fff" mask="url(#satori_om-id)"/></mask><mask id="satori_om-id-0-4"><rect x="1" y="1" width="0" height="140" fill="#fff" mask="url(#satori_om-id)"/></mask><mask id="satori_om-id-0-5"><rect x="1" y="1" width="0" height="140" fill="#fff" mask="url(#satori_om-id)"/></mask><defs><clipPath id="satori_bc-id-1" clip-path="url(#satori_cp-id)"><rect x="1" y="30" width="279" height="80"/></clipPath></defs><mask id="satori_om-id-1"><rect x="1" y="30" width="278" height="80" fill="#fff" mask="url(#satori_om-id)"/><path width="279" height="80" fill="none" stroke="#000" stroke-width="2" d="M280,30 A0,0 0 0 1 280,30 v80 A0,0 0 0 1 280,110"/></mask><path width="279" height="80" clip-path="url(#satori_bc-id-1)" fill="none" stroke="rgba(255,255,255,0.06)" stroke-width="2" d="M280,30 A0,0 0 0 1 280,30 v80 A0,0 0 0 1 280,110"/><mask id="satori_om-id-1-0"><rect x="130" y="46" width="20" height="30" fill="#fff" mask="url(#satori_om-id)"/></mask><g mask="url(#satori_om-id)" clip-path="url(#satori_cp-id)"><path fill="#60a5fa" d="M139.8 72.3L139.8 72.3Q137.3 72.3 135.4 71.5Q133.5 70.7 132.5 69.3Q131.4 67.9 131.4 66.1L131.4 66.1Q131.4 64.8 132.0 63.6Q132.6 62.5 133.7 61.7Q134.7 60.9 136.1 60.7L136.1 60.7L136.1 60.6Q134.3 60.2 133.3 58.9Q132.2 57.5 132.2 55.7L132.2 55.7Q132.2 54.1 133.1 52.7Q134.1 51.4 135.8 50.6Q137.6 49.9 139.8 49.9L139.8 49.9Q141.9 49.9 143.7 50.6Q145.4 51.4 146.4 52.7Q147.4 54.1 147.4 55.7L147.4 55.7Q147.4 57.5 146.3 58.9Q145.2 60.2 143.5 60.6L143.5 60.6L143.5 60.7Q144.8 60.9 145.8 61.7Q146.9 62.5 147.5 63.6Q148.2 64.8 148.2 66.1L148.2 66.1Q148.2 67.9 147.1 69.3Q146.0 70.7 144.1 71.5Q142.2 72.3 139.8 72.3ZM139.8 69.0L139.8 69.0Q140.9 69.0 141.7 68.6Q142.6 68.2 143.0 67.5Q143.5 66.7 143.5 65.8L143.5 65.8Q143.5 64.8 143.0 64.1Q142.5 63.3 141.7 62.9Q140.8 62.5 139.8 62.5L139.8 62.5Q138.7 62.5 137.8 62.9Q137.0 63.3 136.5 64.1Q136.0 64.8 136.0 65.8L136.0 65.8Q136.0 66.7 136.5 67.4Q136.9 68.2 137.8 68.6Q138.6 69.0 139.8 69.0ZM139.8 59.2L139.8 59.2Q140.7 59.2 141.4 58.8Q142.1 58.4 142.6 57.8Q143.0 57.1 143.0 56.2L143.0 56.2Q143.0 55.3 142.6 54.7Q142.2 54.0 141.4 53.7Q140.7 53.3 139.8 53.3L139.8 53.3Q138.8 53.3 138.1 53.7Q137.4 54.0 136.9 54.7Q136.5 55.3 136.5 56.2L136.5 56.2Q136.5 57.1 136.9 57.8Q137.4 58.4 138.1 58.8Q138.8 59.2 139.8 59.2Z "/></g><mask id="satori_om-id-1-1"><rect x="117" y="81" width="45" height="13" fill="#fff" mask="url(#satori_om-id)"/></mask><g mask="url(#satori_om-id)" clip-path="url(#satori_cp-id)"><path fill="rgba(200,220,255,0.45)" d="M119.4 92L117.7 92L117.7 84.0L120.8 84.0Q121.8 84.0 122.4 84.3Q123.0 84.6 123.4 85.2Q123.7 85.8 123.7 86.6Q123.7 87.4 123.4 88.0Q123.0 88.5 122.4 88.8L122.4 88.8Q122.3 88.9 122.3 88.9L122.3 88.9L124.0 92L122.2 92L120.6 89.1L119.4 89.1L119.4 92ZM119.4 85.4L119.4 87.8L120.5 87.8Q121.0 87.8 121.4 87.7Q121.7 87.5 121.9 87.3Q122.0 87.0 122.0 86.6L122.0 86.6Q122.0 86.2 121.9 85.9Q121.7 85.6 121.4 85.5Q121.0 85.4 120.5 85.4L120.5 85.4L119.4 85.4ZM131.8 92L126.4 92L126.4 84.0L131.8 84.0L131.8 85.4L128.1 85.4L128.1 87.3L131.5 87.3L131.5 88.6L128.1 88.6L128.1 90.6L131.8 90.6L131.8 92ZM136.3 92L134.6 92L134.6 84.0L137.8 84.0Q138.7 84.0 139.3 84.3Q139.9 84.7 140.3 85.3Q140.6 85.9 140.6 86.7L140.6 86.7Q140.6 87.5 140.3 88.1Q139.9 88.7 139.3 89.0Q138.6 89.4 137.7 89.4L137.7 89.4L136.3 89.4L136.3 92ZM136.3 85.4L136.3 88.1L137.5 88.1Q138.0 88.1 138.3 87.9Q138.6 87.7 138.8 87.4Q138.9 87.1 138.9 86.7Q138.9 86.3 138.8 86.0Q138.6 85.7 138.3 85.5Q138.0 85.4 137.4 85.4L137.4 85.4L136.3 85.4ZM146.8 92.1L146.8 92.1Q145.7 92.1 144.9 91.6Q144.0 91.1 143.5 90.2Q143.0 89.3 143.0 88.0L143.0 88.0Q143.0 86.7 143.5 85.8Q144.0 84.9 144.9 84.4Q145.7 83.9 146.8 83.9L146.8 83.9Q147.8 83.9 148.7 84.4Q149.5 84.9 150.0 85.8Q150.5 86.7 150.5 88.0L150.5 88.0Q150.5 89.3 150.0 90.2Q149.5 91.1 148.7 91.6Q147.8 92.1 146.8 92.1ZM146.8 90.7L146.8 90.7Q147.4 90.7 147.9 90.3Q148.3 90.0 148.6 89.5Q148.8 88.9 148.8 88.0L148.8 88.0Q148.8 87.1 148.6 86.5Q148.3 86.0 147.9 85.6Q147.4 85.3 146.8 85.3L146.8 85.3Q146.2 85.3 145.7 85.7Q145.2 86.0 145.0 86.6Q144.7 87.1 144.7 88.0L144.7 88.0Q144.7 88.9 145.0 89.4Q145.2 90.0 145.7 90.3Q146.2 90.7 146.8 90.7ZM156.2 92.1L156.2 92.1Q155.2 92.1 154.5 91.8Q153.8 91.5 153.4 90.9Q153.0 90.4 153.0 89.5L153.0 89.5L154.6 89.5Q154.6 89.9 154.8 90.2Q155.0 90.5 155.4 90.6Q155.7 90.7 156.2 90.7L156.2 90.7Q156.6 90.7 156.9 90.6Q157.2 90.5 157.4 90.2Q157.6 90.0 157.6 89.7L157.6 89.7Q157.6 89.4 157.4 89.3Q157.3 89.1 157.0 88.9Q156.7 88.8 156.2 88.7L156.2 88.7L155.3 88.5Q154.3 88.2 153.8 87.7Q153.2 87.2 153.2 86.3L153.2 86.3Q153.2 85.6 153.6 85.0Q154.0 84.5 154.6 84.2Q155.3 83.9 156.2 83.9L156.2 83.9Q157.1 83.9 157.7 84.2Q158.4 84.5 158.8 85.0Q159.1 85.6 159.1 86.3L159.1 86.3L157.6 86.3Q157.5 85.8 157.2 85.5Q156.8 85.3 156.2 85.3L156.2 85.3Q155.8 85.3 155.5 85.4Q155.2 85.5 155.0 85.7Q154.9 85.9 154.9 86.2L154.9 86.2Q154.9 86.5 155.0 86.7Q155.2 86.9 155.5 87.0Q155.8 87.1 156.1 87.2L156.1 87.2L156.9 87.4Q157.4 87.5 157.8 87.7Q158.2 87.9 158.6 88.2Q158.9 88.4 159.1 88.8Q159.3 89.2 159.3 89.7L159.3 89.7Q159.3 90.4 158.9 91.0Q158.5 91.5 157.8 91.8Q157.1 92.1 156.2 92.1Z "/></g><defs><clipPath id="satori_bc-id-2" clip-path="url(#satori_cp-id)"><rect x="280" y="30" width="278" height="80"/></clipPath></defs><mask id="satori_om-id-2"><rect x="280" y="30" width="277" height="80" fill="#fff" mask="url(#satori_om-id)"/><path width="278" height="80" fill="none" stroke="#000" stroke-width="2" d="M558,30 A0,0 0 0 1 558,30 v80 A0,0 0 0 1 558,110"/></mask><path width="278" height="80" clip-path="url(#satori_bc-id-2)" fill="none" stroke="rgba(255,255,255,0.06)" stroke-width="2" d="M558,30 A0,0 0 0 1 558,30 v80 A0,0 0 0 1 558,110"/><mask id="satori_om-id-2-0"><rect x="408" y="46" width="21" height="30" fill="#fff" mask="url(#satori_om-id)"/></mask><g mask="url(#satori_om-id)" clip-path="url(#satori_cp-id)"><path fill="#a78bfa" d="M418.1 72.3L418.1 72.3Q415.4 72.3 413.4 71.0Q411.5 69.6 410.4 67.1Q409.4 64.6 409.4 61.1L409.4 61.1Q409.4 57.6 410.4 55.1Q411.5 52.5 413.4 51.2Q415.4 49.9 418.1 49.9L418.1 49.9Q420.9 49.9 422.8 51.2Q424.8 52.6 425.8 55.1Q426.9 57.6 426.9 61.1L426.9 61.1Q426.9 64.6 425.8 67.1Q424.8 69.6 422.8 71.0Q420.9 72.3 418.1 72.3ZM418.1 68.6L418.1 68.6Q419.5 68.6 420.4 67.7Q421.3 66.8 421.8 65.2Q422.3 63.5 422.3 61.1L422.3 61.1Q422.3 58.7 421.8 57.0Q421.3 55.3 420.4 54.5Q419.5 53.6 418.1 53.6L418.1 53.6Q416.8 53.6 415.8 54.5Q414.9 55.3 414.4 57.0Q413.9 58.7 413.9 61.1L413.9 61.1Q413.9 63.5 414.4 65.2Q414.9 66.8 415.8 67.7Q416.8 68.6 418.1 68.6Z "/></g><mask id="satori_om-id-2-1"><rect x="396" y="81" width="45" height="13" fill="#fff" mask="url(#satori_om-id)"/></mask><g mask="url(#satori_om-id)" clip-path="url(#satori_cp-id)"><path fill="rgba(200,220,255,0.45)" d="M399.7 92.1L399.7 92.1Q398.7 92.1 398.0 91.8Q397.3 91.5 396.9 90.9Q396.5 90.4 396.5 89.5L396.5 89.5L398.1 89.5Q398.1 89.9 398.3 90.2Q398.5 90.5 398.9 90.6Q399.2 90.7 399.6 90.7L399.6 90.7Q400.1 90.7 400.4 90.6Q400.7 90.5 400.9 90.2Q401.1 90.0 401.1 89.7L401.1 89.7Q401.1 89.4 400.9 89.3Q400.8 89.1 400.5 88.9Q400.2 88.8 399.7 88.7L399.7 88.7L398.8 88.5Q397.8 88.2 397.2 87.7Q396.7 87.2 396.7 86.3L396.7 86.3Q396.7 85.6 397.1 85.0Q397.5 84.5 398.1 84.2Q398.8 83.9 399.7 83.9L399.7 83.9Q400.6 83.9 401.2 84.2Q401.9 84.5 402.3 85.0Q402.6 85.6 402.6 86.3L402.6 86.3L401.1 86.3Q401.0 85.8 400.6 85.5Q400.3 85.3 399.7 85.3L399.7 85.3Q399.2 85.3 399.0 85.4Q398.7 85.5 398.5 85.7Q398.4 85.9 398.4 86.2L398.4 86.2Q398.4 86.5 398.5 86.7Q398.7 86.9 399.0 87.0Q399.3 87.1 399.6 87.2L399.6 87.2L400.4 87.4Q400.9 87.5 401.3 87.7Q401.7 87.9 402.1 88.2Q402.4 88.4 402.6 88.8Q402.7 89.2 402.7 89.7L402.7 89.7Q402.7 90.4 402.4 91.0Q402.0 91.5 401.3 91.8Q400.6 92.1 399.7 92.1ZM407.6 85.4L405.1 85.4L405.1 84.0L411.6 84.0L411.6 85.4L409.2 85.4L409.2 92L407.6 92L407.6 85.4ZM415.6 92L413.8 92L416.5 84.0L418.7 84.0L421.5 92L419.7 92L419.1 90.1L416.2 90.1L415.6 92ZM416.6 88.9L418.6 88.9L418.4 88.1Q418.2 87.4 417.9 86.5L417.9 86.5Q417.8 85.9 417.6 85.3L417.6 85.3Q417.4 85.9 417.3 86.5L417.3 86.5Q417.1 87.4 416.9 88.1L416.9 88.1L416.6 88.9ZM425.6 92L424.0 92L424.0 84.0L427.1 84.0Q428.0 84.0 428.7 84.3Q429.3 84.6 429.6 85.2Q430.0 85.8 430.0 86.6Q430.0 87.4 429.6 88.0Q429.3 88.5 428.6 88.8L428.6 88.8Q428.6 88.9 428.5 88.9L428.5 88.9L430.3 92L428.4 92L426.9 89.1L425.6 89.1L425.6 92ZM425.6 85.4L425.6 87.8L426.8 87.8Q427.3 87.8 427.6 87.7Q428.0 87.5 428.1 87.3Q428.3 87.0 428.3 86.6L428.3 86.6Q428.3 86.2 428.1 85.9Q428.0 85.6 427.6 85.5Q427.3 85.4 426.8 85.4L426.8 85.4L425.6 85.4ZM435.6 92.1L435.6 92.1Q434.7 92.1 434.0 91.8Q433.3 91.5 432.9 90.9Q432.5 90.4 432.4 89.5L432.4 89.5L434.0 89.5Q434.1 89.9 434.3 90.2Q434.5 90.5 434.8 90.6Q435.2 90.7 435.6 90.7L435.6 90.7Q436.1 90.7 436.4 90.6Q436.7 90.5 436.9 90.2Q437.1 90.0 437.1 89.7L437.1 89.7Q437.1 89.4 436.9 89.3Q436.8 89.1 436.4 88.9Q436.1 88.8 435.7 88.7L435.7 88.7L434.8 88.5Q433.8 88.2 433.2 87.7Q432.7 87.2 432.7 86.3L432.7 86.3Q432.7 85.6 433.0 85.0Q433.4 84.5 434.1 84.2Q434.8 83.9 435.7 83.9L435.7 83.9Q436.5 83.9 437.2 84.2Q437.9 84.5 438.2 85.0Q438.6 85.6 438.6 86.3L438.6 86.3L437.0 86.3Q437.0 85.8 436.6 85.5Q436.3 85.3 435.6 85.3L435.6 85.3Q435.2 85.3 434.9 85.4Q434.6 85.5 434.5 85.7Q434.3 85.9 434.3 86.2L434.3 86.2Q434.3 86.5 434.5 86.7Q434.7 86.9 435.0 87.0Q435.3 87.1 435.6 87.2L435.6 87.2L436.3 87.4Q436.8 87.5 437.3 87.7Q437.7 87.9 438.0 88.2Q438.4 88.4 438.5 88.8Q438.7 89.2 438.7 89.7L438.7 89.7Q438.7 90.4 438.4 91.0Q438.0 91.5 437.3 91.8Q436.6 92.1 435.6 92.1Z "/></g><mask id="satori_om-id-3"><rect x="558" y="30" width="301" height="80" fill="#fff" mask="url(#satori_om-id)"/></mask><mask id="satori_om-id-3-0"><rect x="674" y="46" width="68" height="30" fill="#fff" mask="url(#satori_om-id)"/></mask><g mask="url(#satori_om-id)" clip-path="url(#satori_cp-id)"><path fill="#34d399" d="M680.2 50.2L685.0 50.2L685.0 72L680.5 72L680.5 54.1L680.4 54.1L675.4 57.7L675.4 53.6L680.2 50.2ZM694.2 72L689.5 72L698.6 54.0L698.6 53.9L688.0 53.9L688.0 50.2L703.3 50.2L703.3 53.9L694.2 72ZM712.2 72L707.6 72L716.6 54.0L716.6 53.9L706.1 53.9L706.1 50.2L721.3 50.2L721.3 53.9L712.2 72ZM731.4 72.3L731.4 72.3Q729.3 72.3 727.6 71.5Q726.0 70.6 724.9 69.2Q723.9 67.7 723.7 65.9L723.7 65.9L728.1 65.9Q728.4 67.1 729.3 67.8Q730.1 68.5 731.4 68.5L731.4 68.5Q732.9 68.5 733.9 67.6Q734.8 66.8 735.4 65.2Q735.9 63.6 735.9 61.5L735.9 61.5L735.7 61.5Q735.2 62.4 734.4 63.1Q733.6 63.8 732.5 64.1Q731.4 64.5 730.2 64.5L730.2 64.5Q728.3 64.5 726.8 63.6Q725.2 62.7 724.4 61.1Q723.5 59.5 723.5 57.5L723.5 57.5Q723.5 55.2 724.5 53.5Q725.5 51.8 727.4 50.8Q729.2 49.8 731.6 49.9L731.6 49.9Q733.3 49.9 734.8 50.4Q736.4 51.0 737.6 52.2Q738.8 53.5 739.5 55.5Q740.2 57.6 740.2 60.6L740.2 60.6Q740.2 63.3 739.6 65.5Q739.0 67.7 737.8 69.2Q736.7 70.7 735.1 71.5Q733.4 72.3 731.4 72.3ZM731.6 61.2L731.6 61.2Q732.4 61.2 733.1 60.9Q733.8 60.6 734.3 60.1Q734.8 59.5 735.1 58.8Q735.4 58.1 735.4 57.3L735.4 57.3Q735.4 56.3 734.9 55.4Q734.4 54.5 733.6 54.0Q732.7 53.4 731.6 53.4L731.6 53.4Q730.6 53.4 729.7 53.9Q728.8 54.5 728.3 55.4Q727.8 56.2 727.8 57.3L727.8 57.3Q727.8 58.4 728.3 59.3Q728.8 60.2 729.7 60.7Q730.5 61.2 731.6 61.2Z "/></g><mask id="satori_om-id-3-1"><rect x="675" y="81" width="66" height="13" fill="#fff" mask="url(#satori_om-id)"/></mask><g mask="url(#satori_om-id)" clip-path="url(#satori_cp-id)"><path fill="rgba(200,220,255,0.45)" d="M679.2 92.1L679.2 92.1Q678.2 92.1 677.3 91.6Q676.5 91.1 676.0 90.2Q675.5 89.3 675.5 88.0L675.5 88.0Q675.5 86.7 676.0 85.8Q676.5 84.9 677.3 84.4Q678.2 83.9 679.2 83.9L679.2 83.9Q679.9 83.9 680.5 84.1Q681.1 84.3 681.5 84.6Q682.0 85.0 682.3 85.5Q682.6 86.1 682.7 86.7L682.7 86.7L681.0 86.7Q681.0 86.4 680.8 86.1Q680.6 85.9 680.4 85.7Q680.2 85.5 679.9 85.4Q679.6 85.3 679.3 85.3L679.3 85.3Q678.6 85.3 678.2 85.7Q677.7 86.0 677.4 86.6Q677.2 87.2 677.2 88.0L677.2 88.0Q677.2 88.9 677.4 89.5Q677.7 90.1 678.2 90.4Q678.6 90.7 679.2 90.7L679.2 90.7Q679.6 90.7 679.9 90.6Q680.2 90.5 680.4 90.3Q680.6 90.1 680.8 89.8Q681.0 89.6 681.0 89.3L681.0 89.3L682.7 89.3Q682.6 89.8 682.3 90.3Q682.1 90.8 681.6 91.2Q681.2 91.6 680.6 91.9Q680.0 92.1 679.2 92.1ZM688.9 92.1L688.9 92.1Q687.8 92.1 687.0 91.6Q686.1 91.1 685.6 90.2Q685.1 89.3 685.1 88.0L685.1 88.0Q685.1 86.7 685.6 85.8Q686.1 84.9 687.0 84.4Q687.8 83.9 688.9 83.9L688.9 83.9Q689.9 83.9 690.8 84.4Q691.6 84.9 692.1 85.8Q692.6 86.7 692.6 88.0L692.6 88.0Q692.6 89.3 692.1 90.2Q691.6 91.1 690.8 91.6Q689.9 92.1 688.9 92.1ZM688.9 90.7L688.9 90.7Q689.5 90.7 690.0 90.3Q690.4 90.0 690.7 89.5Q690.9 88.9 690.9 88.0L690.9 88.0Q690.9 87.1 690.7 86.5Q690.4 86.0 690.0 85.6Q689.5 85.3 688.9 85.3L688.9 85.3Q688.3 85.3 687.8 85.7Q687.3 86.0 687.1 86.6Q686.8 87.1 686.8 88.0L686.8 88.0Q686.8 88.9 687.1 89.4Q687.3 90.0 687.8 90.3Q688.3 90.7 688.9 90.7ZM697.0 92L695.3 92L695.3 84.0L697.9 84.0L699.2 87.7Q699.2 87.9 699.3 88.3Q699.4 88.7 699.5 89.2L699.5 89.2Q699.7 89.7 699.7 90.1L699.7 90.1Q699.8 89.7 699.9 89.2L699.9 89.2Q700.0 88.8 700.2 88.3Q700.3 87.9 700.3 87.7L700.3 87.7L701.6 84.0L704.1 84.0L704.1 92L702.5 92L702.5 88.2Q702.5 88.0 702.5 87.6Q702.5 87.2 702.5 86.7Q702.5 86.3 702.5 85.8L702.5 85.8Q702.6 85.6 702.6 85.4L702.6 85.4Q702.5 85.6 702.4 85.9L702.4 85.9Q702.3 86.3 702.2 86.8Q702.1 87.2 701.9 87.6Q701.8 88.0 701.8 88.2L701.8 88.2L700.4 92L699.0 92L697.7 88.2Q697.6 88.0 697.5 87.6Q697.4 87.2 697.3 86.8Q697.1 86.4 697.0 85.9L697.0 85.9Q697.0 85.7 696.9 85.5L696.9 85.5Q696.9 85.6 696.9 85.8L696.9 85.8Q696.9 86.2 696.9 86.7Q696.9 87.2 697.0 87.6Q697.0 88.0 697.0 88.2L697.0 88.2L697.0 92ZM708.7 92L707.1 92L707.1 84.0L709.6 84.0L710.9 87.7Q711.0 87.9 711.1 88.3Q711.2 88.7 711.3 89.2L711.3 89.2Q711.4 89.7 711.5 90.1L711.5 90.1Q711.6 89.7 711.7 89.2L711.7 89.2Q711.8 88.8 711.9 88.3Q712.0 87.9 712.1 87.7L712.1 87.7L713.4 84.0L715.9 84.0L715.9 92L714.2 92L714.2 88.2Q714.2 88.0 714.2 87.6Q714.3 87.2 714.3 86.7Q714.3 86.3 714.3 85.8L714.3 85.8Q714.3 85.6 714.3 85.4L714.3 85.4Q714.2 85.6 714.2 85.9L714.2 85.9Q714.1 86.3 713.9 86.8Q713.8 87.2 713.7 87.6Q713.6 88.0 713.5 88.2L713.5 88.2L712.2 92L710.8 92L709.4 88.2Q709.4 88.0 709.3 87.6Q709.1 87.2 709.0 86.8Q708.9 86.4 708.8 85.9L708.8 85.9Q708.7 85.7 708.7 85.5L708.7 85.5Q708.7 85.6 708.7 85.8L708.7 85.8Q708.7 86.2 708.7 86.7Q708.7 87.2 708.7 87.6Q708.7 88.0 708.7 88.2L708.7 88.2L708.7 92ZM718.8 84.0L720.5 84.0L720.5 92L718.8 92L718.8 84.0ZM725.5 85.4L723.1 85.4L723.1 84.0L729.6 84.0L729.6 85.4L727.2 85.4L727.2 92L725.5 92L725.5 85.4ZM735.2 92.1L735.2 92.1Q734.2 92.1 733.5 91.8Q732.8 91.5 732.4 90.9Q732.0 90.4 732.0 89.5L732.0 89.5L733.6 89.5Q733.6 89.9 733.8 90.2Q734.0 90.5 734.4 90.6Q734.7 90.7 735.2 90.7L735.2 90.7Q735.6 90.7 735.9 90.6Q736.3 90.5 736.5 90.2Q736.6 90.0 736.6 89.7L736.6 89.7Q736.6 89.4 736.5 89.3Q736.3 89.1 736.0 88.9Q735.7 88.8 735.3 88.7L735.3 88.7L734.4 88.5Q733.4 88.2 732.8 87.7Q732.2 87.2 732.2 86.3L732.2 86.3Q732.2 85.6 732.6 85.0Q733.0 84.5 733.7 84.2Q734.3 83.9 735.2 83.9L735.2 83.9Q736.1 83.9 736.8 84.2Q737.4 84.5 737.8 85.0Q738.2 85.6 738.2 86.3L738.2 86.3L736.6 86.3Q736.6 85.8 736.2 85.5Q735.8 85.3 735.2 85.3L735.2 85.3Q734.8 85.3 734.5 85.4Q734.2 85.5 734.0 85.7Q733.9 85.9 733.9 86.2L733.9 86.2Q733.9 86.5 734.1 86.7Q734.2 86.9 734.5 87.0Q734.8 87.1 735.2 87.2L735.2 87.2L735.9 87.4Q736.4 87.5 736.8 87.7Q737.3 87.9 737.6 88.2Q737.9 88.4 738.1 88.8Q738.3 89.2 738.3 89.7L738.3 89.7Q738.3 90.4 737.9 91.0Q737.6 91.5 736.9 91.8Q736.2 92.1 735.2 92.1Z "/></g></svg>